<?xml version="1.0" encoding="UTF-8"?>
<svg xmlns="http://www.w3.org/2000/svg" version="1.1" viewBox="0 0 800 800">
  <!-- Generator: Adobe Illustrator 29.4.0, SVG Export Plug-In . SVG Version: 2.1.0 Build 152)  -->
  <defs>
    <style>
      .st0 {
        fill: #fe0000;
        fill-rule: evenodd;
        isolation: isolate;
        opacity: 1;
      }

      .st1 {
        fill: #c93;
      }

      .st2 {
        fill: #efc75e;
      }
    </style>
  </defs>
  <g id="Layer_1">
    <g>
      <path class="st2" d="M345.3,158.3c16.6,0,30,13.4,30,30s-13.4,30-30,30-30-13.4-30-30,13.4-30,30-30h0Z"/>
      <path class="st1" d="M345.3,163.9c-13.5,0-24.4,10.9-24.4,24.4s10.9,24.4,24.4,24.4,24.4-10.9,24.4-24.4-10.9-24.4-24.4-24.4h0ZM345.3,208.9c-11.4,0-20.6-9.2-20.6-20.6s9.2-20.6,20.6-20.6,20.6,9.2,20.6,20.6-9.2,20.6-20.6,20.6ZM347.8,186.8c-1.1-.5-5.2-1.1-5.2-2.9s1.5-1.7,2.5-1.7,1.9.3,2.4.8c.3.3.5.6.6.9.1.4.2.8.8.8h2.7c.6,0,.8-.1.8-.8,0-3-2.4-4.8-5.1-5.3v-2.4c0-.5-.2-.9-.8-.9h-2.2c-.6,0-.8.3-.8.9v2.3c-2.9.6-5.4,2.4-5.4,5.7s2.6,4.9,5.4,5.9c2.4.8,4.9.8,4.9,2.5s-1.2,2-2.7,2-2.2-.3-2.7-1c-.4-.4-.5-.8-.5-1.2,0-.7-.4-.8-1-.8h-2.7c-.6,0-.8.2-.8.8,0,3.4,2.7,5.4,5.6,6.1v2.3c0,.5.2.9.8.9h2.2c.6,0,.8-.3.8-.9v-2.2c3.3-.5,5.6-2.5,5.6-6.1s-3-4.9-5-5.5h0Z"/>
    </g>
    <g>
      <path class="st2" d="M277.8,158.3c16.6,0,30,13.4,30,30s-13.4,30-30,30-30-13.4-30-30,13.4-30,30-30h0Z"/>
      <path class="st1" d="M277.8,163.9c-13.5,0-24.4,10.9-24.4,24.4s10.9,24.4,24.4,24.4,24.4-10.9,24.4-24.4-10.9-24.4-24.4-24.4h0ZM277.8,208.9c-11.4,0-20.6-9.2-20.6-20.6s9.2-20.6,20.6-20.6,20.6,9.2,20.6,20.6-9.2,20.6-20.6,20.6ZM280.3,186.8c-1.1-.5-5.2-1.1-5.2-2.9s1.5-1.7,2.5-1.7,1.9.3,2.4.8c.3.3.5.6.6.9.1.4.2.8.8.8h2.7c.6,0,.8-.1.8-.8,0-3-2.4-4.8-5.1-5.3v-2.4c0-.5-.2-.9-.8-.9h-2.2c-.6,0-.8.3-.8.9v2.3c-2.9.6-5.4,2.4-5.4,5.7s2.6,4.9,5.4,5.9c2.4.8,4.9.8,4.9,2.5s-1.2,2-2.7,2-2.2-.3-2.7-1c-.4-.4-.5-.8-.5-1.2,0-.7-.4-.8-1-.8h-2.7c-.6,0-.8.2-.8.8,0,3.4,2.7,5.4,5.6,6.1v2.3c0,.5.2.9.8.9h2.2c.6,0,.8-.3.8-.9v-2.2c3.3-.5,5.6-2.5,5.6-6.1s-3-4.9-5-5.5h0Z"/>
    </g>
    <g>
      <path class="st2" d="M412.7,158.3c16.6,0,30,13.4,30,30s-13.4,30-30,30-30-13.4-30-30,13.4-30,30-30h0Z"/>
      <path class="st1" d="M412.7,163.9c-13.5,0-24.4,10.9-24.4,24.4s10.9,24.4,24.4,24.4,24.4-10.9,24.4-24.4-10.9-24.4-24.4-24.4h0ZM412.7,208.9c-11.4,0-20.6-9.2-20.6-20.6s9.2-20.6,20.6-20.6,20.6,9.2,20.6,20.6-9.2,20.6-20.6,20.6ZM415.2,186.8c-1.1-.5-5.2-1.1-5.2-2.9s1.5-1.7,2.5-1.7,1.9.3,2.4.8c.3.3.5.6.6.9.1.4.2.8.8.8h2.7c.6,0,.8-.1.8-.8,0-3-2.4-4.8-5.1-5.3v-2.4c0-.5-.2-.9-.8-.9h-2.2c-.6,0-.8.3-.8.9v2.3c-2.9.6-5.4,2.4-5.4,5.7s2.6,4.9,5.4,5.9c2.4.8,4.9.8,4.9,2.5s-1.2,2-2.7,2-2.2-.3-2.7-1c-.4-.4-.5-.8-.5-1.2,0-.7-.4-.8-1-.8h-2.7c-.6,0-.8.2-.8.8,0,3.4,2.7,5.4,5.6,6.1v2.3c0,.5.2.9.8.9h2.2c.6,0,.8-.3.8-.9v-2.2c3.3-.5,5.6-2.5,5.6-6.1s-3-4.9-5-5.5h0Z"/>
    </g>
  </g>
  <g id="Layer_2">
    <g>
      <g>
        <path class="st2" d="M345.3,256.7c16.6,0,30,13.4,30,30s-13.4,30-30,30-30-13.4-30-30,13.4-30,30-30h0Z"/>
        <path class="st1" d="M345.3,262.3c-13.5,0-24.4,10.9-24.4,24.4s10.9,24.4,24.4,24.4,24.4-10.9,24.4-24.4-10.9-24.4-24.4-24.4h0ZM345.3,307.3c-11.4,0-20.6-9.2-20.6-20.6s9.2-20.6,20.6-20.6,20.6,9.2,20.6,20.6-9.2,20.6-20.6,20.6ZM347.8,285.2c-1.1-.5-5.2-1.1-5.2-2.9s1.5-1.7,2.5-1.7,1.9.3,2.4.8c.3.3.5.6.6.9.1.4.2.8.8.8h2.7c.6,0,.8-.1.8-.8,0-3-2.4-4.8-5.1-5.3v-2.4c0-.5-.2-.9-.8-.9h-2.2c-.6,0-.8.3-.8.9v2.3c-2.9.6-5.4,2.4-5.4,5.7s2.6,4.9,5.4,5.9c2.4.8,4.9.8,4.9,2.5s-1.2,2-2.7,2-2.2-.3-2.7-1c-.4-.4-.5-.8-.5-1.2,0-.7-.4-.8-1-.8h-2.7c-.6,0-.8.2-.8.8,0,3.4,2.7,5.4,5.6,6.1v2.3c0,.5.2.9.8.9h2.2c.6,0,.8-.3.8-.9v-2.2c3.3-.5,5.6-2.5,5.6-6.1s-3-4.9-5-5.5h0Z"/>
      </g>
      <path class="st0" d="M328.5,264.2h0c5.6,5.6,11.2,11.2,16.8,16.8,5.6-5.6,11.2-11.1,16.8-16.7,0,0,0,0,.1,0,1.8,1.9,3.7,3.7,5.5,5.6v.2c-5.6,5.6-11.2,11.1-16.7,16.7,5.6,5.6,11.1,11.2,16.7,16.7h0c-1.9,2-3.8,3.9-5.7,5.8h-.1c-5.6-5.6-11.1-11.2-16.7-16.7-5.5,5.5-11.1,11-16.6,16.6,0,0-.1,0-.2.1-1.9-1.9-3.8-3.8-5.6-5.6,5.6-5.6,11.1-11.2,16.7-16.7-5.6-5.6-11.2-11.2-16.8-16.8h0c1.9-2,3.8-3.9,5.7-5.8Z"/>
    </g>
    <g>
      <g>
        <path class="st2" d="M277.8,256.7c16.6,0,30,13.4,30,30s-13.4,30-30,30-30-13.4-30-30,13.4-30,30-30h0Z"/>
        <path class="st1" d="M277.8,262.3c-13.5,0-24.4,10.9-24.4,24.4s10.9,24.4,24.4,24.4,24.4-10.9,24.4-24.4-10.9-24.4-24.4-24.4h0ZM277.8,307.3c-11.4,0-20.6-9.2-20.6-20.6s9.2-20.6,20.6-20.6,20.6,9.2,20.6,20.6-9.2,20.6-20.6,20.6ZM280.3,285.2c-1.1-.5-5.2-1.1-5.2-2.9s1.5-1.7,2.5-1.7,1.9.3,2.4.8c.3.3.5.6.6.9.1.4.2.8.8.8h2.7c.6,0,.8-.1.8-.8,0-3-2.4-4.8-5.1-5.3v-2.4c0-.5-.2-.9-.8-.9h-2.2c-.6,0-.8.3-.8.9v2.3c-2.9.6-5.4,2.4-5.4,5.7s2.6,4.9,5.4,5.9c2.4.8,4.9.8,4.9,2.5s-1.2,2-2.7,2-2.2-.3-2.7-1c-.4-.4-.5-.8-.5-1.2,0-.7-.4-.8-1-.8h-2.7c-.6,0-.8.2-.8.8,0,3.4,2.7,5.4,5.6,6.1v2.3c0,.5.2.9.8.9h2.2c.6,0,.8-.3.8-.9v-2.2c3.3-.5,5.6-2.5,5.6-6.1s-3-4.9-5-5.5h0Z"/>
      </g>
      <path class="st0" d="M261,264.2h0c5.6,5.6,11.2,11.2,16.8,16.8,5.6-5.6,11.2-11.1,16.8-16.7,0,0,0,0,.1,0,1.8,1.9,3.7,3.7,5.5,5.6v.2c-5.6,5.6-11.2,11.1-16.7,16.7,5.6,5.6,11.1,11.2,16.7,16.7h0c-1.9,2-3.8,3.9-5.7,5.8h-.1c-5.6-5.6-11.1-11.2-16.7-16.7-5.5,5.5-11.1,11-16.6,16.6,0,0-.1,0-.2.1-1.9-1.9-3.8-3.8-5.6-5.6,5.6-5.6,11.1-11.2,16.7-16.7-5.6-5.6-11.2-11.2-16.8-16.8h0c1.9-2,3.8-3.9,5.7-5.8Z"/>
    </g>
    <g>
      <g>
        <path class="st2" d="M412.7,256.7c16.6,0,30,13.4,30,30s-13.4,30-30,30-30-13.4-30-30,13.4-30,30-30h0Z"/>
        <path class="st1" d="M412.7,262.3c-13.5,0-24.4,10.9-24.4,24.4s10.9,24.4,24.4,24.4,24.4-10.9,24.4-24.4-10.9-24.4-24.4-24.4h0ZM412.7,307.3c-11.4,0-20.6-9.2-20.6-20.6s9.2-20.6,20.6-20.6,20.6,9.2,20.6,20.6-9.2,20.6-20.6,20.6ZM415.2,285.2c-1.1-.5-5.2-1.1-5.2-2.9s1.5-1.7,2.5-1.7,1.9.3,2.4.8c.3.3.5.6.6.9.1.4.2.8.8.8h2.7c.6,0,.8-.1.8-.8,0-3-2.4-4.8-5.1-5.3v-2.4c0-.5-.2-.9-.8-.9h-2.2c-.6,0-.8.3-.8.9v2.3c-2.9.6-5.4,2.4-5.4,5.7s2.6,4.9,5.4,5.9c2.4.8,4.9.8,4.9,2.5s-1.2,2-2.7,2-2.2-.3-2.7-1c-.4-.4-.5-.8-.5-1.2,0-.7-.4-.8-1-.8h-2.7c-.6,0-.8.2-.8.8,0,3.4,2.7,5.4,5.6,6.1v2.3c0,.5.2.9.8.9h2.2c.6,0,.8-.3.8-.9v-2.2c3.3-.5,5.6-2.5,5.6-6.1s-3-4.9-5-5.5h0Z"/>
      </g>
      <path class="st0" d="M395.9,264.2h0c5.6,5.6,11.2,11.2,16.8,16.8,5.6-5.6,11.2-11.1,16.8-16.7,0,0,0,0,.1,0,1.8,1.9,3.7,3.7,5.5,5.6v.2c-5.6,5.6-11.2,11.1-16.7,16.7,5.6,5.6,11.1,11.2,16.7,16.7h0c-1.9,2-3.8,3.9-5.7,5.8h-.1c-5.6-5.6-11.1-11.2-16.7-16.7-5.5,5.5-11.1,11-16.6,16.6,0,0-.1,0-.2.1-1.9-1.9-3.8-3.8-5.6-5.6,5.6-5.6,11.1-11.2,16.7-16.7-5.6-5.6-11.2-11.2-16.8-16.8h0c1.9-2,3.8-3.9,5.7-5.8Z"/>
    </g>
  </g>
</svg>