<?xml version="1.0" encoding="UTF-8"?>
<svg id="Layer_1" xmlns="http://www.w3.org/2000/svg" xmlns:xlink="http://www.w3.org/1999/xlink" version="1.1" viewBox="0 0 3000 3000">
  <!-- Generator: Adobe Illustrator 29.2.1, SVG Export Plug-In . SVG Version: 2.1.0 Build 116)  -->
  <defs>
    <style>
      .st0 {
        fill: #fff;
      }

      .st0, .st1 {
        fill-rule: evenodd;
      }

      .st1 {
        fill: gray;
      }
    </style>
  </defs>
  <path class="st1" d="M-.5-.5h3000v3000H-.5V-.5Z"/>
  <path class="st0" d="M681.5,583.5c74.8,1,146.1,17.2,214,48.5,78.1,36.9,148.4,84.9,211,144,118.3,113,205.1,246.8,260.5,401.5,11.7,35.2,23.1,70.6,34,106,2,6.2,5.2,11.7,9.5,16.5,5.1,2.1,10.1,1.7,15-1,17.3-14,34.7-28,52-42,58.7-44.4,125-66.6,199-66.5,46.2,1.5,91.9,7.3,137,17.5,109.6,23.6,213.2,62.6,311,117,78.2,44.5,145.4,102,201.5,172.5.7.8.5,1.5-.5,2-118.9,58.5-244.8,87.8-377.5,88-42-1.2-84-3.2-126-6-7.2,0-14.4.4-21.5,1.5-5.2,1.6-7.5,5.1-7,10.5.4,4.8,1.6,9.5,3.5,14,19.4,36.8,37.7,74.1,55,112,35.1,79.3,53.6,162.3,55.5,249,1.1,61.8-12.4,120.1-40.5,175-49.3,83.2-121.5,114.4-216.5,93.5-42.4-12.7-81.4-32.1-117-58-39.8-31.2-78.5-63.8-116-98-28.1-24.2-58.4-45.2-91-63-20-9.6-40.7-17.6-62-24-44.5-11.6-89.2-22.6-134-33-52.8-12.8-102.8-32.5-150-59-42.6-25.2-80.1-56.7-112.5-94.5-22-27.1-42.4-55.4-61-85-42.6-74.8-87.9-147.8-136-219-39.2-55-77.8-110.3-116-166-48.3-72.1-88.7-148.8-121-230-20.6-54.3-33.9-110.3-40-168-7-64.5,1.4-126.8,25-187,43.6-95.8,117.7-151,222.5-165.5,13.5-1.5,26.8-2.7,40-3.5Z"/>
</svg>