<?xml version="1.0" encoding="UTF-8"?>
<svg id="Layer_1" xmlns="http://www.w3.org/2000/svg" version="1.1" viewBox="0 0 3000 3000">
  <!-- Generator: Adobe Illustrator 29.2.1, SVG Export Plug-In . SVG Version: 2.1.0 Build 116)  -->
  <defs>
    <style>
      .st0 {
        fill: gray;
      }

      .st1 {
        fill: #fff;
      }
    </style>
  </defs>
  <path class="st0" d="M0,0h3000v3000H0V0Z"/>
  <path class="st1" d="M779,629c1.3,0,2.6.3,3.9.4,30.6,3.6,61.1,9.9,90.3,19.6,3.1,1,6.1,2,9.2,3,30.2,9.7,59.3,22.4,87.4,36.9,2.4,1.2,4.8,2.4,7.2,3.6,14.7,7.5,28.8,15.8,42.9,24.5,2.6,1.6,5.1,3.2,7.7,4.7,23.1,14.2,45.1,30.3,66.3,47.1,1,.8,2,1.5,3,2.3,2.4,1.9,4.7,3.8,7,5.7.8.7,1.7,1.3,2.5,2,11.2,9.1,22,18.5,32.6,28.3,2.2,2,4.5,4.1,6.8,6,11.1,9.7,21.7,20.1,32.2,30.5l1.5,1.5c5.1,5.1,10.1,10.2,14.8,15.7,2.9,3.4,6.1,6.6,9.1,9.9,5,5.2,9.8,10.5,14.5,16,.5.5.9,1.1,1.4,1.7,29.6,34.2,56.4,70.3,81.3,108,2.1,3.1,4.1,6.2,6.2,9.3,8.6,13,16.6,26.4,24.3,40,1.6,2.9,3.3,5.8,5,8.7,4.9,8.5,9.8,17.1,14.5,25.7.4.7.8,1.5,1.2,2.2,4.2,7.7,8.1,15.6,12,23.4.3.6.6,1.3,1,1.9,13.9,28,26.6,56.5,38.9,85.3,8.7,25.6,21.4,47.9,38.2,66.8,8.1,2.2,14.6,0,21.8-4,8.7-5,16.7-10.8,24.6-17,6.1-4.8,12.5-9.2,18.9-13.5,4.1-2.8,8.1-5.6,12.1-8.6,39.4-28.8,88.9-48.4,137.6-52.9,1.1,0,2.2-.2,3.3-.3,41.2-3.6,82.4,3.7,121.7,15.3.6.2,1.3.4,1.9.6,63.7,18.9,125.7,44.9,186.1,72.4.7.3,1.5.7,2.2,1,19.6,8.9,39.2,18,58.4,27.8,2.8,1.4,5.7,2.9,8.5,4.3,3.3,1.6,6.6,3.3,9.8,4.9s1.7.8,2.5,1.3c14.2,7.2,28,15,41.7,23.1,2.5,1.5,5.1,3,7.6,4.4,13.4,7.6,26.3,15.8,39.1,24.2.8.5,1.5,1,2.3,1.5,27.6,18,54.9,38.1,79.2,60.3,2.6,2.3,5.2,4.4,7.9,6.6,4.8,3.8,9.1,8,13.3,12.4,2.8,2.9,5.7,5.6,8.7,8.2,3.3,2.8,5.9,5.8,8.6,9.1l5,5c6.2,6.2,12.3,12.3,18,19,.9,1.1,1.8,2.1,2.7,3.1,2.6,3,5.2,6,7.7,9,1,1.2,2.1,2.4,3.1,3.6,1.5,1.7,2.9,3.4,4.4,5.1.8,1,1.7,2,2.6,3,3,3.6,5.8,7.4,8.6,11.1l-2.8,1.4c-3.5,1.8-6.9,3.6-10.4,5.3-1.5.8-3.1,1.6-4.6,2.4-2.3,1.2-4.6,2.4-6.9,3.5-.7.4-1.4.7-2.1,1.1-4.3,2.2-8.5,4.5-12.8,6.8-64.1,35-137.3,57.3-328.4,83.4h-2.4c-14.9.7-29.9,1.1-44.9,1.3-6.3,0-12.5.2-18.8.3h-3.7c-9.6.2-19.3.4-28.9.6h-3.6c-14.4.3-27.7,3.8-39.8,10.5-4.2,8.6-2.3,18,0,26.8.2.8.4,1.7.7,2.5,2.2,8,5.1,15.8,8.2,23.5,1,2.5,2,5,2.9,7.5,2.7,6.8,5.4,13.7,8.1,20.5,22.9,58,40.7,117.2,49.1,179.1.2,1.2.3,2.4.5,3.7,2.6,19.8,2.8,39.6,2.9,59.6v3.8c.4,73.8-18.5,149.4-70.4,203.9-.6.6-1.2,1.3-1.8,1.9-27.5,29.1-69.1,44.8-108.4,46.3-79.9,1.9-149.7-45.5-208.8-94.2-1.8-1.5-3.7-3-5.5-4.5-.9-.7-1.8-1.5-2.8-2.3-1.8-1.5-3.6-3-5.4-4.4-5-4.1-9.9-8.2-14.8-12.3-5.8-4.9-11.6-9.7-17.5-14.5-.6-.4-1.1-.9-1.7-1.4-24.4-19.8-49.8-38.3-78.3-51.6-.8-.4-1.5-.7-2.3-1.1-29.2-13.6-60.7-20.3-92.6-23.9-.7,0-1.5-.2-2.3-.3-23.6-2.6-47.3-3.9-71-5.4-24.1-1.5-48.2-3.2-72.3-5.9-.9,0-1.8-.2-2.7-.3-29.3-3.3-58.2-8-86.8-15.2-1.1-.3-2.2-.5-3.3-.8-61-15-119.6-42.5-167.7-83.2-1.1-.9-2.2-1.8-3.3-2.7-5.6-4.7-11.1-9.4-16.1-14.7-1.1-1.2-2.7-2.4-4.6-3.6v-2c-.6-.3-1.2-.5-1.9-.8-2.5-1.5-3.1-2.6-4.1-5.2h-2c-.9-.9-1.8-1.9-2.9-3.2-2.7-3.2-5.5-6.3-8.3-9.3-6.2-6.6-11.9-13.5-17.4-20.7-1.4-1.8-2.8-3.6-4.2-5.4-16.5-21.4-31-44.5-44-68.2-1.2-2.2-2.5-4.5-3.7-6.7-18.5-33.1-34.5-67.6-49.9-102.2-5.7-12.9-11.7-25.6-17.9-38.3-1.6-3.4-3.3-6.8-4.9-10.2l-1-2c-2.8-5.7-5.5-11.4-8.2-17.1-1.9-3.9-3.7-7.8-5.6-11.6l-.9-1.8c-8.8-18.5-17.9-36.8-27.4-54.9-1.8-3.4-3.5-6.8-5.3-10.2-5.9-11.4-11.8-22.7-18-33.9-3.8-6.8-7.4-13.8-11-20.7-4.6-8.8-9.3-17.6-14-26.3-4.1-7.5-8.1-15.1-12-22.7-3.7-7.1-7.5-14.1-11.4-21.1-3.4-6.2-6.6-12.4-9.7-18.8-2-4.1-4.1-8.2-6.2-12.3-11-21.7-21.8-43.4-31.6-65.7-1.9-4.3-3.8-8.5-5.8-12.7-9-19.7-17-39.7-24.7-59.9-.3-.7-.5-1.4-.8-2.1-21.5-55.9-37.6-114.4-45-173.9-.2-2-.5-3.9-.7-5.9-4.8-38.6-5.2-79.6.5-118.1.2-1.2.4-2.4.5-3.7,8.9-59.2,30.7-116.8,70.5-162.3.5-.5.9-1.1,1.4-1.6,3.1-3.5,6.3-7,9.6-10.4.5-.5,1-1.1,1.6-1.6,7.1-7.3,14.4-14.1,22.4-20.4.9-.8,1.9-1.6,2.9-2.4,9.2-7.3,19-13.6,29.1-19.6.7-.4,1.4-.8,2.1-1.3,60.5-36.2,135.7-45.7,204.9-37.7l.3.7h0Z"/>
</svg>