<?xml version="1.0" encoding="UTF-8"?>
<svg id="Layer_1" xmlns="http://www.w3.org/2000/svg" version="1.1" viewBox="0 0 3000 3000">
  <!-- Generator: Adobe Illustrator 29.2.1, SVG Export Plug-In . SVG Version: 2.1.0 Build 116)  -->
  <defs>
    <style>
      .st0 {
        fill: gray;
      }

      .st1 {
        fill: #fff;
      }
    </style>
  </defs>
  <path class="st0" d="M0,0h3000v3000H0V0Z"/>
  <path class="st1" d="M782.9,674.7h3.1c17.8,0,35.3.9,53,3.3.7,0,1.4.2,2.1.3,31.3,4.3,62.1,11.5,92,21.7,2.9,1,5.8,1.9,8.7,2.9,14,4.7,27.6,10.2,41.2,16.1.8.3,1.6.7,2.5,1.1,37.9,16.3,74.7,36.4,108.7,59.7,1.9,1.3,3.8,2.6,5.7,3.9,9.2,6.2,18.2,12.7,27.1,19.3,1,.8,2.1,1.5,3.1,2.3,11.2,8.4,22.2,17,32.8,26.1,2.8,2.4,5.7,4.8,8.6,7.1,5.1,4.1,9.9,8.5,14.7,13,2.2,2,4.3,3.9,6.6,5.9,11.8,10.3,23,21.3,34,32.4,2.2,2.2,4.4,4.4,6.5,6.5s2.8,2.8,4.2,4.2c.6.6,1.3,1.3,1.9,1.9,3.8,3.8,7.4,7.7,10.8,11.7,2.6,3,5.4,5.9,8.1,8.8,4.6,4.9,9.1,9.9,13.5,15,.9,1,1.8,2.1,2.7,3.1,5.5,6.4,10.9,12.8,16.1,19.5,2.9,3.7,5.9,7.4,8.9,11.1,7.8,9.5,15.1,19.3,22.3,29.3.6.8,1.1,1.6,1.7,2.4,3.3,4.5,6.5,9,9.8,13.6,1.4,2,2.8,3.9,4.2,5.9,5.2,7.3,10.3,14.7,15.2,22.2.5.8,1.1,1.6,1.6,2.5,20.2,30.7,38.8,62.2,57.1,94.1,10.4,18.4,21.4,36.5,32.9,54.2.5.7.9,1.3,1.4,2,2.1,2.9,4.2,5.6,6.8,8,1.5,1.5,2.2,2.9,2.2,4.2.6.2,1.1.5,1.7.8,1.5.8,3,1.9,4.5,3.2,6.5,4.8,13.9,6.1,21.8,5.1,19.7-4.4,36.9-19.2,53-30.5,62-43.4,134.1-76.7,211.4-63.4,54.8,10.1,101.6,39,147.3,69.7,13.8,9.3,27.8,18.2,41.8,27.2,6.2,3.9,12.3,7.9,18.4,11.9,8.7,5.7,17.5,11.3,26.5,16.6,6.5,3.8,12.9,7.8,19.2,11.8,8.5,5.4,17.1,10.7,25.7,15.9,9.8,6,19.6,12.1,29.3,18.3,2.6,1.7,5.3,3.4,8,5,10,6.3,19.9,12.7,29.7,19.3,1.7,1.2,3.4,2.3,5.2,3.4,16.6,10.9,32.9,22.3,48.7,34.3,1.9,1.5,3.9,2.9,5.9,4.4,8.9,6.6,17.7,13.5,26.3,20.6,1.6,1.3,3.1,2.6,4.7,3.9,13.6,11,26.9,22.4,39.2,34.8,1.7,1.9,3.3,3.1,4.8,3.8v2c.5.2,1.1.4,1.6.6,3.4,2,5.9,4.6,8.6,7.4.6.5,1.1,1.1,1.7,1.7,2.7,2.7,4.1,4.8,4.1,6.3,1,.3,2,.7,3,1,.9.9,1.9,2,2.9,3.2,3.2,3.8,6.5,7.4,9.9,11.1,4.6,4.9,8.9,9.9,13,15.1,2,2.4,4,4.7,6.1,7,3,3.4,6,6.8,9,10.3.7.9,1.5,1.8,2.3,2.7.8.9,1.4,3.1,1.7,6.5-1,.9-2.2,1.8-3.6,2.7-.8.5-1.5,1-2.3,1.4-.8.5-1.7,1-2.6,1.5-1.8,1.1-3.5,2.2-5.3,3.2-.9.5-1.8,1.1-2.7,1.6-2.8,1.7-5.6,3.5-8.4,5.2-11.2,7.1-22.7,13.7-34.2,20.3-.9.5-1.8,1-2.8,1.6-15.3,8.7-31.1,16.2-47.2,23.4-1.1.5-2.1.9-3.2,1.4-19.2,8.5-38.9,15.7-58.8,22.6-1.1.4-2.3.8-3.4,1.2-67.2,23-138.2,33.4-208.6,40.4-.7,0-1.3,0-2,.2-7.1.7-14.1,1.4-21.2,2-27.5,1.1-52.9,7.7-76.3,19.6-8.1,10.6-7.8,23.6-6.1,36.3.5,3,1.1,5.9,1.7,8.9.2,1.1.4,2.2.7,3.4,2.6,13,5.9,25.9,9.1,38.8,13.2,52.9,23.7,105.5,25.2,160.1v2.2c1.9,67.8-13.3,140.1-58.1,192.8-1,1.2-2,2.5-2.9,3.7-.7.7-1.4,1.5-2.1,2.3h-2v2h-2c-.3,1-.7,2-1,3-3.5,3.2-7.3,6.1-11,9-.9.8-1.9,1.5-2.8,2.3-14.9,11.7-31.5,19.5-49.7,24.5-.7.2-1.5.4-2.2.6-12.2,3.1-24.3,4-36.8,4h-2.1c-11.6,0-22.9-.8-34.3-3.3-.8-.2-1.6-.3-2.3-.5-43.1-9.9-81.5-32.1-116.7-58.5-.7-.5-1.5-1.1-2.2-1.6-10.5-7.9-20.7-16.1-30.8-24.4-1.8-1.5-3.7-3-5.5-4.5-.9-.7-1.7-1.4-2.6-2.1-5.6-4.6-11.2-9.2-16.9-13.7-1.3-1.1-2.6-2.1-3.9-3.2-15.3-12.5-31.1-24.4-48.1-34.5-.7-.4-1.4-.8-2.1-1.3-30.6-18.2-64-25.9-99.4-26h-6.5c-29.2-.2-58.5,3.7-87.5,6.8-8.4.9-16.8,1.8-25.1,2.7-.8,0-1.6.2-2.5.3-12.9,1.3-25.8,2.6-38.7,3.6-.7,0-1.4,0-2.1.2-20.3,1.5-40.6,2.1-60.9,2.1h-3.2c-69.9,0-140.5-10.6-204.4-40.1-2.3-1-4.5-2.1-6.8-3.1-16.6-7.5-32.8-16.5-47.6-27.1-1.2-.8-2.3-1.6-3.5-2.5-6.6-4.7-13.2-9.5-19.5-14.5-.8-.7-1.7-1.3-2.6-2-5.7-4.5-11.1-9.3-16.4-14.2-2.1-1.9-4.1-3.8-6.4-5.4-.5-.4-1.1-.9-1.7-1.3v-2h-2c-.9-.9-1.9-2.1-3-3.4-2.8-3.3-5.8-6.4-8.9-9.4-5.1-5.1-9.6-10.5-14.1-16.2-.9-1.1-1.9-2.3-2.8-3.4-36.2-44.3-61.2-96.3-81.1-149.6-1-2.7-2-5.3-3-8-17.2-45.8-30.9-93.2-45.2-139.9-5.7-18.6-11.7-37.1-18-55.5-.9-2.7-1.9-5.5-2.8-8.2-8.8-26-17.7-51.9-26.9-77.7-.3-1-.7-1.9-1.1-3-.3-1-.7-2-1-2.9-4.1-11.4-8-22.8-12-34.2-3.2-9.3-6.5-18.6-9.9-27.9-30.2-82.9-54.2-169.9-66.4-315.5v-2.7c.2-82.7,20-168.2,73.2-233.4.4-.5.8-1,1.3-1.6,12.2-15.1,26.2-29.7,41.7-41.4,1-.8,1.9-1.6,2.9-2.4,39-31.1,86.4-49.1,135.2-57.4,1.2-.2,2.3-.4,3.5-.6,18.7-3,37.4-4,56.3-4h.2Z"/>
</svg>