<?xml version="1.0" encoding="UTF-8"?>
<svg id="Layer_1" xmlns="http://www.w3.org/2000/svg" xmlns:xlink="http://www.w3.org/1999/xlink" version="1.1" viewBox="0 0 3000 3000">
  <!-- Generator: Adobe Illustrator 29.2.1, SVG Export Plug-In . SVG Version: 2.1.0 Build 116)  -->
  <defs>
    <style>
      .st0 {
        fill: #fff;
      }

      .st0, .st1 {
        fill-rule: evenodd;
      }

      .st1 {
        fill: gray;
      }
    </style>
  </defs>
  <path class="st1" d="M-.5-.5h3000v3000H-.5V-.5Z"/>
  <path class="st0" d="M669.5,578.5c73.9-.5,144.6,14.4,212,44.5,82.6,37.6,156.6,87.6,222,150,126.8,122.2,216.9,267.8,270.5,436.5,7.5,24.9,14.8,49.9,22,75,2.4,8,6.2,15.1,11.5,21.5,6.3,1.8,12,.5,17-4,16.3-13.7,32.7-27.3,49-41,65.3-49.1,138.9-71.4,221-67,68.7,4.4,136,16.4,202,36,99.2,27.6,191.9,69.3,278,125,58.5,39.5,109.7,87,153.5,142.5.7.8.5,1.5-.5,2-133,64.2-273.3,92.4-421,84.5-30.7-1.8-61.4-4-92-6.5-5.4.6-10.7,1.4-16,2.5-4,1.7-6,4.7-6,9,.7,5.4,2.2,10.6,4.5,15.5,25.1,45.1,47.7,91.5,68,139,26.4,65.5,41.7,133.5,46,204,3.5,57.4-4.5,113-24,167-16.4,42.3-42.5,77.2-78.5,104.5-45.5,29.6-94.8,38.2-148,26-30.7-7.5-59.7-19.2-87-35-31.3-19.4-61-41-89-65-31.1-28.4-62.7-56.1-95-83-40.6-32.8-86.3-56.5-137-71-37.8-10.6-75.8-20.6-114-30-55-14.2-107-35.5-156-64-60.1-38.1-109.6-86.9-148.5-146.5-34.8-55-69.2-110.3-103-166-19.3-28.9-38.9-57.6-59-86-51.3-68-100.3-137.7-147-209-40.2-63-73.5-129.7-100-200-20.1-55-32.5-111.6-37-170-4.8-62.4,4.9-122.4,29-180,44.3-90.9,116.8-143.4,217.5-157.5,11.8-1.4,23.5-2.6,35-3.5Z"/>
</svg>