<?xml version="1.0" encoding="UTF-8"?>
<svg id="Layer_1" xmlns="http://www.w3.org/2000/svg" version="1.1" viewBox="0 0 3000 3000">
  <!-- Generator: Adobe Illustrator 29.2.1, SVG Export Plug-In . SVG Version: 2.1.0 Build 116)  -->
  <defs>
    <style>
      .st0 {
        fill: gray;
      }

      .st1 {
        fill: #fff;
      }
    </style>
  </defs>
  <path class="st0" d="M0,0h3000v3000H0V0Z"/>
  <path class="st1" d="M833,682c1.1,0,2.3.3,3.5.4,52,6,103.7,20.2,151.5,41.6,1,.5,2,.9,3.1,1.4,24.6,11,48.6,23,71.9,36.6.9.5,1.8,1,2.7,1.6,10.4,6.1,20.7,12.5,30.7,19.3,2.5,1.7,5,3.3,7.5,5,18.7,12.5,36.6,26,54.1,40.1.7.5,1.3,1.1,2,1.6,13.4,10.7,26.4,21.9,39,33.6,2.8,2.6,5.6,5.1,8.4,7.6,3.4,3.1,6.7,6.2,9.9,9.5,1.8,1.7,3.6,3.3,5.4,4.9,3.5,3.1,6.9,6.3,10.2,9.6l1.5,1.5c1.2,1.2,2.4,2.5,3.5,3.7v2c1,.3,2,.7,3,1,1,1,2,2.1,3.1,3.4,2.8,3.4,5.8,6.5,8.9,9.6s6.9,7.1,10.2,10.9c2.2,2.5,4.4,5,6.7,7.4,4.1,4.4,7.9,9,11.7,13.7,2.9,3.5,5.9,6.9,8.8,10.3,5.7,6.5,11,13.2,16.3,20,1.3,1.7,2.6,3.4,4,5,7.1,8.9,13.9,18.1,20.6,27.3,1.6,2.3,3.3,4.5,5,6.8,8.3,11.3,16.1,23,23.9,34.7,2,3,4,6.1,6.1,9.1,3.2,4.8,6.3,9.6,9.4,14.4.5.8,1,1.6,1.5,2.4,9.5,15.1,18.9,30.2,27.8,45.7,17.5,36,40.5,66.3,69.2,90.8,16.9,3.2,33.4-8.3,46.8-17.3,5.9-4.1,11.8-8.2,17.6-12.3,16.3-11.4,33.3-22,50.6-31.8.7-.4,1.3-.8,2-1.2,27.4-15.5,58-26.3,89-31.8.7,0,1.4-.2,2.1-.4,67.5-11.7,130.9,15.4,185.9,52.4,1,.7,2.1,1.4,3.1,2.1,14.2,9.6,28.3,19.3,42.3,29.1,13.4,9.4,26.9,18.8,40.5,27.8,1.9,1.3,3.8,2.5,5.7,3.8,7.9,5.3,15.9,10.4,23.8,15.6,2.3,1.5,4.6,3,6.9,4.5,8.1,5.3,16.3,10.5,24.5,15.7,5.9,3.7,11.7,7.4,17.5,11.2,3.9,2.5,7.7,5,11.6,7.4,13.8,8.7,27.5,17.8,41.1,26.9,2.4,1.6,4.8,3.2,7.3,4.8,22.5,14.8,44.4,30.6,65.7,47.1.6.5,1.2.9,1.8,1.4,18.4,14.2,36.4,29,53.3,45,.6.6,1.2,1.1,1.8,1.7.5.5,1,1,1.6,1.5,1.1,1,2.6,2.1,4.5,3.3v2c.6.2,1.1.5,1.7.7,2.6,1.5,4.5,3.2,6.6,5.3s1.6,1.6,2.4,2.4l2.5,2.5,2.5,2.5c.8.8,1.6,1.6,2.4,2.4l2.2,2.2c1.1,1.2,1.6,2.5,1.6,3.8h2c.9.9,1.8,1.9,2.9,3.2,3.2,3.8,6.6,7.5,10,11.1,4.5,4.9,8.8,9.9,13,15.1,2.2,2.6,4.4,5.2,6.7,7.7,3.1,3.4,6.1,6.8,9,10.3.7.8,1.3,1.6,2,2.4.9,1.5,1.4,3.5,1.4,6.2-.9.9-1.9,1.7-3.2,2.5-.7.4-1.4.9-2.1,1.3-.7.5-1.5.9-2.3,1.4-1.6,1-3.1,2-4.7,2.9-.8.5-1.6,1-2.4,1.5-2.6,1.6-5.2,3.3-7.8,5-13.9,9-28.1,17.3-42.5,25.4-.9.5-1.7,1-2.6,1.5-34,19.2-70.4,34-107.4,46.5-1.2.4-2.3.8-3.6,1.2-38.6,12.9-78.4,22-118.4,28.8-.8,0-1.6.3-2.4.4-31.7,5.3-63.7,8.8-95.7,12.3-30.7,1.5-59.2,8.8-85.5,21.9-7.8,9.9-7.3,22.5-6.4,34.4.4,3.5,1,7,1.7,10.6.2,1,.4,2,.5,3,1.9,10.6,4.3,21.1,6.8,31.6,1.3,5.8,2.7,11.6,4,17.4.3,1.2.5,2.3.8,3.5,8.4,37.1,15.1,74,18.2,112,0,.9,0,1.7.2,2.6,4.6,58.2-1.4,120.5-27.2,173.4-.4.8-.7,1.5-1.1,2.3-5.9,12-12.8,23-20.9,33.7-.7,1-1.5,2-2.3,3-25.1,31.9-59.6,50.7-99.6,56.4-14.4,1.6-28.9.8-43.2-1.4-.7-.1-1.5-.2-2.3-.3-37.6-5.9-72.5-23.5-103.7-44.7-.6-.4-1.3-.8-1.9-1.3-8.7-5.8-17.1-11.9-25.3-18.3-2-1.5-3.9-3-5.9-4.5-7.8-5.9-15.5-11.9-22.9-18.3-4.6-3.9-9.3-7.7-14-11.5-1.2-1-2.4-2-3.6-3-57.5-47.1-110.6-72.4-186.6-65.9-.8,0-1.5,0-2.3.2-21.9,1.9-43.6,4.7-65.3,7.4-22.5,2.8-44.9,5.5-67.5,7.5-.9,0-1.9.2-2.8.2-16.8,1.5-33.5,2.6-50.4,2.7h-20.1c-23.2,0-46.3-.3-69.4-3.3-1.4-.2-2.9-.4-4.3-.5-49.6-6.3-99.3-19.1-143.7-42.4-2.2-1.1-4.3-2.2-6.5-3.3-21.6-11-41.5-24.5-60.2-39.9-1.7-1.4-3.3-2.7-5-4-.9-.7-1.9-1.4-2.8-2.2-.8-.6-1.7-1.3-2.5-2-.6-.5-1.2-1.1-1.8-1.7v-2c-.5-.2-1.1-.4-1.7-.7-3-1.7-5.2-3.9-7.7-6.4l-1.5-1.5c-1.1-1.1-2.1-2.1-3.2-3.2-1.6-1.6-3.2-3.2-4.8-4.8-6.5-6.5-12.4-13.2-18.1-20.4-.9-1-1.7-2.1-2.6-3.1-17.5-20.3-31.8-43.3-44.4-66.9-.5-.9-1-1.9-1.5-2.8-35.7-66.4-55.7-140-77-211.9-6.6-22.3-13.2-44.6-20.2-66.7-.3-.9-.6-1.9-.9-2.8-2.2-6.9-4.3-13.8-6.5-20.7-.3-1-.6-2-.9-3-7.1-22.5-14.3-45-22-67.3-6-17.5-11.8-35.1-17.4-52.6-2-6.2-4-12.4-6.1-18.6-27.3-82.3-49.7-166.1-58.5-252.5,0-.7-.1-1.4-.2-2.1-3.4-33.5-3.6-68.5.2-101.9.1-1.2.3-2.3.4-3.5,3.2-28.5,8.8-56.2,17.6-83.5.3-.9.6-1.9.9-2.8,5.8-17.8,13.4-34.6,22.1-51.2.4-.7.7-1.4,1.1-2.2,6.1-11.6,13-22.3,20.9-32.8.4-.6.9-1.2,1.3-1.8,13.8-18.6,29.3-36,47.7-50.2,1.1-.9,2.2-1.8,3.3-2.6,44.4-35.8,99.5-55.5,155.7-62.4,1,0,1.9-.2,2.9-.4,27.6-3.2,56.5-2.8,84.1.4h0Z"/>
</svg>