<?xml version="1.0" encoding="UTF-8"?>
<svg id="Layer_1" xmlns="http://www.w3.org/2000/svg" xmlns:xlink="http://www.w3.org/1999/xlink" version="1.1" viewBox="0 0 3000 3000">
  <!-- Generator: Adobe Illustrator 29.2.1, SVG Export Plug-In . SVG Version: 2.1.0 Build 116)  -->
  <defs>
    <style>
      .st0 {
        fill: #fff;
      }

      .st0, .st1 {
        fill-rule: evenodd;
      }

      .st1 {
        fill: gray;
      }
    </style>
  </defs>
  <path class="st1" d="M-.5-.5h3000v3000H-.5V-.5Z"/>
  <path class="st0" d="M579.5,498.5c67.4-1.5,132.4,10.4,195,35.5,70.2,28.6,134.6,66.6,193,114,162.2,135.5,274.7,304.7,337.5,507.5,23.2,76.6,34.9,155,35,235l33-42c48.6-53.1,107.8-89.6,177.5-109.5,57.9-16.1,116.9-23.9,177-23.5,156.8,1.3,303.4,40.2,440,116.5,74.4,42.9,138,98.4,191,166.5-159.4,61.9-323.4,78.4-492,49.5-24.8-5-49.5-10.7-74-17-4.3-1.1-8.6-1.6-13-1.5-.4,3.1.5,5.7,2.5,8,89.2,100.6,149.2,216.9,180,349,15.7,68.7,19.4,138.1,11,208-7.5,63.3-30.2,120.3-68,171-60.2,70.2-135.3,94-225.5,71.5-49.7-14.7-94.7-38-135-70-26.1-20.7-50.9-42.9-74.5-66.5-35.7-38-71-76.3-106-115-37.6-40.3-78.8-76.1-123.5-107.5-44.6-29.2-88.6-59.2-132-90-47.1-36.1-89.2-77.2-126.5-123.5-37.4-49.8-76.8-98.1-118-145-21.5-22.8-43.7-45-66.5-66.5-54-49-107.6-98.3-161-148-65.4-63.4-124.9-131.6-178.5-204.5-49.5-69.3-88.8-144.3-118-225-19.6-56.9-30.1-115.4-31.5-175.5-.3-52.9,10.6-103.4,32.5-151.5,43.9-84.1,113.1-132.9,207.5-146.5,10.5-1.4,20.8-2.6,31-3.5Z"/>
</svg>