<?xml version="1.0" encoding="UTF-8"?>
<svg id="Layer_1" xmlns="http://www.w3.org/2000/svg" xmlns:xlink="http://www.w3.org/1999/xlink" version="1.1" viewBox="0 0 3000 3000">
  <!-- Generator: Adobe Illustrator 29.2.1, SVG Export Plug-In . SVG Version: 2.1.0 Build 116)  -->
  <defs>
    <style>
      .st0 {
        fill: #fff;
      }

      .st0, .st1 {
        fill-rule: evenodd;
      }

      .st1 {
        fill: gray;
      }
    </style>
  </defs>
  <path class="st1" d="M-.5-.5h3000v3000H-.5V-.5Z"/>
  <path class="st0" d="M568.5,493.5c64.7-2.3,127.3,7.9,188,30.5,80.1,31.2,152.7,74.2,218,129,110.5,94.8,198,207.3,262.5,337.5,39.5,79.1,67.8,162.1,85,249,9.5,51.6,14,103.6,13.5,156,48.9-74.1,115.9-124.6,201-151.5,63.4-19.3,128.2-28.8,194.5-28.5,149.7,1.6,290.5,37.5,422.5,107.5,80.7,44.4,149.7,102.9,207,175.5-165.4,63.5-335.1,78.3-509,44.5-18.8-4.2-37.5-8.8-56-14-5.6-1.6-11.2-2.5-17-2.5.7,4.1,2.6,7.8,5.5,11,105.1,117.6,169.4,254.9,193,412,9.4,68,6.1,135.3-10,202-14.2,56.3-41.7,104.8-82.5,145.5-55.6,48.2-119.6,64.6-192,49-48.2-12.1-92.2-32.8-132-62-34.9-26.6-67.8-55.7-98.5-87.5-35-38-69.7-76.3-104-115-34.7-37.1-72.2-70.9-112.5-101.5-42.9-29.9-85.6-60.3-128-91-46.1-36.1-87.6-76.9-124.5-122.5-26.6-34.3-53.6-68.3-81-102-33.4-39.1-69.2-75.9-107.5-110.5-57.9-50.2-114.9-101.5-171-154-66.8-63.8-127.3-132.6-181.5-206.5-45.3-63.9-82.3-132.6-111-206-26.6-68.9-39-140.2-37-214,2-56.8,17.7-109.5,47-158,41.6-61.8,99.1-100.3,172.5-115.5,15.1-2.8,30.1-5,45-6.5Z"/>
</svg>