<?xml version="1.0" encoding="UTF-8"?>
<svg id="Layer_1" xmlns="http://www.w3.org/2000/svg" xmlns:xlink="http://www.w3.org/1999/xlink" version="1.1" viewBox="0 0 3000 3000">
  <!-- Generator: Adobe Illustrator 29.2.1, SVG Export Plug-In . SVG Version: 2.1.0 Build 116)  -->
  <defs>
    <style>
      .st0 {
        fill: #fff;
      }

      .st0, .st1 {
        fill-rule: evenodd;
      }

      .st1 {
        fill: gray;
      }
    </style>
  </defs>
  <path class="st1" d="M-.5-.5h3000v3000H-.5V-.5Z"/>
  <path class="st0" d="M684.5,594.5c59.4-1.1,117.1,8.4,173,28.5,78.5,29.2,149.8,70.2,214,123,118.3,99.5,209.5,219.7,273.5,360.5,8.3,18.9,16.3,37.9,24,57,12.7,36,25.3,72,38,108,2.6,7.4,6.8,13.5,12.5,18.5,5.6,2.2,10.9,1.5,16-2,16.9-12.6,33.6-25.6,50-39,74-54.8,156.6-74.8,248-60,129.5,21.9,252.2,63.6,368,125,85.9,46.2,159.4,107.4,220.5,183.5.7.8.5,1.5-.5,2-122.1,62.3-251.8,92.6-389,91-34.3-.3-68.7-1.3-103-3-9.1-.3-18.1.5-27,2.5-5.1,1.9-7.8,5.5-8,11,.7,6,2.2,11.9,4.5,17.5,16.8,34,32.8,68.3,48,103,26.8,63.1,43.5,128.7,50,197,5,52.5.7,104.2-13,155-11.9,42.9-33.4,80.1-64.5,111.5-47,41.3-101.4,55.3-163,42-43.6-11.1-83.6-29.8-120-56-20.4-15.2-40.4-30.9-60-47-25.4-22.4-51-44.4-77-66-39.1-31.2-83.1-52.9-132-65-45.8-10.1-91.8-19.4-138-28-54.6-11-106.6-29.3-156-55-61.3-34.9-112.1-81.4-152.5-139.5-11.7-17.4-23.1-35.1-34-53-30.2-54.8-61.2-109.2-93-163-45.4-70.5-91.1-140.8-137-211-38-60-71.3-122.6-100-188-26.3-61.6-43.6-125.6-52-192-7.3-59.7-2.3-118.4,15-176,39.1-108.8,116-172,230.5-189.5,11.5-1.4,22.8-2.5,34-3.5Z"/>
</svg>