<?xml version="1.0" encoding="UTF-8"?>
<svg id="Layer_1" xmlns="http://www.w3.org/2000/svg" version="1.1" viewBox="0 0 3000 3000">
  <!-- Generator: Adobe Illustrator 29.2.1, SVG Export Plug-In . SVG Version: 2.1.0 Build 116)  -->
  <defs>
    <style>
      .st0 {
        fill: gray;
      }

      .st1 {
        fill: #fff;
      }
    </style>
  </defs>
  <path class="st0" d="M0,0h3000v3000H0V0Z"/>
  <path class="st1" d="M801.6,669.8h2.1c60.2,3.8,119.1,19.9,174.2,44.1,1,.5,2.1.9,3.1,1.4,50,22.1,97.2,49.9,140.9,82.6.6.4,1.1.9,1.7,1.3,8.7,6.5,17.1,13.3,25.4,20.2,1.6,1.3,3.2,2.6,4.8,3.9,10.7,8.7,21.2,17.7,31.4,27.1,2.3,2.1,4.6,4.1,6.9,6.1,3.3,2.9,6.4,6,9.5,9.1s3.9,3.6,5.9,5.3c4.9,4.2,9.4,8.7,13.9,13.3.8.8,1.6,1.6,2.5,2.4,4.3,4.3,8.4,8.7,12.4,13.3,2.2,2.6,4.6,4.9,7.1,7.3,3.8,3.7,7.3,7.5,10.8,11.5,2,2.3,4,4.6,6.1,6.8,3.9,4.3,7.5,8.7,11.2,13.2,2.7,3.3,5.5,6.5,8.3,9.8,5.9,6.9,11.6,14,17.1,21.2.8,1,1.6,2,2.4,3.1,2.6,3.3,5.1,6.6,7.6,9.9.6.7,1.1,1.4,1.7,2.2,13.8,18.1,26.8,36.8,39.3,55.8.5.8,1.1,1.7,1.7,2.5,6.6,10.1,13.1,20.2,19.3,30.5.8,1.3,1.6,2.6,2.4,3.9,12.5,20.2,24.2,40.9,35.7,61.7,14.9,30.8,34,58.3,57.1,82.4,13.3,3.5,24.3-.7,35.8-7.2,9.1-5.5,17.7-11.6,26.4-17.7,64.3-44.9,137.2-80.8,217.8-67.1,23,4.2,44.5,11.5,65.8,21,.9.4,1.8.8,2.7,1.2,14.2,6.4,27.8,13.9,41.3,21.8.9.5,1.8,1.1,2.8,1.6,12.5,7.3,24.8,14.8,37,22.5,7.5,4.7,15.1,9.4,22.7,14.1,4.9,3,9.8,6,14.7,9.1,13.9,8.7,27.9,17,42,25.3,6.9,4.1,13.9,8.3,20.8,12.4,1.7,1,3.4,2.1,5.1,3.1,2.4,1.4,4.7,2.8,7.1,4.3,4.2,2.5,8.5,5.1,12.7,7.6,12.7,7.6,25.4,15.3,38.1,23.1,1,.6,1.9,1.2,2.9,1.8,15.3,9.4,30.3,19.2,45.2,29.3,3.1,2.1,6.2,4.1,9.2,6.1,20.2,13.3,39.7,27.7,58.7,42.8.9.7,1.7,1.4,2.6,2.1,6.3,5,12.5,10.2,18.7,15.5,1.7,1.5,3.5,2.9,5.2,4.4,6.5,5.5,12.9,11.1,19.1,17,2.9,2.7,5.7,5.2,8.7,7.7.9.8,1.8,1.6,2.7,2.4v2c.5.2,1.1.4,1.6.6,3.4,2,5.9,4.6,8.6,7.4.6.5,1.1,1.1,1.7,1.7,2.7,2.7,4.1,4.8,4.1,6.3h2c.9.9,1.8,1.9,2.8,3.1,3.4,4,7,7.9,10.6,11.7,4.7,5,9.2,10.2,13.5,15.6,2.1,2.6,4.3,5.1,6.6,7.6,3.3,3.6,6.5,7.2,9.6,10.9.8.9,1.5,1.8,2.3,2.7.5.8,1,1.5,1.6,2.3-1.1,3.4-1.5,3.6-4.5,5.3-.7.5-1.5.9-2.2,1.3-.8.5-1.6.9-2.4,1.4-1.7,1-3.3,2-5,3-.8.5-1.7,1-2.5,1.5-2.8,1.7-5.6,3.4-8.3,5.2-16.7,10.6-34,20-51.5,29-2.2,1.1-4.4,2.3-6.6,3.4-40.4,20.8-84.1,36.3-127.9,47.9-1.2.3-2.4.7-3.7,1-57.3,15.2-115.8,23-174.7,28.3-2.2.2-4.3.4-6.5.6-6.4.6-12.9,1.2-19.3,1.7-25.1,1.1-48.7,6.9-70.8,17.4-7.6,10.5-7.3,23.3-5.6,35.7.5,2.8,1,5.7,1.6,8.5.2,1.1.4,2.1.7,3.2,2.7,12.8,6.1,25.5,9.5,38.1,1.9,7.2,3.8,14.3,5.7,21.5.2.7.4,1.4.6,2.1,4.4,16.8,8.3,33.7,11.6,50.8.2,1.2.5,2.5.7,3.8,5.3,27.7,9.4,56.3,9.5,84.5v17.9c0,18.5-.5,36.5-3.3,54.8-.2,1.2-.3,2.3-.5,3.5-8.5,56-31.1,115.2-78.1,150.2-34.6,25-75.1,34-117.4,27.8-57.6-9.6-108-43-152.5-79.2-2.2-1.8-4.3-3.5-6.5-5.2-8.9-7.1-17.8-14.4-26.6-21.6-1.8-1.5-3.6-3-5.4-4.4-.5-.5-1.1-.9-1.6-1.3-10.2-8.3-20.6-16.1-31.4-23.7-.6-.5-1.3-.9-2-1.4-61.8-43.1-129.4-40.3-201.3-34-9.3.8-18.6,1.6-28,2.4-1,0-2,.2-3,.3-73,6.3-145.7,7.7-217.7-7.4-1.1-.2-2.3-.5-3.4-.7-50.6-10.6-100.1-30.6-142.6-60.3-.6-.4-1.1-.8-1.7-1.2-13.3-9.2-25.8-19.3-37.7-30.4-2.2-2.1-4.5-4.1-6.8-6-4.5-3.9-8.9-7.9-12.8-12.4v-2h-2c-.9-.9-1.8-1.9-2.9-3.2-.6-.7-1.3-1.5-1.9-2.2-.7-.8-1.4-1.7-2.2-2.6s-1.6-1.8-2.4-2.7c-29.2-33.5-52.9-72.9-70.5-113.7-1.2-2.6-2.4-5.2-3.6-7.8-3.9-8.2-7.4-16.5-10.7-25-.3-.7-.5-1.4-.8-2.1-4.3-11.1-8.5-22.3-12.6-33.5-.2-.7-.5-1.3-.7-2-6-16.4-11.3-33-16.8-49.6-15.9-48.2-32.2-96.2-48.9-144.1-1.4-3.7-2.7-7.5-4.1-11.2-6.4-17.7-12.8-35.3-19.5-52.9-11.7-30.6-22.8-61.4-33.8-92.2-1-2.9-2.1-5.8-3.1-8.7-21.9-60.7-40.1-123-51.4-186.6-.1-.7-.2-1.3-.4-2-3-16.9-5.2-33.7-6.9-50.8,0-.8-.2-1.6-.3-2.5-1.8-18.2-2.7-36.3-2.7-54.5v-2.5c.2-86.3,22.4-176.5,82.1-241.4,1.9-2.1,3.8-4.3,5.7-6.4,5.7-6.5,11.8-12.3,18.4-17.8.5-.4,1-.9,1.6-1.4,63.3-53.9,147.1-74.9,229-69.9v.3h0Z"/>
</svg>