<?xml version="1.0" encoding="UTF-8"?>
<svg id="Layer_1" xmlns="http://www.w3.org/2000/svg" version="1.1" viewBox="0 0 3000 3000">
  <!-- Generator: Adobe Illustrator 29.2.1, SVG Export Plug-In . SVG Version: 2.1.0 Build 116)  -->
  <defs>
    <style>
      .st0 {
        fill: gray;
      }

      .st1 {
        fill: #fff;
      }
    </style>
  </defs>
  <path class="st0" d="M0,0h3000v3000H0V0Z"/>
  <path class="st1" d="M771.7,663.8h2.1c24,0,47.5,2.3,71.2,6.2,1.1.2,2.1.3,3.2.5,87.6,14.8,172.8,54.1,244.8,105.5,1.3.9,2.6,1.8,4,2.8,12.9,9,25.3,18.4,37.5,28.2,1.9,1.6,3.9,3.1,5.9,4.6,6.3,4.9,12.4,9.8,18.2,15.2,2.5,2.2,5,4.3,7.6,6.3,5.3,4.3,10.3,9,15.3,13.7,3,2.8,6,5.6,9.1,8.3,4.8,4.2,9.3,8.7,13.9,13.2.9.9,1.8,1.8,2.7,2.7,2.3,2.3,4.6,4.7,7,7,1.4,1.4,2.8,2.8,4.2,4.2,2.7,2.7,5.5,5.5,8.2,8.2.8.8,1.7,1.7,2.5,2.5,4.3,4.3,8.4,8.6,12.3,13.2,2.5,2.9,5.2,5.7,7.9,8.6,4.7,5,9.2,10.2,13.5,15.6,2.2,2.7,4.4,5.2,6.7,7.7,3.3,3.6,6.3,7.3,9.3,11.2,2.8,3.5,5.6,7,8.4,10.5,4.6,5.6,9,11.3,13.3,17.1,1.7,2.2,3.3,4.5,5,6.7,40,52.7,73.9,110.2,104.8,168.6,13.3,29,31.1,53.9,53.5,74.8,9.6,2.9,18.7-.4,27.4-4.7,11-6.1,21.1-13.4,31.3-20.7,64.8-45.9,137.9-80.4,219.3-66.7,40.8,7.3,78.2,24.8,114,45,1.1.6,2.1,1.2,3.3,1.8,14,7.9,27.9,16,41.7,24.2,10.9,6.5,21.8,12.8,32.8,19.1,5.4,3.1,10.8,6.2,16.2,9.4,2.2,1.3,4.3,2.5,6.5,3.8,4.3,2.5,8.7,5,13,7.5,1.1.6,2.1,1.2,3.3,1.9,2.2,1.2,4.3,2.5,6.5,3.7,5.4,3.1,10.9,6.3,16.3,9.4,47.9,27.6,83.4,49,106.4,64.2.6.4,1.2.8,1.9,1.2,4.4,2.9,8.8,5.8,13.1,8.8.7.5,1.5,1,2.2,1.5,17.7,12,34.9,24.4,51.8,37.5.6.5,1.2,1,1.9,1.5,8,6.2,15.8,12.5,23.5,19.1,1.7,1.5,3.4,2.9,5.1,4.4,6.5,5.5,12.9,11.1,19.1,17,2.5,2.4,5.1,4.6,7.8,6.8.9.8,1.7,1.5,2.6,2.3v2c.6.3,1.2.5,1.8.8,2.3,1.2,3.8,2.5,5.6,4.4.6.6,1.3,1.3,1.9,1.9l2,2c.7.7,1.3,1.4,2,2.1,3.9,3.9,7.6,7.9,11.2,12.1,1.5,1.8,3.2,3.4,4.8,5,3.8,3.7,7,7.8,10.3,11.9,2.2,2.7,4.5,5.3,6.8,7.8,4,4.4,7.7,8.9,11.4,13.4,1.8,2.3,3.8,4.4,5.7,6.6.8,1,1.6,2,2.4,3-1.2,3.5-1.7,3.7-4.8,5.5-.8.5-1.6.9-2.4,1.4-.9.5-1.7,1-2.6,1.5-1.8,1.1-3.7,2.2-5.5,3.2-.9.6-1.9,1.1-2.9,1.7-2.6,1.5-5.2,3.1-7.8,4.7-11.2,6.8-22.6,13.3-34.2,19.5-1.9,1-3.7,2-5.5,3-70.9,38.3-150.8,61.4-329.2,84.4-5.2.4-10.4.9-15.6,1.3-3.7.3-7.5.6-11.2.9-10.7.9-21.3,1.9-32,3.3-.8,0-1.6.2-2.5.3-11.6,1.7-25.8,4.5-33.4,14.2-4,6.2-4.6,11.2-4.7,18.4v2.5c-.2,16,5,32,9.3,47.3.8,2.8,1.6,5.7,2.4,8.5,2,7.4,4.1,14.9,6.2,22.3,10.7,38.3,19.3,76.8,23.8,116.3,0,.7.2,1.5.3,2.2,2,17.5,2.7,34.8,2.7,52.4v3.2c0,69.4-16.1,141.3-65.3,192.8-.8.9-1.6,1.7-2.5,2.6-25.9,26.9-63,42.4-100.2,43.6-64.3,1-121.8-31.1-171.3-69.2-.7-.6-1.4-1.1-2.2-1.7-10.8-8.3-21.3-16.7-31.8-25.3-1-.8-2-1.6-3.1-2.5-3.5-2.9-7-5.7-10.5-8.6-2.8-2.3-5.6-4.6-8.4-6.9-.5-.4-1.1-.9-1.6-1.3-28.4-23.2-58.8-45-94.4-55.7-.8-.2-1.6-.5-2.4-.7-12.4-3.7-24.8-5.9-37.6-7.3-.9,0-1.7-.2-2.6-.3-9.9-1-19.8-1-29.8-1h-3c-18.2,0-36.3.9-54.4,2.1h-2c-11.9.8-23.7,1.6-35.5,2.5-27.1,2.1-54.2,2.8-81.4,2.9h-7.6c-70.6.3-144.1-9.2-208.7-39.4-1-.4-1.9-.9-2.9-1.4-13-6-25.8-12.2-38.1-19.6-.7-.4-1.5-.9-2.2-1.3-12.5-7.5-24.2-15.9-35.8-24.7-.7-.5-1.5-1.1-2.2-1.7-2-1.5-4-3.1-6-4.6-.6-.5-1.2-.9-1.8-1.4-1.4-1.1-2.7-2.2-4-3.4v-2c-.6-.3-1.2-.5-1.8-.8-2.3-1.2-3.9-2.5-5.8-4.3-.7-.6-1.3-1.2-2-1.9-.7-.7-1.4-1.3-2.1-2-.7-.7-1.4-1.4-2.2-2-9.8-9.3-16.9-16.6-21.3-21.7-1.5-1.8-3-3.5-4.6-5.2-39.9-45.2-67.7-101.2-89.4-157.1-.3-.7-.5-1.3-.8-2-8.7-22.5-16.9-45.1-24.7-67.9-2.5-7.2-5.1-14.5-7.7-21.7-3.4-9.5-6.7-18.9-9.8-28.5-3.4-10.4-7.1-20.7-10.9-30.9-2.7-7.2-5.2-14.4-7.7-21.6-12.6-36.9-27.4-73.3-41.7-109.6-30.1-76.2-60.1-152.5-80.7-231.9-.2-.8-.4-1.6-.6-2.3-6.2-24-11.3-48.2-15.4-72.7-.1-.7-.2-1.5-.4-2.2-14.2-85.7-12.2-178.3,23.4-258.8.5-1,.9-2.1,1.4-3.1,12.1-27.2,28.1-53.2,48.6-74.9,1.1-1.3,2.3-2.6,3.4-3.9,6.9-7.9,14.5-15.4,22.6-22.1.5-.4,1-.8,1.5-1.3,56.6-47.2,129.1-69,202.2-68.9l.4.6h0Z"/>
</svg>