<?xml version="1.0" encoding="UTF-8"?>
<svg id="Layer_1" xmlns="http://www.w3.org/2000/svg" version="1.1" viewBox="0 0 3000 3000">
  <!-- Generator: Adobe Illustrator 29.2.1, SVG Export Plug-In . SVG Version: 2.1.0 Build 116)  -->
  <defs>
    <style>
      .st0 {
        fill: gray;
      }

      .st1 {
        fill: #fff;
      }
    </style>
  </defs>
  <path class="st0" d="M0,0h3000v3000H0V0Z"/>
  <path class="st1" d="M873,642c1.6.5,3.3,1.1,4.9,1.6,32.4,10.8,64.2,25,94.1,41.4.7.4,1.5.8,2.2,1.2,18.1,9.8,35.6,20.5,52.8,31.8,1,.7,2,1.3,3.1,2,14.3,9.4,28.2,19.5,41.9,30,.7.6,1.5,1.1,2.2,1.7,8.8,6.7,17.4,13.6,25.8,20.8,2.8,2.4,5.6,4.7,8.5,7,5.1,4.1,9.9,8.5,14.7,12.9,2.2,2.1,4.5,4.1,6.8,6.1,11.4,9.9,22.1,20.4,32.8,31.1,2.6,2.6,5.1,5.1,7.7,7.7,1.7,1.7,3.3,3.3,5,5,.8.8,1.5,1.5,2.3,2.3,4.1,4.1,8,8.3,11.7,12.6,2.6,2.9,5.2,5.8,7.9,8.6,4.6,4.9,9,10,13.3,15.3,2.8,3.5,5.8,6.8,8.7,10.2,5.7,6.5,11,13.2,16.3,20,1.3,1.7,2.7,3.4,4,5.2,16,20.2,30.8,41.2,45.3,62.6.4.6.9,1.3,1.3,1.9,19.9,29.2,37.6,59.8,54.1,91,1.4,2.7,2.9,5.4,4.3,8.1,22.3,41.5,39.9,85.2,57.4,128.8,7.3,23.5,18.6,43.9,33.9,61.2,10.3,1.9,17.9-2.6,26.3-8.2,7.2-5,14.1-10.4,21.1-15.7,68.1-52.2,145.5-84.4,232.7-73.1,90.2,12.6,177.1,47.2,358,129,1.1.6,2.2,1.2,3.3,1.8,27.3,14.9,54,30.7,79.7,48.2,1.4,1,2.9,1.9,4.3,2.9,10.6,7.1,20.7,14.6,30.7,22.5,2.8,2.2,5.7,4.4,8.6,6.6,11.1,8.5,21.9,17.4,32.1,26.9,2,1.9,4.1,3.6,6.1,5.4,4.6,4,8.8,8.3,13,12.6,3.1,3.1,6.1,6.1,9.5,8.9,3.7,3.2,6.9,6.7,10.1,10.3,2.5,2.9,5.2,5.6,7.8,8.4,5.4,5.7,10.6,11.5,15.5,17.6,2.9,3.6,6,7.1,9,10.6,4.3,5,8.5,9.9,12.3,15.3l-3,1.5c-6.8,3.4-13.6,6.8-20.4,10.3-69.8,35.4-142.8,60.4-378.5,88.6h-66.8c-16.5-.8-31.9,2-46.4,8.4-3.6,5.6-2.9,12.9-1.5,19.1.6,2.3,1.3,4.7,2,7,.3.9.5,1.7.8,2.6,2.9,9.3,6.7,18.2,10.6,27.2,1.7,3.9,3.4,7.8,5,11.8.8,2,1.7,4,2.5,5.9,5.7,13.4,11.2,26.9,16.6,40.4.4,1,.8,2,1.2,3.1,33.9,86,52.6,180.9,18.7,363.2-6.4,14.6-13.5,28.8-22.9,41.7-.5.6-.9,1.3-1.4,1.9-1.5,2.1-3.1,4.3-4.7,6.4-.5.7-1,1.3-1.5,2-3,4-6.3,7.6-9.9,11.2-1.7,1.7-3.3,3.5-4.9,5.4-26.5,30.4-68.1,47.1-107.7,50.1-71.4,3.5-136-31.8-191-74-1.1-.8-2.2-1.6-3.2-2.5-7-5.4-13.9-10.9-20.8-16.5-1.8-1.4-3.5-2.9-5.3-4.3-4.9-4-9.7-8.1-14.5-12.2-4.4-3.8-8.9-7.5-13.4-11.1-3.3-2.7-6.5-5.4-9.6-8.2-6.3-5.5-12.8-10.7-19.5-15.8-1.7-1.3-3.4-2.7-5.1-4-15.2-12.1-31-23.2-47.6-33.3-.7-.4-1.3-.8-2-1.2-53-32.1-115.8-38-176-44.5-.7,0-1.4,0-2.1-.2-7-.8-14.1-1.5-21.1-2.2-26.2-2.7-52.3-5.6-78.2-10.4-.9-.2-1.8-.3-2.8-.5-28.7-5.3-57.3-12.2-84.8-21.9-1.1-.4-2.2-.8-3.3-1.2-14.9-5.3-29.4-11-43.7-17.8-.9-.5-1.9-.9-2.9-1.4-14.2-6.8-27.8-14.2-41.1-22.6-.7-.4-1.3-.8-2-1.3-15.8-10.1-30.9-21.4-45-33.7-.7-.6-1.5-1.3-2.2-1.9-1.9-1.7-3.9-3.4-5.8-5.1-.7-.6-1.4-1.2-2.1-1.8-11.4-10-22.5-20.7-31.9-32.6-2.2-2.8-4.6-5.4-7-8-4.6-5-8.7-10.3-12.7-15.8-1.5-2-2.9-4-4.4-6-33-45.2-58.6-95.1-83.6-145-.5-1-1-1.9-1.5-2.9-6.3-12.6-12.4-25.2-18.5-37.8-5.6-11.7-11.5-23.2-17.5-34.6-2.9-5.5-5.7-11-8.6-16.5-6.3-12.3-12.7-24.5-19.6-36.5-3.8-6.7-7.6-13.5-11.2-20.3-5-9.3-10.2-18.4-15.5-27.5-3.4-5.8-6.8-11.7-10-17.6-4.3-7.9-8.9-15.6-13.4-23.4-6.7-11.4-13.2-22.9-19.7-34.3-1.7-2.9-3.4-5.9-5-8.8-7.1-12.3-14-24.7-20.9-37.1-1.3-2.3-2.5-4.6-3.8-6.8-8.8-15.8-17.4-31.8-25.7-48-2.3-4.6-4.7-9.1-7.2-13.7-38.1-71.2-68.7-148.8-100.2-339.9v-2.3c-2.1-78.2,17.9-161.3,68.1-222.7.5-.6.9-1.2,1.4-1.8,11.9-14.7,25.4-28.9,40.6-40.2.5-.4,1.1-.8,1.7-1.3,9.4-7.2,19.2-13.7,29.3-19.7.6-.4,1.2-.8,1.9-1.1,39.3-23.8,85.7-35.3,131.1-38.9.7,0,1.4,0,2.2-.2,59.4-4.7,119.7,6.3,175.8,25.2v-.3h0Z"/>
</svg>