<?xml version="1.0" encoding="UTF-8"?>
<svg id="Layer_1" xmlns="http://www.w3.org/2000/svg" version="1.1" viewBox="0 0 3000 3000">
  <!-- Generator: Adobe Illustrator 29.2.1, SVG Export Plug-In . SVG Version: 2.1.0 Build 116)  -->
  <defs>
    <style>
      .st0 {
        fill: gray;
      }

      .st1 {
        fill: #fff;
      }
    </style>
  </defs>
  <path class="st0" d="M0,0h3000v3000H0V0Z"/>
  <path class="st1" d="M761.9,653.6h3.7c18,0,35.6.6,53.4,3.4,1.2.2,2.4.3,3.6.5,73.6,10.7,145,38.3,209,76,2.4,1.4,4.8,2.8,7.1,4.2,10.5,6.1,20.6,12.7,30.7,19.4.6.4,1.2.8,1.9,1.3,11.9,7.9,23.6,16.1,35,24.7.7.5,1.3,1,2,1.5,4.5,3.4,8.8,6.8,13.2,10.3,1.9,1.5,3.8,3,5.7,4.5,8.2,6.4,16.1,13,23.9,19.9,1.8,1.6,3.7,3.2,5.6,4.8,9,7.7,17.6,15.7,26.2,23.8,4.2,4,8.5,7.9,12.7,11.9,5.4,5.1,10.8,10.1,15.6,15.8,3.3,3.8,6.8,7.3,10.4,10.9,4,4,8,8,11.6,12.4,2,2.3,4.1,4.5,6.2,6.8,5,5.4,9.8,10.8,14.4,16.6,2.5,3.1,5.1,6.1,7.6,9.1,5.3,6.2,10.3,12.5,15.3,18.9,1.3,1.7,2.7,3.4,4,5.1,7.7,9.7,15.1,19.7,22.4,29.7.6.8,1.1,1.6,1.7,2.4,7.4,10,14.5,20.2,21.3,30.6.5.8,1,1.5,1.5,2.3,3.9,5.9,7.7,11.8,11.5,17.7.5.8,1,1.6,1.5,2.4,13.7,21.3,26.2,43.4,38.5,65.6.5.9,1.1,1.9,1.6,2.9,11.7,21.3,22.9,43,33.7,64.8,5.3,10.6,10.9,21,16.7,31.3.4.7.8,1.5,1.2,2.2,6.8,12.2,14.9,25.1,28.8,29.8,18.9,2.4,37.2-14,51.6-24.3,6.1-4.3,12.3-8.5,18.4-12.7.6-.4,1.3-.9,1.9-1.3,9.2-6.2,18.5-12.2,28.1-17.7.7-.4,1.4-.8,2.1-1.2,60.6-34.9,128.7-48.1,197-30.2,24.2,6.7,47.1,15.9,69.8,26.4.9.4,1.7.8,2.6,1.2,24,11.1,47.5,23.3,70.6,36.1,9.1,5,18.2,9.7,27.4,14.4,9.5,4.8,18.8,9.8,28.1,14.9,7.6,4.2,15.3,8.1,22.9,12.1,9.4,4.8,18.7,9.7,27.9,14.9,4,2.3,8.1,4.5,12.2,6.7,11.9,6.4,23.6,13.2,35.2,20,2.8,1.7,5.6,3.3,8.4,4.9,20.5,12,40.9,24.4,60.5,37.8,1.3.9,2.7,1.8,4,2.7,16,10.9,31.6,22.4,47,34.3.6.5,1.2,1,1.9,1.5,8,6.2,15.8,12.5,23.5,19.1,1.7,1.5,3.4,2.9,5.1,4.4,10,8.5,19.9,17.2,29,26.6,1.6,1.5,3.2,2.9,4.9,4.3.8.7,1.7,1.4,2.6,2.2v2h2c.9.9,1.8,1.9,2.9,3.2,3.2,3.8,6.6,7.3,10.1,10.8,3.9,3.9,7.7,7.8,11.3,12,2,2.3,4,4.5,6.1,6.8,3.9,4.3,7.6,8.7,11.2,13.2,1.8,2.2,3.6,4.3,5.5,6.4.5.6,1,1.2,1.5,1.8,1,1.1,2,2.3,3,3.4.9,1.1,2.1,2.5,3.4,4.3-1.3,3.9-2.7,4.3-6.2,6.3-1.1.6-2.2,1.2-3.3,1.9-1.2.7-2.4,1.3-3.5,2-1.2.7-2.4,1.4-3.6,2.1-2.4,1.3-4.8,2.7-7.1,4-2.5,1.4-5.1,2.9-7.6,4.3-3.1,1.8-6.3,3.5-9.4,5.3-1.5.9-3.1,1.7-4.6,2.6-36.5,20.5-74.9,36.3-114.5,49.6-.7.2-1.3.4-2,.7-82.3,27.7-168,36.9-254.2,42.1-1.1,0-2.1,0-3.2.2-4.9.3-9.8.6-14.8.9-9.3.5-18.5,1.3-27.7,2.6-.9,0-1.8.2-2.7.4-10.5,1.5-23.2,3.8-30.5,12.2-6.1,9.4-5,21.1-2.8,31.5.2.8.3,1.5.5,2.3s.4,1.6.5,2.5c1.8,8,4.1,15.7,6.5,23.4,1.1,3.3,2.1,6.7,3.1,10,.5,1.8,1.1,3.5,1.6,5.3,18.3,58.4,34.7,117.5,38.5,178.9,0,.9,0,1.9.2,2.8,4.5,75.4-6.2,158.8-56.8,218.3-3.7,4.1-7.5,8-11.4,12-.7.8-1.4,1.5-2.2,2.3-17.3,18.1-41,30.3-64.9,37-.9.2-1.7.5-2.6.7-12.8,3.4-25.5,4.4-38.6,4.3h-2.2c-20.9,0-40.5-3.9-60.4-10.4-.8-.3-1.6-.5-2.4-.8-34.5-11.4-67.4-30.7-95.9-52.9-2.6-2-5.2-3.9-7.8-5.9-10.5-7.9-20.7-16.1-30.9-24.4-1.8-1.5-3.7-3-5.5-4.5-2.7-2.2-5.4-4.4-8.1-6.6-1.8-1.5-3.6-2.9-5.4-4.4-2.3-1.8-4.5-3.7-6.8-5.5-9.2-7.6-18.6-14.9-28.3-22-.8-.6-1.5-1.1-2.3-1.7-44.9-32.7-93.2-48.5-148.9-48.4h-24.5c-14.2,0-28.3,0-42.5.6-19.1.7-38.2.7-57.3.7h-12.7c-91.9.5-183.4-13-298.8-81.3-.7-.5-1.4-1-2.1-1.5-8.8-6.4-17-13-24.9-20.5-1.4-1.2-2.7-2.4-4.1-3.6-4.5-3.9-8.7-8.2-12.9-12.4-2.5-2.5-5-5-7.6-7.5-5.4-5.3-10.5-10.7-15.2-16.7-2.2-2.8-4.6-5.5-6.9-8.2-7-8.4-13.1-17.5-19.3-26.6-.5-.7-.9-1.4-1.4-2.1-7.1-10.3-13.5-21-19.6-31.9-.5-.9-1-1.7-1.5-2.6-3.6-6.4-7.1-12.9-10.5-19.4-.5-.9-.9-1.8-1.4-2.7-23.6-45-41-93.3-59-140.8-16.8-44.5-34.1-88.7-52.6-132.5-.3-.8-.7-1.6-1-2.4-11.6-27.4-23.3-54.8-35.2-82.1-13.8-31.6-27.1-63.4-39.7-95.5-.3-.6-.5-1.2-.7-1.9-3.8-9.7-7.6-19.4-11.3-29.1-.5-1.2-.9-2.4-1.4-3.7-26.2-69.3-45.8-141.5-53.6-215.3-.1-1-.2-2.1-.4-3.1-6.9-62.5-1.2-128.4,19.4-187.9.3-.9.6-1.7.9-2.6,10-28.7,24.1-55.9,42.8-79.8,1.1-1.4,2.2-2.8,3.3-4.3,3.7-4.9,7.7-9.4,11.8-14,2-2.1,3.9-4.3,5.8-6.5,6-6.9,12.4-12.8,19.5-18.5,1.9-1.5,3.8-3.1,5.6-4.7,53.9-46.6,128.3-65.5,198.1-65h.2Z"/>
</svg>