<?xml version="1.0" encoding="UTF-8"?>
<svg id="Layer_1" xmlns="http://www.w3.org/2000/svg" version="1.1" viewBox="0 0 3000 3000">
  <!-- Generator: Adobe Illustrator 29.2.1, SVG Export Plug-In . SVG Version: 2.1.0 Build 116)  -->
  <defs>
    <style>
      .st0 {
        fill: gray;
      }

      .st1 {
        fill: #fff;
      }
    </style>
  </defs>
  <path class="st0" d="M0,0h3000v3000H0V0Z"/>
  <path class="st1" d="M744.4,637.8h3.4c18.2,0,36.1.7,54.2,3.3,1.2.2,2.4.3,3.7.5,67.4,9.7,133.6,33.6,192.9,67.1,2.3,1.3,4.7,2.6,7,3.9,31.3,17,61.7,37.2,89.8,59.2,1.7,1.3,3.4,2.6,5.1,3.9,7,5.4,13.8,11,20.4,16.7,2.9,2.5,5.8,4.9,8.8,7.2,4.5,3.6,8.7,7.4,13,11.3,2,1.8,4.1,3.6,6.1,5.4,8,7,15.9,14.3,23.4,21.9,1.9,1.8,3.8,3.6,5.8,5.3,5.4,4.7,10.4,9.6,15.1,15.1,3.6,4.2,7.5,8,11.4,11.9s8.8,8.8,12.8,13.6c2.1,2.5,4.3,4.9,6.5,7.3,4.1,4.5,7.9,9.1,11.7,13.8,2.7,3.3,5.4,6.4,8.1,9.6,9.4,10.9,18.5,22,27,33.6,1.5,2,3,4.1,4.5,6.1,19.4,26.1,37.7,52.9,54.8,80.6.4.6.7,1.2,1.1,1.8,2.7,4.4,5.3,8.8,7.9,13.2.5.9,1,1.8,1.6,2.7,24,40.7,45.3,83.1,64.7,126.2,3.4,7.6,6.9,15.2,10.5,22.8.7,1.5,1.4,3,2.1,4.6,3.8,8.2,7.8,16.2,12.4,24,.4.7.8,1.4,1.2,2.1,4.8,8,10.2,16,19.5,18.6,11.6,2,21.9-4.7,31-11,.6-.4,1.2-.8,1.9-1.3,6.6-4.6,13.1-9.2,19.5-13.9,17.3-12.6,34.9-24.4,53.6-34.8.7-.4,1.5-.8,2.2-1.3,64-36.1,137.1-42.2,207.3-22.7,38.3,11,74.7,26.6,111.2,42.5,5.7,2.5,11.4,4.9,17.1,7.3,7.5,3.2,14.9,6.7,22.3,10.2.7.3,1.3.7,2,1,3.5,1.6,6.9,3.3,10.4,4.9,11.5,5.5,23.1,10.8,34.8,16.1,6.1,2.7,12.1,5.7,18.1,8.7,4.3,2.2,8.7,4.3,13,6.5,4.1,2,8.1,4,12.2,6.1,2.1,1,4.1,2.1,6.2,3.1,14.6,7.2,29,14.8,43.3,22.7,1.2.7,2.4,1.3,3.7,2,49.8,27.4,97.6,58.4,141.6,94.5,1.6,1.3,3.2,2.6,4.8,3.9,5.6,4.6,11.1,9.3,16.4,14.2,2.2,2,4.4,4,6.7,5.9,3.8,3.3,7.4,6.9,10.9,10.5,1.3,1.4,3,2.7,5,3.9v2c.6.3,1.2.5,1.8.8,2.5,1.4,3.8,2.9,5.7,5.1,2.7,3.2,5.6,6.2,8.6,9.2,5.9,5.8,11.6,11.7,17,18,.9,1.1,1.8,2.1,2.7,3.2,2.6,3,5.2,6,7.7,9,1,1.2,2.1,2.4,3.1,3.6,5.4,6.3,10.6,12.5,15.5,19.2-1,.5-2,1-2.9,1.5-8.4,4.4-16.7,8.9-25.1,13.5-2.8,1.5-5.6,3.1-8.4,4.6-1.6.9-3.2,1.7-4.8,2.6-30.3,16.7-62.6,30.4-95.3,41.6-3.5,1.2-7,2.4-10.5,3.7-54.6,19-111.7,30-169,36.5-1.2,0-2.3.3-3.5.4-31.7,3.6-63.6,5.1-95.4,6.2h-2c-7.2.2-14.3.4-21.5.6-22.6-.6-44,3.1-64.1,11.2-5.1,5.7-4.8,11.2-4.7,18.6,1.5,22.5,12.5,45.3,20.1,66.3,31.9,87.5,54.5,181,42.1,284.6-.2,1.3-.4,2.5-.6,3.8-8.5,50.9-26.4,100.2-62.4,138.2-.5.5-.9,1-1.4,1.5-27,29.1-65.8,46.9-105.4,48.6-87.8,2.8-161.7-51.7-225.4-106.1-4.4-3.8-9-7.3-13.6-10.9-3.9-3-7.6-6.2-11.3-9.4-8.6-7.4-17.7-14.1-26.9-20.8-.7-.5-1.5-1.1-2.3-1.7-34.6-25.4-73.4-41.9-115.7-48.5-1,0-2-.3-3-.5-17.4-2.6-34.9-3.7-52.5-4.3-2.1,0-4.2-.2-6.2-.2-12.7-.5-25.5-.9-38.2-1.2-94.9-2.5-189-9.1-353-99.5-1-.9-2.1-1.7-3.1-2.6-16.4-13.6-32.8-28.2-46-45-1.9-2.4-3.8-4.6-5.9-6.8-27.5-30.7-47.8-68.3-66.6-104.8-.9-1.8-1.9-3.6-2.8-5.4-8.6-16.5-16-33.4-23.5-50.4-1.6-3.6-3.2-7.2-4.7-10.8-6.2-14-12.2-28-18.1-42-9.5-22.5-19.2-44.8-29.3-67-1-2.2-2-4.3-3-6.5-13.3-29.4-26.8-58.7-41.4-87.4-3.4-6.6-6.6-13.3-9.8-20-5.6-11.8-11.5-23.5-17.3-35.2-7.2-14.4-14.3-28.8-21.2-43.3-1.5-3.2-3.1-6.5-4.6-9.7-10.3-21.5-20.2-43.1-29.7-64.9-.8-1.9-1.7-3.8-2.5-5.7-12.7-28.9-24-58.4-34.4-88.3-.4-1.2-.9-2.5-1.3-3.8-19.6-56.2-33.7-114.8-38.7-174.2,0-1-.2-2.1-.3-3.1-1.1-13.3-1-26.6-1-39.9v-3.9c0-19.2.4-38.1,3.3-57.1.2-1.2.4-2.3.5-3.6,9-57.5,29.3-113.1,66.5-158.4.5-.6.9-1.1,1.4-1.7,11.5-14,24.2-27.3,38.6-38.3.9-.8,1.9-1.6,2.9-2.3,54.2-43.1,123.2-60.9,191.5-60.9l-.4-.3h0Z"/>
</svg>