<?xml version="1.0" encoding="UTF-8"?>
<svg id="Layer_1" xmlns="http://www.w3.org/2000/svg" xmlns:xlink="http://www.w3.org/1999/xlink" version="1.1" viewBox="0 0 3000 3000">
  <!-- Generator: Adobe Illustrator 29.2.1, SVG Export Plug-In . SVG Version: 2.1.0 Build 116)  -->
  <defs>
    <style>
      .st0 {
        fill: #fff;
      }

      .st0, .st1 {
        fill-rule: evenodd;
      }

      .st1 {
        fill: gray;
      }
    </style>
  </defs>
  <path class="st1" d="M-.5-.5h3000v3000H-.5V-.5Z"/>
  <path class="st0" d="M671.5,589.5c61.1-2.3,120.5,6.8,178,27.5,57.7,20.9,111.7,48.5,162,83,92.2,64.9,170.4,143.8,234.5,236.5,55.5,80,99.2,166.3,131,259,8.3,25.7,16.7,51.3,25,77,2.9,7.7,6.8,14.9,11.5,21.5,4.5,2.9,9.1,3.2,14,1,2.2-1.6,4.5-2.9,7-4,16.7-13.3,33.3-26.7,50-40,65.1-47.9,138.1-68.5,219-62,60.2,5.8,119.2,17.4,177,35,103.6,29.1,200.2,72.8,290,131,58.5,39.5,109.7,87,153.5,142.5.7.8.5,1.5-.5,2-133.8,66.8-275.4,96.3-425,88.5-24.5-1.3-49-2.5-73.5-3.5-7.2,0-14.4.4-21.5,1.5-5.8,1.5-9.1,5.1-10,11,1.4,6.3,3.3,12.4,5.5,18.5,17.4,34.1,34.1,68.8,50,104,34.2,78.2,52.3,160.1,54.5,245.5.9,62.1-13,120.6-41.5,175.5-45,76.2-111.5,107.4-199.5,93.5-37.7-8.4-72.7-23-105-44-24.4-15.9-47.7-33.2-70-52-33.9-30.3-68.6-59.6-104-88-37.2-27.1-78.2-46.4-123-58-43.6-10.1-87.2-19.8-131-29-55.6-12.5-108.3-32.5-158-60-58.9-35.8-107.7-82.3-146.5-139.5-31-47.4-60-96-87-146-14.7-24-29.3-48-44-72-48.7-71.7-97.1-143.7-145-216-32.3-50.9-61.3-103.9-87-159-29.3-63.2-49.3-129.2-60-198-9.2-61-5.8-121.4,10-181,34.3-108.3,107.2-173.8,218.5-196.5,13.8-2.3,27.4-4.1,41-5.5Z"/>
</svg>