<?xml version="1.0" encoding="UTF-8"?>
<svg id="Layer_1" xmlns="http://www.w3.org/2000/svg" xmlns:xlink="http://www.w3.org/1999/xlink" version="1.1" viewBox="0 0 3000 3000">
  <!-- Generator: Adobe Illustrator 29.2.1, SVG Export Plug-In . SVG Version: 2.1.0 Build 116)  -->
  <defs>
    <style>
      .st0 {
        fill: #fff;
      }

      .st0, .st1 {
        fill-rule: evenodd;
      }

      .st1 {
        fill: gray;
      }
    </style>
  </defs>
  <path class="st1" d="M-.5-.5h3000v3000H-.5V-.5Z"/>
  <path class="st0" d="M526.5,450.5c74.5-1.7,145.8,12.5,214,42.5,77.5,34.6,147.9,79.9,211,136,167.5,152.8,278.4,339.9,332.5,561.5,15.4,65.5,21.4,131.8,18,199-1,11.4-2.3,22.8-4,34,24.2-44.2,57-80.7,98.5-109.5,61.3-41.9,128.6-69.6,202-83,186.8-31.5,365.8-6.8,537,74,95.4,46.1,176.1,110.7,242,194-55.4,17.6-111.7,31.3-169,41-102.1,15.9-204.1,15.3-306-2-45.7-8.5-90-21.1-133-38,46,40.5,85.5,86.4,118.5,137.5,73.8,113.1,116.8,237.1,129,372,7.2,81.1-4.1,159.4-34,235-19.3,46-48.5,84.5-87.5,115.5-57.3,40.5-120.3,52.9-189,37-46.1-11.9-88.4-31.6-127-59-45.9-33.9-87.4-72.7-124.5-116.5-41.5-51.1-81.8-103.1-121-156-27.6-35.1-56.6-69.1-87-102-45.5-45.3-89.8-91.7-133-139-30.7-37.1-60.7-74.8-90-113-34.2-42.2-72.3-80.3-114.5-114.5-70.8-53.2-141.8-106.2-213-159-69.4-54.1-134.6-113.2-195.5-177.5-62.1-66.4-115.1-139.4-159-219-30.7-56.4-53.7-115.7-69-178-14.7-60.2-17.4-120.8-8-182,11.1-65,40.6-119.8,88.5-164.5,50.3-40.9,108-63.1,173-66.5Z"/>
</svg>