<?xml version="1.0" encoding="UTF-8"?>
<svg id="Layer_1" xmlns="http://www.w3.org/2000/svg" xmlns:xlink="http://www.w3.org/1999/xlink" version="1.1" viewBox="0 0 3000 3000">
  <!-- Generator: Adobe Illustrator 29.2.1, SVG Export Plug-In . SVG Version: 2.1.0 Build 116)  -->
  <defs>
    <style>
      .st0 {
        fill: #fff;
      }

      .st0, .st1 {
        fill-rule: evenodd;
      }

      .st1 {
        fill: gray;
      }
    </style>
  </defs>
  <path class="st1" d="M-.5-.5h3000v3000H-.5V-.5Z"/>
  <path class="st0" d="M532.5,461.5c65.4-2.7,128.7,7.5,190,30.5,69.5,26.8,133.5,62.8,192,108,137.9,110.2,242.7,246,314.5,407.5,43.1,95.2,69.7,194.9,80,299,2.7,38.5,1.7,76.8-3,115,17.2-33.5,40-62.7,68.5-87.5,63.5-52.8,136.2-86.8,218-102,182.2-31.8,357.6-9.5,526,67,77.7,35.7,146.5,83.9,206.5,144.5,16,17.7,31.7,35.7,47,54,.6,1,.3,1.7-1,2-91,31.1-184.5,48.9-280.5,53.5-85.7,4.1-170-4.6-253-26-20.9-5.9-41.6-12.5-62-20-1.3-.7-2.7-.7-4,0,79.4,75.2,139.6,163.8,180.5,265.5,33.7,81,52.7,165.3,57,253,4.3,77.7-9.3,152.1-41,223-19.4,39.8-46.6,73.3-81.5,100.5-55.9,39-117.3,50.6-184,35-37.8-9.4-73.1-24.4-106-45-28-18.2-54.3-38.5-79-61-36.1-34.4-69.6-70.9-100.5-109.5-28.3-35.7-56.7-71.3-85-107-31-36.7-63.8-71.8-98.5-105.5-45.7-40.7-89.9-83.2-132.5-127.5-34.2-38.8-66.8-78.8-98-120-37.8-45.8-79.7-87.7-125.5-125.5l-189-147c-68.6-54.9-132.4-115.1-191.5-180.5-60-67-111-140.3-153-220-27.1-52.8-47.4-108.2-61-166-14.9-63.4-16.2-127.1-4-191,20.3-92.2,73.4-157.4,159.5-195.5,30.5-11.6,61.8-18.8,94-21.5Z"/>
</svg>