<?xml version="1.0" encoding="UTF-8"?>
<svg id="Layer_1" xmlns="http://www.w3.org/2000/svg" xmlns:xlink="http://www.w3.org/1999/xlink" version="1.1" viewBox="0 0 3000 3000">
  <!-- Generator: Adobe Illustrator 29.2.1, SVG Export Plug-In . SVG Version: 2.1.0 Build 116)  -->
  <defs>
    <style>
      .st0 {
        fill: #fff;
      }

      .st0, .st1 {
        fill-rule: evenodd;
      }

      .st1 {
        fill: gray;
      }
    </style>
  </defs>
  <path class="st1" d="M-.5-.5h3000v3000H-.5V-.5Z"/>
  <path class="st0" d="M535.5,444.5c72.2,1.1,141.2,16.6,207,46.5,79.2,36.6,150.9,84.3,215,143,153.1,143.9,257.9,317.7,314.5,521.5,20.1,73.3,29.1,148,27,224-1.1,14.4-2.4,28.7-4,43,18.6-33.6,42.7-62.8,72.5-87.5,56.8-45.4,120.8-77.1,192-95,82.9-20.5,166.9-27.5,252-21,137.6,9.8,266,49.1,385,118,70.1,42.4,130.6,95.9,181.5,160.5-113.1,39.2-229.9,56.7-350.5,52.5-89.4-2.2-175.4-19.9-258-53,47,41,87.5,87.5,121.5,139.5,64.5,99.3,106.1,207.7,125,325,10.3,64.7,10,129.4-1,194-9.8,59.9-32.5,114.3-68,163-56.5,71.1-130,100.6-220.5,88.5-44.2-7.9-85.2-23.9-123-48-32-21-62-44.7-90-71-35.4-36-68.6-73.9-99.5-113.5-43-58.7-87-116.7-132-174-11.4-12.4-22.4-25-33-38-38.4-40.7-76.4-81.7-114-123-36-43.3-71-87.3-105-132-35.6-43.7-75.8-82.5-120.5-116.5-69.8-50.4-139.5-101.1-209-152-77.3-58.6-149.2-123.8-215.5-195.5-68.2-74.3-124.5-157-169-248-24.1-50.8-41.7-103.8-53-159-12.1-57.6-12.4-115.3-1-173,16.2-77.8,57.7-137.6,124.5-179.5,46.5-25.5,96.1-38.7,149-39.5Z"/>
</svg>