<?xml version="1.0" encoding="UTF-8"?>
<svg id="Layer_1" xmlns="http://www.w3.org/2000/svg" version="1.1" viewBox="0 0 3000 3000">
  <!-- Generator: Adobe Illustrator 29.2.1, SVG Export Plug-In . SVG Version: 2.1.0 Build 116)  -->
  <defs>
    <style>
      .st0 {
        fill: gray;
      }

      .st1 {
        fill: #fff;
      }
    </style>
  </defs>
  <path class="st0" d="M0,0h3000v3000H0V0Z"/>
  <path class="st1" d="M1058,748c.6.4,1.2.8,1.8,1.2,3.4,2.2,6.8,4.5,10.2,6.8.6.4,1.1.8,1.7,1.2,14.8,10,29.4,20.5,43.3,31.8,1.6,1.3,3.3,2.6,4.9,3.9,12.8,10.3,25.4,20.8,37.6,31.8,2,1.8,4.1,3.6,6.2,5.4,12.7,11.1,24.6,22.9,36.5,34.9,2.4,2.4,4.8,4.8,7.2,7.2l4.6,4.6c.7.7,1.4,1.4,2.1,2.1,3.9,4,7.7,8,11.4,12.3,2.1,2.4,4.2,4.7,6.4,7.1,4.1,4.5,8.1,9.2,11.9,14,2.1,2.6,4.3,5,6.6,7.5,4.1,4.5,7.8,9.1,11.5,13.9,3,3.9,6.1,7.7,9.3,11.4,4.4,5.2,8.5,10.6,12.5,16.1,1.5,2.1,3.1,4.1,4.6,6.2,22.1,29.8,43,60.6,61.7,92.6.4.7.8,1.4,1.2,2.1,3.3,5.6,6.5,11.3,9.8,16.9.5.9,1.1,1.9,1.6,2.9,8.7,15.2,16.9,30.6,24.8,46.2,1.7,3.3,3.4,6.5,5.1,9.7,4.2,7.8,8.1,15.8,11.9,23.8,11.8,30,28.1,56.2,48.8,78.5,8.5,2.8,16.9,1.1,24.8-2.6,13.5-7.2,25.9-16.8,38.3-25.7,64.5-46,137.2-75.7,217.5-62.8,35.8,6.4,70.1,19,102.9,34.6,4.8,2.3,9.6,4.5,14.4,6.7,22.5,10.5,44.8,21.5,67,32.6,3.7,1.9,7.5,3.7,11.2,5.6,3.7,1.8,7.3,3.7,11,5.5,1.7.9,3.4,1.7,5.1,2.6,13.9,7,27.8,14.2,41.5,21.5,5.4,2.9,10.8,5.7,16.4,8.4,17.1,8.5,33.8,17.7,50.2,27.4,5.8,3.4,11.7,6.8,17.7,10,9.3,5.1,18.3,10.7,27.3,16.3,2.4,1.5,4.8,3,7.2,4.5,19.6,12.2,38.7,25.4,57.3,39.1.7.5,1.4,1,2.1,1.5,12.9,9.6,25.6,19.4,37.8,29.8,2.9,2.5,6,5,9,7.4,3.7,3,7.1,6.1,10.5,9.6,3.8,3.8,8.1,7.3,12.2,10.8.8.7,1.6,1.4,2.5,2.2.7.7,1.5,1.3,2.3,2s1.4,1.9,1.7,3.7c.6.2,1.1.5,1.7.7,3,1.7,5,3.8,7.3,6.3v2c1,.3,2,.7,3,1,1,1.1,2.1,2.3,3.2,3.6,2.5,2.9,5.1,5.7,7.8,8.4,3.9,3.8,7.5,7.9,11,12,.9,1.1,1.8,2.1,2.7,3.2,2.6,3,5.2,6,7.7,9,1,1.2,2.1,2.4,3.1,3.6,1.5,1.7,2.9,3.4,4.4,5.1.8,1,1.7,2,2.6,3,3,3.6,5.8,7.4,8.6,11.1-.7.4-1.5.8-2.2,1.2-2.8,1.6-5.6,3.1-8.4,4.7-1.3.7-2.5,1.4-3.8,2.1-6.4,3.5-12.7,7.1-19.1,10.7-85.3,48.5-180.4,76.8-353.8,95.6-1,0-1.9,0-2.9.2-9.7.6-19.5,1.1-29.2,1.6-28.3-.5-54.6,4.6-78.9,15.4-5.6,8.2-4.9,18.8-3.3,28.2.6,2.8,1.3,5.5,2,8.3.3,1,.5,2.1.8,3.1,3,11.6,6.8,22.9,10.6,34.2,2.1,6.3,4.2,12.7,6.3,19.1.2.6.4,1.3.6,1.9,25.3,77.2,42.2,158.8,28.2,279.8-.2,1-.4,1.9-.6,2.9-9.2,43.9-28.2,84.6-59.4,117.1-.6.7-1.2,1.4-1.9,2.1-24.6,26.3-62.5,42.7-98.2,44.1-60.3,1.7-113.4-21.7-161.9-56.1-1.2-.8-2.3-1.6-3.5-2.5-12.9-9.1-25.4-18.8-37.7-28.8-4.3-3.5-8.6-6.9-12.9-10.3-4.7-3.7-9.3-7.5-13.9-11.4-6.2-5.4-12.6-10.5-19.1-15.5-2-1.6-4-3.1-5.9-4.7-59-47.1-120.5-63.2-195-62.8h-54.7c-86.3.4-169.7-4.3-355.1-93.7-3.5-2.8-7.1-5.5-10.6-8.1-.5-.4-1-.9-1.5-1.3v-2c-.6-.3-1.2-.5-1.8-.8-2.3-1.3-4-2.6-5.9-4.4-.7-.7-1.4-1.3-2.1-2-.7-.7-1.5-1.4-2.2-2.1-.8-.7-1.5-1.4-2.3-2.2-6.5-6.2-12.7-12.7-18.7-19.5-.5-.6-1.1-1.2-1.6-1.8-7.5-8.5-14.7-17.1-21.4-26.2-.5-.7-1-1.3-1.5-2-8.4-11.3-16.2-22.9-23.5-35-.5-.9-1.1-1.7-1.6-2.6-32.8-54.1-55.5-113.2-78.6-171.8-13.2-33.4-26.7-66.6-40.8-99.6-.3-.8-.7-1.5-1-2.3-13.2-30.9-26.9-61.6-40.9-92.2-12.4-27-24.7-54.1-36.4-81.5-1.2-2.8-2.4-5.7-3.7-8.5-36.8-85.1-68.8-173.1-87.1-332.5v-2.4c-1.2-48,5.7-96.1,21.1-141.6.3-.9.6-1.8.9-2.7,9.8-28.4,24-55.3,42.1-79.3.4-.6.9-1.2,1.3-1.7,6.7-8.9,13.9-17.2,21.7-25.3.5-.6,1.1-1.1,1.6-1.7,7.1-7.3,14.3-14.1,22.4-20.3,1.2-1,2.5-2,3.7-3,10.9-8.6,22.3-16,34.3-23,.7-.4,1.3-.8,2-1.2,82.1-48,186.2-45.6,459,62.2h-.2Z"/>
</svg>