<?xml version="1.0" encoding="UTF-8"?>
<svg id="Layer_1" xmlns="http://www.w3.org/2000/svg" xmlns:xlink="http://www.w3.org/1999/xlink" version="1.1" viewBox="0 0 3000 3000">
  <!-- Generator: Adobe Illustrator 29.2.1, SVG Export Plug-In . SVG Version: 2.1.0 Build 116)  -->
  <defs>
    <style>
      .st0 {
        fill: #fff;
      }

      .st0, .st1 {
        fill-rule: evenodd;
      }

      .st1 {
        fill: gray;
      }
    </style>
  </defs>
  <path class="st1" d="M-.5-.5h3000v3000H-.5V-.5Z"/>
  <path class="st0" d="M615.5,530.5c66.8-1.2,131.1,10.6,193,35.5,65,26.5,125,61.2,180,104,127.7,102.7,225.8,228.5,294.5,377.5,43.5,94.8,70.9,194.1,82,298,.5,3.9,2,7.4,4.5,10.5,2.1,0,4.1-.7,6-2,16.6-19,34.3-37,53-54,55.2-45.6,118.5-73.2,190-83,72.2-9.3,144.2-8,216,4,127,19.2,244.7,62.9,353,131,38.4,25.1,73.9,53.9,106.5,86.5,17.7,19.4,35,39,52,59,.5,1.2,0,2.1-1.5,2.5-175.4,72.1-356.1,88.8-542,50-17.4-4.3-21.5.8-12.5,15.5,41.9,56.5,77.3,117.2,106,182,28.9,67.8,46.6,138.5,53,212,5.7,62-.6,122.6-19,182-16.6,52.5-46.4,95.7-89.5,129.5-54.3,36.1-113,45.1-176,27-36.9-11.3-71.2-27.6-103-49-39.3-27.6-76-58.6-110-93-27.4-27.7-55-55-83-82-37.5-34.4-78.8-63.4-124-87-46.1-21.9-91.8-44.6-137-68-58.8-32.1-110.6-73.3-155.5-123.5-16.8-19.4-32.8-39.4-48-60-50.9-74.2-106.9-144.5-168-211-49.1-50.8-97.1-102.4-144-155-49.3-56.3-94-115.9-134-179-38.4-61.1-68.7-126.1-91-195-16.6-52.4-25.5-106-26.5-161-.2-54.6,11.3-106.6,34.5-156,38.8-73.8,99-120.3,180.5-139.5,20-4.2,40-7,60-8.5Z"/>
</svg>