<?xml version="1.0" encoding="UTF-8"?>
<svg id="Layer_1" xmlns="http://www.w3.org/2000/svg" version="1.1" viewBox="0 0 3000 3000">
  <!-- Generator: Adobe Illustrator 29.2.1, SVG Export Plug-In . SVG Version: 2.1.0 Build 116)  -->
  <defs>
    <style>
      .st0 {
        fill: gray;
      }

      .st1 {
        fill: #fff;
      }
    </style>
  </defs>
  <path class="st0" d="M0,0h3000v3000H0V0Z"/>
  <path class="st1" d="M799.4,690.7h3.3c17.9,0,35.5.8,53.3,3.3.7,0,1.3.2,2,.3,55.3,7.6,108.7,24.5,159.1,48.3,2.9,1.4,5.8,2.7,8.7,4.1,22.2,10.4,43.2,22.5,64.1,35.4,2.6,1.6,5.1,3.1,7.7,4.7,10.8,6.6,21.1,13.8,31.4,21.2.8.6,1.6,1.1,2.4,1.7,15.3,10.9,30.2,22.3,44.6,34.3.9.7,1.7,1.4,2.6,2.1,11.2,9,22,18.5,32.5,28.2,2.4,2.2,4.9,4.5,7.3,6.7,5.5,5,10.8,10.2,16,15.5,2.7,2.7,5.4,5.4,8.4,7.8,2.3,1.9,4.2,3.9,6.1,6.1,3.6,4.3,7.5,8.1,11.5,12.1s8.7,8.7,12.7,13.4c2,2.3,4,4.5,6.1,6.7,5,5.4,9.8,10.8,14.4,16.5,2.7,3.3,5.4,6.5,8.2,9.7,5,5.7,9.7,11.6,14.4,17.6,1.9,2.4,3.7,4.7,5.6,7.1,8,9.9,15.6,20.1,23.1,30.5,1.1,1.5,2.1,2.9,3.2,4.4,6.1,8.4,12.2,17,18.2,25.5.7.9,1.3,1.9,2,2.8,3.8,5.5,7.4,11,11,16.6,2,3.2,4.1,6.3,6.1,9.5,7.4,11.3,14.5,22.6,21.6,34.1,5,8.1,10.1,16.2,15.2,24.3,1.6,2.6,3.3,5.3,4.9,7.9,13.4,23.3,30.7,42.3,51.8,56.9,22.7,2.5,41.3-13,59-25,19-12.9,38-25.6,58-37,.8-.5,1.6-.9,2.5-1.4,55.4-31.2,120.3-44.9,182.4-27.8,12.5,3.7,24.4,8.5,36.1,14.2.8.4,1.6.8,2.5,1.2,31.9,15.6,60.4,37.6,88,59.8,3.4,2.7,6.8,5.3,10.2,7.9,3.9,3,7.8,6,11.6,9,15,11.7,30,23.3,45.6,34.2,3.5,2.5,7,5,10.5,7.6,8.8,6.5,17.9,12.6,27,18.6,6.5,4.3,12.9,8.7,19.2,13.3,4,2.9,8,5.5,12.1,8.2,5.6,3.7,11.2,7.5,16.8,11.3.6.4,1.2.8,1.8,1.2,10.2,6.9,20.2,13.9,30.3,21,2.5,1.7,4.9,3.4,7.4,5.1,17,11.8,33.6,24.1,49.9,36.9,1.9,1.5,3.9,3,5.8,4.6,7.4,5.7,14.5,11.6,21.6,17.7,1.6,1.4,3.3,2.8,4.9,4.1,6.5,5.4,12.8,11,19,16.8,4.2,3.9,8.5,7.6,12.8,11.3.7.6,1.4,1.2,2.1,1.8.6.5,1.2,1.1,1.9,1.6,2.4,2.2,4.7,4.5,7,6.8s2.1,2,3.1,3.1c5.3,5.2,10.5,10.5,15.3,16.1,1.8,2,3.7,3.9,5.6,5.8,3.9,3.8,7.5,7.9,11,12,.9,1.1,1.9,2.2,2.8,3.2,5.5,6.4,10.9,12.8,16.2,19.3,2.6,3.2,5.3,6.3,8,9.4-1.4,3.4-2.9,4.9-6,6.9-.8.5-1.6,1.1-2.5,1.6-.9.6-1.8,1.2-2.7,1.7-.9.6-1.9,1.2-2.8,1.9-2,1.3-4,2.6-6,3.9-2.9,1.9-5.8,3.8-8.7,5.7-80.9,53.7-172.9,86.8-363.2,117.6-16.5,2.1-32.8,4.6-49.1,7.6-.7,0-1.4.3-2.1.4-12,2.6-26.9,7.2-34.7,17.4-8.8,15-7.1,31.9-4.6,48.4.2,1.2.4,2.3.5,3.5,1.9,12.5,4.4,25,6.9,37.4,7.1,35.4,13.1,70.7,15.9,106.8,0,.9,0,1.8.2,2.7,5.7,73.9-6.1,157.1-55.7,215.2-26.3,29.8-60.9,46.9-100.5,50-33.5,1.3-66-7.2-96-21.9-.9-.4-1.7-.9-2.6-1.3-19.6-9.7-38.1-21.1-55.5-34.3-2-1.5-3.9-3-5.9-4.4-7.8-5.8-15.4-11.7-22.9-18-1.7-1.4-3.4-2.8-5.1-4.2-4.8-3.9-9.6-7.9-14.4-11.8l-4.4-3.7c-2.3-1.9-4.6-3.8-7-5.8-12.6-10.4-25.4-20.6-39.1-29.6-.6-.4-1.2-.8-1.7-1.2-66-44.2-140.5-28.3-213.9-16.5-63.6,10.2-127.8,18.7-192.4,14.7h-2c-43.1-2.7-85-10.2-126-23.9-1.1-.3-2.1-.7-3.2-1.1-14.2-4.8-27.7-10.5-41.1-17.1-.7-.3-1.4-.7-2.1-1-42.5-20.7-83.3-50.2-113.6-86.9-.4-.5-.9-1-1.3-1.6-23.6-28.3-42-58.7-58.7-91.4l-1.2-2.4c-8.1-16-14.5-32.9-20.8-49.6-.3-.7-.5-1.4-.8-2.2-7.2-19.2-13.5-38.6-19.2-58.2-.3-1.1-.7-2.2-1-3.3-7.3-24.8-13.8-49.7-20.2-74.7-2.6-10.1-5.2-20.3-7.9-30.4-.3-1.1-.6-2.2-.9-3.3-5.9-22.6-12.1-45.1-18.4-67.5-.9-3.3-1.8-6.6-2.8-9.9-1.6-5.9-3.3-11.8-5-17.6-.3-1-.6-2.1-.9-3.2-5.5-19.6-11.3-39.1-17-58.6-12-40.8-23.9-81.7-34.5-122.9-.5-2-1.1-4.1-1.6-6.1-11.4-43.6-20.4-88-25.8-132.7,0-.8-.2-1.6-.3-2.5-2.9-24.4-4.2-48.8-4.1-73.4v-10.1c0-21.6,1-43.1,4-64.5.2-1.2.4-2.4.5-3.6,9.7-66,34.5-133.6,81.3-182.6,1.7-1.7,3.1-3.5,4.4-5.6h2c.3-.6.5-1.2.8-1.8,1.2-2.2,2.3-3.6,4.2-5.3.6-.6,1.2-1.1,1.8-1.7.6-.6,1.3-1.2,2-1.8s1.3-1.2,2-1.9c5.9-5.4,12.1-10.4,18.5-15.2,1.7-1.3,3.4-2.6,5.1-3.9,30.5-23.5,66.7-38.4,103.6-48.4.8-.2,1.5-.4,2.3-.6,8.9-2.4,17.8-4,26.9-5.5.9-.2,1.9-.3,2.9-.5,18.7-3,37.5-3.8,56.4-3.7l.2.4h0Z"/>
</svg>