<?xml version="1.0" encoding="UTF-8"?>
<svg id="Layer_1" xmlns="http://www.w3.org/2000/svg" xmlns:xlink="http://www.w3.org/1999/xlink" version="1.1" viewBox="0 0 3000 3000">
  <!-- Generator: Adobe Illustrator 29.2.1, SVG Export Plug-In . SVG Version: 2.1.0 Build 116)  -->
  <defs>
    <style>
      .st0 {
        fill: #fff;
      }

      .st0, .st1 {
        fill-rule: evenodd;
      }

      .st1 {
        fill: gray;
      }
    </style>
  </defs>
  <path class="st1" d="M-.5-.5h3000v3000H-.5V-.5Z"/>
  <path class="st0" d="M536.5,455.5c75.4-.8,147.4,14.4,216,45.5,74.1,33.7,141.4,77.3,202,131,164.3,149.4,274.5,332.3,330.5,548.5,17.2,67.7,24.2,136.3,21,206-1.3,12.4-2.6,24.7-4,37,17.3-34,40.4-63.5,69.5-88.5,50.8-42.6,108.5-72.9,173-91,97.2-26.2,195.9-33.6,296-22,131.1,13.9,252.7,54.9,365,123,43.6,27.2,83.4,59.4,119.5,96.5,16.7,18.3,33,37,49,56,.6,1,.3,1.7-1,2-79.5,26.6-161,43.4-244.5,50.5-97,7.9-192.7,0-287-24-24.1-6.9-47.7-14.6-71-23,63.3,59,114.8,126.8,154.5,203.5,56.7,108.2,86.5,223.3,89.5,345.5.4,67.2-12.5,131.7-38.5,193.5-20.1,44.7-49.6,81.8-88.5,111.5-47.6,32.7-100.3,45.4-158,38-51.3-8.3-98.3-27-141-56-46.8-32.4-88.9-70.2-126.5-113.5-40.5-47.9-79.5-96.9-117-147-49.8-63.2-104.7-122-164.5-176.5-37-35.7-71.8-73.2-104.5-112.5-33-43.6-67.7-85.9-104-127-40.2-40.5-83-77.7-128.5-111.5-71.1-51.2-140.5-104.9-208-161-69.3-59.6-132.8-124.8-190.5-195.5-45-57.1-83.7-118.4-116-184-34.9-71.1-55.9-146.1-63-225-5.2-62.3,4.8-122,30-179,39-77,100.9-124.8,185.5-143.5,18.3-3.6,36.7-6.1,55-7.5Z"/>
</svg>