<?xml version="1.0" encoding="UTF-8"?>
<svg id="Layer_1" xmlns="http://www.w3.org/2000/svg" version="1.1" viewBox="0 0 3000 3000">
  <!-- Generator: Adobe Illustrator 29.2.1, SVG Export Plug-In . SVG Version: 2.1.0 Build 116)  -->
  <defs>
    <style>
      .st0 {
        fill: gray;
      }

      .st1 {
        fill: #fff;
      }
    </style>
  </defs>
  <path class="st0" d="M0,0h3000v3000H0V0Z"/>
  <path class="st1" d="M1000,732c.6.3,1.2.5,1.9.8,15.3,6.9,30.4,14.1,45.1,22.2.9.5,1.8,1,2.7,1.5,23.6,13,46.2,27.2,68.3,42.5.8.6,1.6,1.1,2.5,1.7,13.5,9.3,26.5,19.2,39.3,29.5,1.5,1.2,3,2.4,4.6,3.6,6.2,4.9,12.1,10,18.1,15.1,2.3,1.9,4.5,3.9,6.8,5.8,7.8,6.5,15.2,13.3,22.5,20.2,2.2,2.1,4.4,4.1,6.6,6.1,7.2,6.6,14.2,13.4,21.1,20.4,1.8,1.8,3.7,3.7,5.5,5.5,5.3,5.3,10.5,10.6,15.4,16.3,2.9,3.3,5.9,6.4,8.9,9.6,5.1,5.4,10,10.9,14.6,16.7,2.1,2.6,4.3,5,6.5,7.5,8.1,8.9,15.5,18.5,23,28,1.6,2.1,3.2,4.1,4.9,6.2,25,31.9,48,65.5,69.7,99.8.6.9,1.1,1.8,1.7,2.7,6.7,10.6,13.4,21.3,19.7,32.2,16.8,33.5,39,61.6,66.6,84.1,23.9,3.1,44-14.5,62.4-27.2,4.1-2.8,8.2-5.5,12.3-8.3,2.9-1.9,5.7-3.8,8.6-5.8,57.2-39.4,127.5-66,197.7-53.4,4,.8,8,1.7,12,2.7.8.2,1.6.4,2.5.6,32.7,8,61.8,24.5,89.6,43,.6.4,1.2.8,1.8,1.2,10.2,6.8,20.3,13.9,30.2,21.2,1.6,1.1,3.1,2.3,4.7,3.4,5.6,4.1,11.2,8.2,16.7,12.4,11.5,8.5,23,16.9,34.6,25.2.7.5,1.3.9,2,1.4,17.2,12.3,34.8,24.1,52.4,35.8,2.1,1.4,4.2,2.8,6.3,4.2,6.2,4.1,12.4,8.2,18.6,12.3,11.9,7.8,23.8,15.6,35.7,23.5.8.5,1.7,1.1,2.5,1.7,10.9,7.3,21.8,14.6,32.6,22.1.9.6,1.9,1.3,2.8,2,17.4,12.1,34.5,24.3,51.1,37.4,2,1.5,3.9,3.1,5.9,4.6,6.8,5.3,13.5,10.8,20.1,16.4,2.8,2.4,5.7,4.8,8.6,7.1,5.1,4.1,9.9,8.5,14.6,12.9,2.3,2.2,4.7,4.2,7.1,6.3,3.1,2.7,6,5.6,8.9,8.5,1.8,1.8,3.7,3.4,5.6,5.1,5,4.3,9.8,8.8,14.2,13.7v2h2c.9,1,2,2.2,3.1,3.5,2.5,2.9,5,5.7,7.8,8.3,3.9,3.9,7.3,8,10.8,12.3,2.4,2.9,4.8,5.6,7.4,8.4,4.2,4.5,8.1,9.2,11.9,14,1.8,2.2,3.7,4.4,5.7,6.5.8,1,1.6,2,2.4,3-1.3,3.9-2.7,4.4-6.1,6.6-1.1.7-2.2,1.4-3.3,2.1-.6.4-1.2.7-1.8,1.1-1.7,1.1-3.5,2.3-5.2,3.4-30,20.4-61.6,38.7-94.6,53.7-1.1.5-2.3,1-3.4,1.5-20.5,9.3-41.4,17.2-62.6,24.5-.7.2-1.4.5-2.1.7-63.1,21.5-128.5,32.4-194.5,40.2-15.4,1.8-30.8,3.7-46.2,5.8-1.7.2-3.4.5-5.1.7-8.9,1.2-17.6,2.8-26.2,5-.8.2-1.5.4-2.3.6-11.2,3-22.2,7.6-28.5,17.9-6.5,13.4-4.7,28.2-2.3,42.4.2,1.1.4,2.2.5,3.3,1.9,11.5,4.4,22.9,6.8,34.3,6.4,29.5,12.2,59.1,16.3,89,0,1.1.3,2.1.4,3.2,2.7,21,3.6,41.9,3.6,63.1v3.6c0,17.9-.5,35.4-3.3,53.1-.2,1.1-.4,2.3-.6,3.5-2.3,14.4-5.3,28.6-9.4,42.5-.2.7-.4,1.5-.7,2.2-7.3,24-17.7,48-33.3,67.8-.5.7-1.1,1.5-1.7,2.2-23.7,31.6-57.9,53.3-97.3,59-58,7.4-114-18.3-160.1-51.3-.7-.5-1.5-1-2.2-1.6-14-10-27.5-20.5-40.8-31.4-1.4-1.1-2.7-2.2-4.1-3.4-2.2-1.8-4.4-3.7-6.7-5.5-5.7-4.7-11.5-9.5-17.3-14.2-.5-.4-1.1-.9-1.6-1.3-37.5-30.6-78.4-57.4-128.4-58.7h-2.5c-39.7-1.1-78.9,5.6-118.1,11.3-67.1,9.7-134.5,16.7-202.4,10.8-1.1,0-2.3-.2-3.4-.3-53.5-4.8-105.1-18.7-153.6-41.7-.9-.4-1.8-.8-2.7-1.3-18.5-8.8-35.9-19.4-52.3-31.7-.7-.5-1.4-1-2.1-1.5-7.8-5.8-15.5-11.6-22.6-18.3-2-1.8-4-3.6-6-5.3-5-4.3-9.6-8.9-14.3-13.6-.9-.9-1.8-1.8-2.7-2.7-5.9-5.9-11.3-12-16.4-18.6-1.6-1.9-3.2-3.7-4.8-5.6-16.5-19.8-29.8-41.9-42.2-64.4-.4-.8-.9-1.5-1.3-2.3-12.7-22.9-22.6-47.2-31.7-71.7-.3-.7-.5-1.4-.8-2.1-16.9-45.4-29.6-92.2-42.5-138.9-17.1-62.2-35.9-123.9-55.2-185.5-26.3-83.9-52.3-168.3-68.6-290.5-.1-1.1-.2-2.3-.4-3.5-6.6-65.7-1.4-134.9,20.4-197.5.3-1,.7-1.9,1-2.9,13.9-39.6,34.6-75.1,63-106.1.9-.9,1.7-1.9,2.6-2.9,10.4-11.7,21.9-21.7,34.4-31.1,1-.8,2.1-1.6,3.1-2.4,47.3-35,103.7-52.6,161.9-57.6.8,0,1.6,0,2.4-.2,79.2-6.7,160.7,14.1,232.6,46.2v.3h0Z"/>
</svg>