<?xml version="1.0" encoding="UTF-8"?>
<svg id="Layer_1" xmlns="http://www.w3.org/2000/svg" xmlns:xlink="http://www.w3.org/1999/xlink" version="1.1" viewBox="0 0 3000 3000">
  <!-- Generator: Adobe Illustrator 29.2.1, SVG Export Plug-In . SVG Version: 2.1.0 Build 116)  -->
  <defs>
    <style>
      .st0 {
        fill: #fff;
      }

      .st0, .st1 {
        fill-rule: evenodd;
      }

      .st1 {
        fill: gray;
      }
    </style>
  </defs>
  <path class="st1" d="M-.5-.5h3000v3000H-.5V-.5Z"/>
  <path class="st0" d="M551.5,477.5c73.3-2.4,143.6,10.7,211,39.5,73,31.7,139.6,73,200,124,143,124.5,246.5,276.3,310.5,455.5,27.7,77,44.1,156.3,49,238,1.1,26.5,0,52.8-3,79,30.8-54.4,73.3-97.3,127.5-128.5,60.2-33.3,124.5-54,193-62,184.4-19.8,358.4,13.8,522,101,55.9,31.2,106.8,69.4,152.5,114.5,17.7,19.4,35,39,52,59-97.6,37-199.1,56.9-304.5,59.5-94.6,2.9-186.9-10.1-277-39-3.3-1.2-6.6-1.6-10-1,106.8,111.1,176.3,242.6,208.5,394.5,15,74.1,16.3,148.4,4,223-10.8,63.6-37.2,119.6-79,168-53.4,54.9-118.3,76.8-194.5,65.5-28.5-5-55.8-13.6-82-26-45.2-22.8-86.2-51.5-123-86-29.4-28.8-57.6-58.6-84.5-89.5-26.6-32.3-53.6-64.3-81-96-36.7-41-76.2-78.8-118.5-113.5-40.2-30.8-79.2-63.2-117-97-28-26.3-54.2-54.2-78.5-83.5-26.8-34.4-54.2-68.4-82-102-36.9-41.9-76.8-80.8-119.5-116.5-56.9-46.2-113.3-93.2-169-141-61.3-53.6-118.1-111.4-170.5-173.5-63.2-75.2-114.5-158.2-154-249-25.4-60.2-40.7-122.9-46-188-3.9-51.7,2.5-102,19-151,35.6-93,102.1-150.1,199.5-171.5,15-2.9,30-5.1,45-6.5Z"/>
</svg>