<?xml version="1.0" encoding="UTF-8"?>
<svg id="Layer_1" xmlns="http://www.w3.org/2000/svg" xmlns:xlink="http://www.w3.org/1999/xlink" version="1.1" viewBox="0 0 3000 3000">
  <!-- Generator: Adobe Illustrator 29.2.1, SVG Export Plug-In . SVG Version: 2.1.0 Build 116)  -->
  <defs>
    <style>
      .st0 {
        fill: #fff;
      }

      .st0, .st1 {
        fill-rule: evenodd;
      }

      .st1 {
        fill: gray;
      }
    </style>
  </defs>
  <path class="st1" d="M-.5-.5h3000v3000H-.5V-.5Z"/>
  <path class="st0" d="M620.5,541.5c63.3-2.2,124.6,7.6,184,29.5,66.5,24.9,127.8,58.6,184,101,104.2,80.5,189.4,177.3,255.5,290.5,67,114.8,110,238.1,129,370,.7,4.2,2.2,8,4.5,11.5l3,1.5c3.3-1.3,6.3-3.2,9-5.5,73.5-84.2,166.5-127.9,279-131,176.4-2.5,340.7,40.5,493,129,70.1,42.3,130.5,95.8,181,160.5-141.4,62-289.1,85.5-443,70.5-34-4.2-68-8.7-102-13.5-3.7-.2-7.1.8-10,3-1,1.6-1.2,3.3-.5,5,1.4,3.8,3.1,7.4,5,11,31.8,45.2,59.8,92.9,84,143,41.7,88.1,63.9,180.9,66.5,278.5,0,50.2-8.2,99.1-24.5,146.5-16.3,46.1-43.4,84.2-81.5,114.5-48.8,34.4-102.5,45-161,32-39.1-9.4-75.4-25.1-109-47-38-26-73.7-55-107-87-37.5-37.8-76.5-73.8-117-108-29.9-22.5-61.9-41.9-96-58-37.6-16.6-75.2-32.9-113-49-57.4-25-109.4-58-156-99-34.2-32.2-64.7-67.4-91.5-105.5-49.4-74.4-103.4-145.4-162-213-47.8-52.1-94.5-105.1-140-159-41.2-50-79.2-102.4-114-157-39.1-62.8-70.1-129.4-93-200-18.9-59.2-27.2-119.9-25-182,2.4-66.5,23.1-126.5,62-180,40.6-49.8,92.4-81.7,155.5-95.5,17-3.4,34-5.9,51-7.5Z"/>
</svg>