<?xml version="1.0" encoding="UTF-8"?>
<svg id="Layer_1" xmlns="http://www.w3.org/2000/svg" xmlns:xlink="http://www.w3.org/1999/xlink" version="1.1" viewBox="0 0 3000 3000">
  <!-- Generator: Adobe Illustrator 29.2.1, SVG Export Plug-In . SVG Version: 2.1.0 Build 116)  -->
  <defs>
    <style>
      .st0 {
        fill: #fff;
      }

      .st0, .st1 {
        fill-rule: evenodd;
      }

      .st1 {
        fill: gray;
      }
    </style>
  </defs>
  <path class="st1" d="M-.5-.5h3000v3000H-.5V-.5Z"/>
  <path class="st0" d="M654.5,573.5c78.2-2.3,152.9,12.9,224,45.5,83.8,38.7,158.8,90.1,225,154,124.2,121.7,212.7,265.9,265.5,432.5,8.8,31.4,17.8,62.7,27,94,5.3,14.7,13.8,16.9,25.5,6.5,29.1-27.9,61.1-51.9,96-72,58.8-29.6,121.2-42,187-37,148.9,12.5,288.9,54.5,420,126,79.9,44.7,148.4,102.9,205.5,174.5.7.8.5,1.5-.5,2-132.9,63.2-272.9,90.7-420,82.5-32.5-2.2-65-4.7-97.5-7.5-4.2,0-8.4.6-12.5,1.5-5.1.8-7.8,3.8-8,9,.9,5,2.4,9.9,4.5,14.5,20.6,36.2,40,73.2,58,111,34.9,75.2,55.2,154.2,61,237,3.8,56.1-3.2,110.8-21,164-15.7,45-42.2,82.2-79.5,111.5-46.8,31.6-97.8,40.9-153,28-36.9-9.3-71.2-24.3-103-45-23.5-15.9-46.2-32.9-68-51-33.8-31-68.1-61.4-103-91-38-30.8-80.3-54.2-127-70-42.5-12.9-85.2-25.3-128-37-66.9-18.6-127.9-48.6-183-90-40.1-33.1-75-71-104.5-113.5-37.7-59-75.3-118-113-177-15.1-21.8-30.4-43.5-46-65-53.9-69.4-105.5-140.4-155-213-41.8-62.9-76.8-129.5-105-200-22-55.7-36-113.4-42-173-6.1-60,.9-118.3,21-175,38.4-94.7,107.9-151.9,208.5-171.5,13.7-2.4,27.4-4.2,41-5.5Z"/>
</svg>