<?xml version="1.0" encoding="UTF-8"?>
<svg id="Layer_1" xmlns="http://www.w3.org/2000/svg" version="1.1" viewBox="0 0 3000 3000">
  <!-- Generator: Adobe Illustrator 29.2.1, SVG Export Plug-In . SVG Version: 2.1.0 Build 116)  -->
  <defs>
    <style>
      .st0 {
        fill: gray;
      }

      .st1 {
        fill: #fff;
      }
    </style>
  </defs>
  <path class="st0" d="M0,0h3000v3000H0V0Z"/>
  <path class="st1" d="M1046,762c1.1.6,2.3,1.2,3.5,1.8,24,12.1,47,25.6,69.5,40.2.6.4,1.2.8,1.8,1.2,13.4,8.7,26.4,18.1,39.2,27.8,1,.8,2.1,1.6,3.1,2.4,3.3,2.5,6.6,5.1,9.9,7.6.6.5,1.2.9,1.7,1.3,10.7,8.3,21,16.8,31.1,25.8,2.3,2,4.6,3.9,6.9,5.9,5.8,4.9,11.5,10,17.1,15.2.7.7,1.5,1.4,2.2,2.1,8.2,7.8,16.2,15.7,24.2,23.7l7.6,7.6c1.6,1.6,3.3,3.3,4.9,4.9.7.7,1.5,1.5,2.2,2.2,4,4,7.9,8.2,11.6,12.5,2.6,2.9,5.2,5.8,7.9,8.6,4.7,5,9.2,10.2,13.5,15.6,2.1,2.5,4.3,5,6.5,7.4,4.1,4.5,7.8,9.1,11.5,13.9,3,3.9,6.1,7.6,9.2,11.4,5.2,6.2,10.1,12.5,14.9,18.9.5.6.9,1.2,1.4,1.8,16.6,21.9,32.5,44.2,47.6,67.2,1.1,1.6,2.2,3.2,3.2,4.8,4.8,7.1,9.5,14.3,14.1,21.4,8.8,13.5,17.6,26.9,26.8,40.1.6.8,1.1,1.6,1.7,2.5,11.7,17.2,26.4,30.6,44.1,40.1,24.9,2.7,46.9-16.8,66.1-30,17.5-12,35.2-23.8,53.8-33.9,1.5-.8,3-1.6,4.4-2.4,56.4-31.3,120.1-44,182.9-26.3,22.1,6.6,42.9,17.6,61.8,30.6.6.4,1.3.9,1.9,1.3,13.1,9,25.4,18.9,37.4,29.3,1.7,1.5,3.5,3,5.2,4.5,5.3,4.5,10.5,9,15.6,13.6,3.3,3,6.7,5.9,10.2,8.7,5.1,4.2,10,8.6,14.9,13.1,6,5.5,12.2,10.8,18.5,15.9,2.4,1.9,4.7,3.9,7.1,5.8,10.2,8.5,20.6,16.7,31.1,24.8,1.4,1.1,2.8,2.2,4.2,3.3,17,13.1,34.3,25.7,51.9,38,8.9,6.3,17.8,12.7,26.6,19.1,2.2,1.6,4.5,3.2,6.7,4.9,18.9,13.6,37.7,27.5,56,42,2.3,1.8,4.7,3.7,7,5.5,6.6,5.2,13.1,10.4,19.5,15.9,3.5,3,7.1,6,10.7,8.9,5.1,4.1,9.8,8.4,14.6,12.9,2.3,2.1,4.7,4.2,7,6.3,3.3,2.9,6.4,6,9.5,9.1,1.9,1.9,3.9,3.6,5.9,5.4,4.7,4.1,9,8.4,13.4,12.7l2.3,2.3c4.2,4.2,8.2,8.5,12,12.9,2.3,2.6,4.6,5.1,7,7.6,4.4,4.7,8.5,9.6,12.5,14.6,2,2.4,4,4.8,6.1,7.1,5.3,5.9,10.6,11.9,15,18.5-.5.3-1,.7-1.5,1-8.2,5.6-16.3,11.3-24.4,17-65.6,47.3-142.2,79.7-361.6,124.9-31.5,3.1-60.3,12.5-86.4,28.1-16.3,24.8-4.8,63.1-.3,90.4.6,3.6,1.2,7.2,1.8,10.8,0,.9.3,1.8.5,2.7,9.9,60.2,14.6,120.7,4,181.2-.2,1-.4,2-.5,2.9-8.1,44.7-27.3,85.9-59.5,118.1-.5.5-1,1.1-1.5,1.6-22.4,24.2-57.3,35.9-89.5,37.4-.8,0-1.6,0-2.4.1-42.1,1.1-83.6-15.8-118.6-38.1-.7-.5-1.4-.9-2.1-1.4-17.4-11.2-33.9-23.6-49.9-36.6-.9-.8-1.9-1.6-2.9-2.4-5.5-4.5-10.9-9-16.3-13.6-4.2-3.6-8.5-7.1-12.8-10.7-2.2-1.8-4.4-3.6-6.6-5.4-14.1-11.6-28.5-23.1-44.4-32-.8-.4-1.5-.9-2.3-1.3-21.3-11.9-44.1-20-68.7-20.7h-2c-43.6-1.5-87.3,9.2-129.8,17.8-20.3,4.1-40.7,7.9-61.2,11.2-.7,0-1.5.3-2.2.4-32.9,5.3-66.5,9.2-99.8,9.6h-4c-43.5.6-86.5-2.4-129-12.1-.9-.2-1.9-.4-2.8-.6-51.3-11.4-99.9-33.2-142.2-64.4-.6-.4-1.2-.8-1.7-1.3-8.6-6.3-16.6-13.2-24.6-20.2-1.5-1.4-3.1-2.7-4.6-4-.8-.7-1.6-1.4-2.5-2.2-.7-.6-1.4-1.2-2.1-1.8-.9-1-1.4-2.2-1.4-3.5-1-.3-2-.7-3-1-1.1-1.1-2.1-2.3-3.2-3.6-2.3-2.7-4.6-5.2-7.1-7.7-3.7-3.6-6.9-7.6-10.1-11.6-1.7-2.1-3.4-4.1-5.1-6.2-15.3-18.3-28-39-39.4-59.9-.4-.8-.8-1.5-1.3-2.3-42-75.9-59.2-164.4-78-248.2-5.1-22.5-10.2-45.1-15.7-67.5-.4-1.8-.9-3.7-1.3-5.5-7.3-29.8-14.6-59.6-22.2-89.3-.2-.9-.5-1.8-.7-2.8-2.3-8.9-4.5-17.8-6.8-26.8-8-31.5-15.7-63-22.5-94.8-.2-1.1-.5-2.1-.7-3.2-8.7-40.6-15.8-81.4-20-122.8,0-.8-.2-1.6-.3-2.5-2.1-21.4-2.7-42.7-2.7-64.2v-2.2c0-22.1.2-44,3.3-66,.1-.7.2-1.5.3-2.2,5.1-36.3,13.7-71.8,27.7-105.8.3-.8.7-1.6,1-2.5,11.2-26.7,26.6-52.1,45-74.5.5-.6.9-1.1,1.4-1.7,12.4-15,26.1-29.6,41.6-41.3,1.2-.9,2.4-1.8,3.6-2.8,23.1-17.9,48.9-32.4,76.4-42.2.9-.3,1.9-.7,2.8-1,78.1-27.8,161.9-24.5,355.2,41v.3h0Z"/>
</svg>