<?xml version="1.0" encoding="UTF-8"?>
<svg id="Layer_1" xmlns="http://www.w3.org/2000/svg" xmlns:xlink="http://www.w3.org/1999/xlink" version="1.1" viewBox="0 0 3000 3000">
  <!-- Generator: Adobe Illustrator 29.2.1, SVG Export Plug-In . SVG Version: 2.1.0 Build 116)  -->
  <defs>
    <style>
      .st0 {
        fill: #fff;
      }

      .st0, .st1 {
        fill-rule: evenodd;
      }

      .st1 {
        fill: gray;
      }
    </style>
  </defs>
  <path class="st1" d="M-.5-.5h3000v3000H-.5V-.5Z"/>
  <path class="st0" d="M585.5,509.5c75.1-2.4,147.1,11.4,216,41.5,67.1,29.7,128.8,67.7,185,114,144.8,123.3,249.3,274.8,313.5,454.5,29.2,83.8,45.7,169.9,49.5,258.5,3.1,0,5.6-1.6,7.5-4.5,52.7-71.3,122.2-118.1,208.5-140.5,61.1-15.1,123.1-21.1,186-18,146,6.2,282.7,44.9,410,116,75,43.2,139.4,99.1,193,167.5-182.8,72.6-369.8,85.5-561,38.5-4-.5-8-.7-12-.5,0,4.5,1.6,8.5,4.5,12,78.6,93.5,133.3,199.8,164,319,19.3,76.6,23.3,153.9,12,232-9,60.7-32.7,114.7-71,162-59.5,63.5-131.7,84.3-216.5,62.5-29.6-8.5-57.6-20.5-84-36-33.7-21.3-65.3-45.3-95-72-15.5-14.5-30.6-29.3-45.5-44.5-27.6-30-55.6-59.6-84-89-36.6-37.3-76.8-70.2-120.5-98.5-46.3-27.8-92.3-56.2-138-85-47.2-32.7-89.7-70.9-127.5-114.5-34.1-42.1-67.4-84.8-100-128-32-38.4-65.9-75.2-101.5-110.5-53.5-51.2-106.7-102.7-159.5-154.5-31.1-33.1-61.4-66.7-91-101-58.8-70.2-108.2-146.9-148-230-30.4-64.5-49.7-132.1-58-203-6.8-59.9-.2-118.2,20-175,32.5-81.2,90.7-134.7,174.5-160.5,22.8-6.3,45.8-10.5,69-12.5Z"/>
</svg>