<?xml version="1.0" encoding="UTF-8"?>
<svg id="Layer_1" xmlns="http://www.w3.org/2000/svg" xmlns:xlink="http://www.w3.org/1999/xlink" version="1.1" viewBox="0 0 3000 3000">
  <!-- Generator: Adobe Illustrator 29.2.1, SVG Export Plug-In . SVG Version: 2.1.0 Build 116)  -->
  <defs>
    <style>
      .st0 {
        fill: #fff;
      }

      .st0, .st1 {
        fill-rule: evenodd;
      }

      .st1 {
        fill: gray;
      }
    </style>
  </defs>
  <path class="st1" d="M-.5-.5h3000v3000H-.5V-.5Z"/>
  <path class="st0" d="M598.5,514.5c66.7-1.2,131.1,10.6,193,35.5,79.9,33,152.2,77.6,217,134,144.6,129,246.8,286.2,306.5,471.5,21.6,69.9,34.4,141.4,38.5,214.5.4,1.4,1.3,2.6,2.5,3.5,9.4-9.4,18-19.4,26-30,46.1-51.8,102.6-87.7,169.5-107.5,62.8-17.7,126.8-25,192-22,135.7,5.3,264,38.7,385,100,88,45.1,162.7,106.6,224,184.5-181.5,73-367.5,86.8-558,41.5-3.9-.8-7.8-.6-11.5.5-.7,3.3,0,6.3,2,9,36.3,45.3,68.3,93.7,96,145,52.9,100.1,80.7,206.8,83.5,320,0,53.2-8.8,104.9-26.5,155-18.3,50.1-48.8,91-91.5,122.5-45.2,29.4-94.5,39.7-148,31-44.8-8.4-86.1-25.1-124-50-31.1-21.1-60.4-44.4-88-70-45-45.6-90-91.3-135-137-29.7-27.3-61.3-52-95-74-41-24.5-82.3-48.5-124-72-64.6-38.3-121.1-86.4-169.5-144.5-29.1-36.5-57.4-73.5-85-111-30.1-37.8-62.1-74.2-96-109-60.3-59-120-118.6-179-179-61.8-65.6-116.8-136.3-165-212-36.3-58.9-65.3-121.2-87-187-20.1-62.2-28.4-125.8-25-191,4.2-66.7,26.9-126,68-178,41.2-46,92.4-75.2,153.5-87.5,17-3.1,34-5.3,51-6.5Z"/>
</svg>