<?xml version="1.0" encoding="UTF-8"?>
<svg id="Layer_1" xmlns="http://www.w3.org/2000/svg" xmlns:xlink="http://www.w3.org/1999/xlink" version="1.1" viewBox="0 0 3000 3000">
  <!-- Generator: Adobe Illustrator 29.2.1, SVG Export Plug-In . SVG Version: 2.1.0 Build 116)  -->
  <defs>
    <style>
      .st0 {
        fill: #fff;
      }

      .st0, .st1 {
        fill-rule: evenodd;
      }

      .st1 {
        fill: gray;
      }
    </style>
  </defs>
  <path class="st1" d="M-.5-.5h3000v3000H-.5V-.5Z"/>
  <path class="st0" d="M696.5,599.5c72.1.5,141.1,15.3,207,44.5,80.8,36.8,153.4,85.5,218,146,114.5,108.7,199.7,237.2,255.5,385.5,11.4,32.6,23.4,64.9,36,97,7.3,15.4,17.8,17.9,31.5,7.5,15.3-12,30.7-24,46-36,74.9-54.8,158.2-73.8,250-57,108.1,20.6,211.8,54.6,311,102,81.4,38.4,154.2,88.9,218.5,151.5,17.5,19.2,34.7,38.7,51.5,58.5-124.3,64.3-256.4,95.4-396.5,93.5-36.8-.8-73.7-1.2-110.5-1.5-6.9,0-12.8,2.5-17.5,7.5-2.1,7.8-1.4,15.5,2,23,14.6,31.6,28.9,63.2,43,95,29.4,68.7,46.8,140.4,52,215,4,59-4.7,116-26,171-17.8,43.1-46.3,76.9-85.5,101.5-38.5,20.5-79.1,26.5-122,18-33.4-7-64.8-19.4-94-37-46.5-29.5-89.8-63.1-130-101-24.9-21.3-51.3-40.6-79-58-30.9-16.8-63.6-28.8-98-36-43.2-8.1-86.6-15.8-130-23-57.8-10.5-112.8-29.2-165-56-46.1-25.4-86.2-58.2-120.5-98.5-26.1-32.4-49.4-66.8-70-103-29.3-55.3-59.6-109.9-91-164-48.7-77.1-97.1-154.4-145-232-43.3-71.9-78-147.9-104-228-21.3-67.1-30-135.8-26-206,4.5-62.9,24.8-119.9,61-171,48.7-60.5,111.9-95.6,189.5-105.5,12.8-1.6,25.5-2.7,38-3.5Z"/>
</svg>