<?xml version="1.0" encoding="UTF-8"?>
<svg id="Layer_1" xmlns="http://www.w3.org/2000/svg" xmlns:xlink="http://www.w3.org/1999/xlink" version="1.1" viewBox="0 0 3000 3000">
  <!-- Generator: Adobe Illustrator 29.2.1, SVG Export Plug-In . SVG Version: 2.1.0 Build 116)  -->
  <defs>
    <style>
      .st0 {
        fill: #fff;
      }

      .st0, .st1 {
        fill-rule: evenodd;
      }

      .st1 {
        fill: gray;
      }
    </style>
  </defs>
  <path class="st1" d="M-.5-.5h3000v3000H-.5V-.5Z"/>
  <path class="st0" d="M666.5,567.5c64.4.8,126.4,13.3,186,37.5,78.9,33.1,150.2,77.8,214,134,165.9,150.3,273.4,335.4,322.5,555.5,1.8,7.8,5,15,9.5,21.5,5.9,2.4,11.3,1.4,16-3,22.9-21.9,47.2-41.9,73-60,59.4-37.4,124.4-55.6,195-54.5,159.8,7.5,309.4,50,449,127.5,78.4,43.9,145.4,101.4,201,172.5-133.2,63.1-273.6,90.3-421,81.5-33.9-2.5-67.7-5.3-101.5-8.5-18.8-1.2-23.8,6.5-15,23,22.5,38.4,43.5,77.8,63,118,34.1,73.7,54.4,151,61,232,5.2,63.7-3.5,125.3-26,185-16.8,41.8-43.3,75.9-79.5,102.5-43.3,27.7-90.3,36.7-141,27-32.1-6.6-62.4-17.9-91-34-32.9-19.6-63.9-42-93-67-35.4-32.7-71.4-64.7-108-96-38.2-30.4-80.5-53.8-127-70-36.6-11.7-73.2-23.1-110-34-60.2-17.8-116.2-44.1-168-79-30.6-22.3-58.5-47.8-83.5-76.5-18.5-22.2-35.8-45.2-52-69-34.2-55.1-69.5-109.5-106-163-46.5-63.5-94.2-126.2-143-188-38.6-51.3-74.3-104.6-107-160-35.4-61.1-63.4-125.4-84-193-17.6-59.1-24.9-119.4-22-181,3.3-67.4,25.3-127.8,66-181,47.7-54.8,107.9-87,180.5-96.5,14.1-1.6,28.1-2.7,42-3.5Z"/>
</svg>