<?xml version="1.0" encoding="UTF-8"?>
<svg id="Layer_1" xmlns="http://www.w3.org/2000/svg" xmlns:xlink="http://www.w3.org/1999/xlink" version="1.1" viewBox="0 0 3000 3000">
  <!-- Generator: Adobe Illustrator 29.2.1, SVG Export Plug-In . SVG Version: 2.1.0 Build 116)  -->
  <defs>
    <style>
      .st0 {
        fill: #fff;
      }

      .st0, .st1 {
        fill-rule: evenodd;
      }

      .st1 {
        fill: gray;
      }
    </style>
  </defs>
  <path class="st1" d="M-.5-.5h3000v3000H-.5V-.5Z"/>
  <path class="st0" d="M543.5,466.5c73.7-1.6,144.4,12.2,212,41.5,78.8,34.9,150.1,80.9,214,138,150.4,137.8,254.9,305,313.5,501.5,19.7,67.3,30.2,135.9,31.5,206-.2,8.7-.3,17.3-.5,26-1,13.8-2.3,27.4-4,41,16.8-33.4,39.3-62.6,67.5-87.5,53.7-45.5,115.1-76.9,184-94,90.6-22.1,182.3-27.7,275-17,128.9,13.9,248.9,53.9,360,120,66.6,41.8,124.4,93.6,173.5,155.5-116.9,42.9-238.1,61.8-363.5,56.5-78.9-3-155.6-17.7-230-44-1.3-.7-2.7-.7-4,0,107.6,107,179.1,234.8,214.5,383.5,19,79,22.7,158.6,11,239-8.1,53-26.4,102-55,147-64.8,91.4-151.6,122.5-260.5,93.5-32.8-10-63.4-24.4-92-43-46.7-32-89.2-69.2-127.5-111.5-41.1-47.5-81.1-95.8-120-145-30.4-36.4-62.9-70.9-97.5-103.5-38.5-34.1-76.9-68.4-115-103-29-28-56.2-57.5-81.5-88.5-34.1-44.8-70.1-88.1-108-130-22.3-22.6-45.4-44.1-69.5-64.5-62.7-50-125.3-100-188-150-83.9-68.9-160-145.4-228.5-229.5-50.3-63.6-92.3-132.6-126-207-26.8-60.3-43.8-123.3-51-189-6.1-57.1.3-112.8,19-167,35.5-89.8,100.3-145.6,194.5-167.5,17.3-3.5,34.7-6,52-7.5Z"/>
</svg>