<?xml version="1.0" encoding="UTF-8"?>
<svg id="Layer_1" xmlns="http://www.w3.org/2000/svg" xmlns:xlink="http://www.w3.org/1999/xlink" version="1.1" viewBox="0 0 3000 3000">
  <!-- Generator: Adobe Illustrator 29.2.1, SVG Export Plug-In . SVG Version: 2.1.0 Build 116)  -->
  <defs>
    <style>
      .st0 {
        fill: #fff;
      }

      .st0, .st1 {
        fill-rule: evenodd;
      }

      .st1 {
        fill: gray;
      }
    </style>
  </defs>
  <path class="st1" d="M-.5-.5h3000v3000H-.5V-.5Z"/>
  <path class="st0" d="M520.5,439.5c59.1-1,116.4,8.5,172,28.5,64.7,23.7,124.7,55.7,180,96,76,56,142.8,121.5,200.5,196.5,80.2,104.8,140.9,220.4,182,347,25.7,79.5,39.5,161,41.5,244.5-.4,24-2.3,47.8-5.5,71.5,15.6-28.3,35.4-53.5,59.5-75.5,53.5-47.1,114.9-80.8,184-101,91.3-26.1,184.3-35.4,279-28,141.8,9.8,273.5,51.2,395,124,45.1,28,86.3,61.2,123.5,99.5,16.4,18,32.4,36.4,48,55-142.6,48.6-289.1,63.1-439.5,43.5-59.6-8.2-116.9-23.9-172-47,34.6,28.3,65.4,60.1,92.5,95.5,98,129.7,153.4,276,166,439,3.9,62.5-2.8,123.8-20,184-16.7,57.4-46.6,106.5-89.5,147.5-55.6,47.2-119.6,64.9-192,53-44.5-8.8-85.9-25.5-124-50-42.3-28-80.8-60.8-115.5-98.5-21.8-24.4-42.8-49.4-63-75-31.4-42.4-62.4-85.1-93-128-31.8-42.5-65.2-83.8-100-124-43.2-46.2-84.5-93.9-124-143-31.1-42.8-64.1-84.1-99-124-26.7-27-54.8-52.2-84.5-75.5-71.7-51-143.3-102-215-153-82.2-60.9-158.4-129-228.5-204.5-59.2-65.2-109.9-136.6-152-214-31.7-59.8-54.7-122.8-69-189-11-54.8-12.3-109.8-4-165,10.8-64.9,40.3-119.4,88.5-163.5,51.8-42,111.1-64.2,178-66.5Z"/>
</svg>