<?xml version="1.0" encoding="UTF-8"?>
<svg id="Layer_1" xmlns="http://www.w3.org/2000/svg" version="1.1" viewBox="0 0 3000 3000">
  <!-- Generator: Adobe Illustrator 29.2.1, SVG Export Plug-In . SVG Version: 2.1.0 Build 116)  -->
  <defs>
    <style>
      .st0 {
        fill: gray;
      }

      .st1 {
        fill: #fff;
      }
    </style>
  </defs>
  <path class="st0" d="M0,0h3000v3000H0V0Z"/>
  <path class="st1" d="M714.2,621.8h16.4c18.3,0,36.1.7,54.2,3.3,1.2.2,2.4.3,3.7.5,67.4,9.7,133.7,33.7,192.9,67.1,2.3,1.3,4.6,2.5,6.9,3.8,19.5,10.5,38.3,22.3,56.4,35.1,2.1,1.5,4.2,3,6.4,4.4,11.5,8,22.7,16.5,33.8,25.1.7.5,1.4,1.1,2.1,1.6,7.9,6.1,15.7,12.4,23.3,19,1.7,1.5,3.4,2.9,5.2,4.4,6.7,5.7,13.2,11.5,19.7,17.4,2.7,2.5,5.4,4.9,8.1,7.3,3.7,3.4,7.3,6.8,10.8,10.4,1.8,1.8,3.7,3.5,5.7,5.1,7.7,6.7,14.9,14,21.5,21.8,2.2,2.4,4.5,4.7,6.8,7,3.5,3.5,6.8,7,10,10.8,2,2.3,4.2,4.6,6.3,6.9,5,5.3,9.8,10.8,14.3,16.5,2.7,3.4,5.6,6.7,8.4,9.9,4.8,5.5,9.4,11.2,13.9,16.9.5.6,1,1.2,1.5,1.9,40.2,51.1,75,105.8,105.5,163.1l1.6,3c8.2,15.3,15.7,30.8,22.8,46.6,1.4,3.1,2.9,6.2,4.3,9.4,5,10.7,9.7,21.4,14.3,32.3.3.6.5,1.3.8,1.9,2.8,6.7,5.5,13.3,8.3,20,7,17.4,14.5,34.6,22.5,51.5.4.9.9,1.7,1.3,2.6,3.7,6.8,8,13.7,15.3,16.8,8.2,2.1,15.4-.9,22.4-5,9.6-6.2,18.7-13.1,27.7-20.1,51.6-40,112.9-71.3,179.5-73h2.3c74.3-2.3,146.5,25,214.7,51.1.8.3,1.6.6,2.4.9,71.1,27.2,141.6,58,207.6,96.1.6.3,1.2.7,1.8,1,18.7,10.8,32.2,19.1,40.5,24.8,2.8,1.9,5.6,3.7,8.3,5.6,20.5,13.6,40.7,27.7,59.4,43.7,1.8,1.5,3.6,2.9,5.4,4.4,10.6,8.7,20.9,17.7,30.9,27,1.8,1.7,3.6,3.4,5.4,5,1.2,1.2,2.5,2.3,3.8,3.5.6.5,1.2,1.1,1.7,1.6,5.2,4.8,10.1,9.7,14.8,15,3,3.3,6,6.5,9,9.8,5.4,5.8,10.6,11.6,15.5,17.8,3.5,4.3,7.2,8.5,10.8,12.7,1,1.2,2.1,2.4,3.1,3.6,1,1.1,2,2.3,3,3.4.9,1.1,2.1,2.5,3.5,4.3-.7,2-1.5,3.4-2.6,4.1-.7.3-1.4.7-2.2,1l-2.4,1.2c-.9.4-1.7.8-2.6,1.3-1.9.9-3.7,1.8-5.6,2.7-.9.5-1.9.9-2.8,1.4-3.1,1.5-6.1,3.2-9.2,4.8-34,18.4-70,33.1-106.5,45.5-1.1.4-2.1.7-3.3,1.1-53.7,18.4-110.4,29.8-166.7,35.9-1.1,0-2.3.2-3.4.4-30.4,3.3-60.8,4.7-91.4,5.1h-3.7c-11.5.2-22.9.3-34.4.4-6.4,0-12.7.2-19.1.3h-7.2c-16.3-.3-31.9,2.2-46.8,7.6-4.5,5.8-4.2,11.3-3.6,18.3,2.8,18.4,11.8,36.5,18.8,53.6,31.5,76.9,59.7,159.1,60,243.2v20.6c.2,25.5-1.4,50.6-6.5,75.6,0,.7-.3,1.5-.4,2.3-2.8,14.2-6.6,27.9-11.4,41.6-.3.8-.5,1.6-.8,2.4-1.6,4.6-3.3,9.1-5.2,13.6-.3.7-.6,1.4-.9,2.1-7.2,17.6-16.7,33.8-28.1,48.9-.7.9-1.3,1.7-2,2.6-29.1,37.4-67.6,58.6-114,65.8-2.7.3-5.3.5-8,.5h-2.2c-66.9,2.1-128.1-29.6-180.2-68.9-1.6-1.2-3.1-2.3-4.7-3.5-11.2-8.4-22.2-17-32.8-26.1-2.8-2.4-5.7-4.8-8.6-7.1-4-3.3-8-6.6-12-10-4.8-4.1-9.6-8.1-14.5-12-2.3-1.9-4.5-3.7-6.8-5.6-26.2-21.9-54.1-42.5-85.2-56.9-.7-.3-1.4-.6-2.1-1-27.4-12.6-56.9-19.2-86.7-23.4-.8,0-1.5-.2-2.3-.3-21.5-3-43.2-4.7-64.8-6.6-9.7-.8-19.5-1.7-29.2-2.5-1,0-2.1-.2-3.2-.3-24.5-2.2-48.9-4.6-73.1-8.7-.7,0-1.5-.2-2.2-.4-27.2-4.5-54-10.7-80.4-18.9-1-.3-2-.6-3.1-1-46.7-14.6-91.4-36.6-129.9-67-.8-.6-1.6-1.3-2.5-1.9-2.5-2-5-4-7.5-6.1-.9-.8-1.9-1.6-2.9-2.4-6.5-5.4-12.8-11-19-16.8-.7-.7-1.4-1.3-2.1-2-4-3.8-7.8-7.8-11.4-12-2.1-2.4-4.3-4.6-6.6-6.8-8.2-8.6-15.8-17.5-23-27-.5-.7-1-1.3-1.5-2-6-7.9-11.9-15.9-17.3-24.2-1.4-2.1-2.8-4.2-4.2-6.3-7.4-11.3-14.4-22.7-21-34.5-.8-1.4-1.6-2.8-2.4-4.2-18.3-32.4-35.1-66-50.4-99.9-2.2-4.9-4.5-9.6-7-14.4-3.5-7-6.9-14-10.3-21-4.9-10.2-9.9-20.4-15-30.5l-2.7-5.4c-.6-1.3-1.3-2.5-1.9-3.8-2.2-4.4-4.4-8.9-6.6-13.3-5.9-12-11.9-23.8-18.4-35.5-3.6-6.4-7-12.9-10.3-19.5-4.5-8.7-9.2-17.2-14.1-25.7-4.1-7.2-8.1-14.5-12-21.8-4.9-9.2-9.9-18.2-15-27.3-10.1-17.7-19.9-35.6-29.6-53.6-3.2-6.1-6.5-12.2-9.9-18.2-8.5-15.5-16.5-31.2-24.5-46.9l-.9-1.8c-8.5-16.6-16.5-33.3-24.2-50.3-.9-1.9-1.8-3.9-2.6-5.8-22.6-49.7-41.9-101.2-55.2-154.1-.2-.7-.3-1.3-.5-2-20.2-80.4-28-168.2-5.5-249,.3-1.1.6-2.1.9-3.2,6.2-21.9,14.5-42.8,25.1-62.8.4-.7.7-1.4,1.1-2.1,10.4-20,23.6-37.9,38.7-54.5,2.1-2.3,4.2-4.7,6.2-7.1,3.1-3.4,6.3-6.5,9.8-9.5,1.5-1.3,3-2.7,4.5-4.1,12.2-11.6,26.3-21,40.8-29.7,1.2-.7,2.5-1.5,3.7-2.3,41.9-25.8,95.4-38.9,144.4-39.1h.3,0Z"/>
</svg>