<?xml version="1.0" encoding="UTF-8"?>
<svg id="Layer_1" xmlns="http://www.w3.org/2000/svg" xmlns:xlink="http://www.w3.org/1999/xlink" version="1.1" viewBox="0 0 3000 3000">
  <!-- Generator: Adobe Illustrator 29.2.1, SVG Export Plug-In . SVG Version: 2.1.0 Build 116)  -->
  <defs>
    <style>
      .st0 {
        fill: #fff;
      }

      .st0, .st1 {
        fill-rule: evenodd;
      }

      .st1 {
        fill: gray;
      }
    </style>
  </defs>
  <path class="st1" d="M-.5-.5h3000v3000H-.5V-.5Z"/>
  <path class="st0" d="M649.5,562.5c64.8-1,127.5,10.2,188,33.5,87.5,35.3,165.9,84.6,235,148,164.2,152.9,269.1,340.1,314.5,561.5,1.5,6.2,4.3,11.8,8.5,16.5,1.1.6,2.3,1.1,3.5,1.5,3.5-.8,6.7-2.3,9.5-4.5,23.9-22.9,49.2-43.9,76-63,47.9-30.4,100.2-48.1,157-53,62.6-4,124.6.3,186,13,114.8,21.3,222.5,61.3,323,120,71.4,42.6,132.8,96.8,184,162.5-138.9,64.8-284.9,91-438,78.5-29.7-2.9-59.3-5.7-89-8.5-16-2-20.8,4.3-14.5,19,18.1,31.1,35.7,62.4,53,94,37.7,72.7,62.3,149.7,74,231,8.6,62,5.3,123.3-10,184-12,45.8-34.1,85.6-66.5,119.5-48.5,45.1-105.5,61.4-171,49-38.8-8.4-74.8-23.4-108-45-29.9-19.5-58.3-41.1-85-65-32-29.7-64.4-59-97-88-40.2-33.6-85.2-59.3-135-77-34.2-11.5-68.6-22.9-103-34-56.7-18.5-109.7-44.2-159-77-38.3-27.7-72.2-60.2-101.5-97.5-34-45.9-66-93.3-96-142-30.1-44.8-61.8-88.4-95-131-50.2-61.5-98.9-124.2-146-188-42.6-59.1-79.6-121.8-111-188-28.9-61.5-48.6-125.8-59-193-10.3-65.6-5.3-129.9,15-193,35.8-95.1,103.3-153.9,202.5-176.5,18.3-3.6,36.7-6.1,55-7.5Z"/>
</svg>