<?xml version="1.0" encoding="UTF-8"?>
<svg id="Layer_1" xmlns="http://www.w3.org/2000/svg" version="1.1" viewBox="0 0 3000 3000">
  <!-- Generator: Adobe Illustrator 29.2.1, SVG Export Plug-In . SVG Version: 2.1.0 Build 116)  -->
  <defs>
    <style>
      .st0 {
        fill: gray;
      }

      .st1 {
        fill: #fff;
      }
    </style>
  </defs>
  <path class="st0" d="M0,0h3000v3000H0V0Z"/>
  <path class="st1" d="M1001.8,719.9c2.6,1.3,5.2,2.6,7.8,4,50.9,25.9,98.1,59.1,141.6,96.1,3.5,3,7.1,5.9,10.7,8.8,3.7,3,7.1,6.2,10.5,9.6,1.7,1.7,3.4,3.2,5.1,4.7,11.8,10.3,22.9,21.3,34,32.3.6.6,1.2,1.2,1.9,1.9,7.9,7.8,13.6,13.8,17.1,18,3,3.5,6.3,6.8,9.5,10.1,5.3,5.6,10.3,11.2,15.1,17.2,2,2.5,4.2,4.9,6.4,7.3,4.6,5,8.8,10.4,12.9,15.8,2.3,3,4.7,5.9,7.1,8.7,10.8,13.1,20.8,26.9,30.6,40.7.5.7,1,1.5,1.6,2.2,34.9,48.9,65.6,100.9,93.1,154.4,5.2,10,10.5,19.9,16,29.8,1.4,2.6,2.9,5.3,4.3,7.9,8.4,16.5,19.6,30.5,33.5,41.9,11,3.2,19.8-.6,29.5-5.7,10.4-5.8,20.1-12.9,29.8-19.8,44.4-31.4,91.9-58.1,146.3-66.7.8,0,1.5-.2,2.3-.4,53.1-7.9,104.9,6.1,152.7,28.4,1.6.7,3.1,1.4,4.7,2.1,10.7,4.9,21,10.3,31.3,15.9.9.5,1.9,1,2.8,1.5,11.9,6.4,23.8,12.9,35.5,19.6,6.8,3.9,13.7,7.7,20.6,11.4,8.9,4.8,17.6,9.7,26.4,14.6,6.8,3.9,13.7,7.7,20.6,11.4,8.9,4.8,17.7,9.7,26.5,14.7,6.4,3.7,12.9,7.2,19.4,10.7,10.7,5.8,21.3,11.9,31.8,18.1,3.5,2,6.9,4,10.4,6.1,33.4,19.4,65.9,40.1,97.2,62.7,1.7,1.2,3.4,2.4,5.1,3.7,13.4,9.4,26,19.7,38.7,30.1,1.6,1.3,3.2,2.6,4.8,3.9,5.9,4.8,11.5,9.7,17.1,14.9,2.5,2.3,5.1,4.6,7.6,6.9,4.6,4.1,9.1,8.3,13.6,12.5.7.6,1.4,1.3,2.1,1.9,1.9,1.8,3.8,3.5,5.6,5.3s1.1,1,1.6,1.5c1.2,1.1,2.3,2.3,3.4,3.5v2h2c1,1,2.1,2.2,3.2,3.6,2.3,2.8,4.7,5.4,7.3,7.9,3.7,3.7,7.1,7.5,10.5,11.5,1,1.2,2,2.3,3,3.5,5.8,6.6,11.5,13.3,17,20.2,1.8,2.2,3.7,4.3,5.6,6.4.8,1,1.6,2,2.4,3-1.2,3.6-2,3.9-5.2,5.8-.9.5-1.8,1-2.7,1.6-1,.6-1.9,1.1-2.9,1.7s-2,1.2-3,1.8c-2.1,1.2-4.1,2.4-6.2,3.6-2.6,1.5-5.2,3-7.8,4.5-79.3,46.6-165.3,75.5-357.8,102.6-.9,0-1.8,0-2.7.2-9,.7-17.9,1.3-26.9,1.9-27.6.5-53.3,6.3-77.2,17.6-6.5,11-5.2,23-2.7,34.9.2,1.1.4,2.1.7,3.2,2.8,12.9,6.6,25.6,10.4,38.2,2.2,7.2,4.3,14.4,6.4,21.5.2.7.4,1.4.6,2.1,13.8,46.8,23.8,94,28,142.7,0,.8,0,1.6.2,2.4,4.2,48.9,0,101.1-16.2,147.6-.3.7-.5,1.5-.8,2.2-16.6,47.9-46.6,89.9-92.9,112.6-44,20.7-91.9,16-136.6,0-25.2-9.1-48.8-22.7-70.7-37.9-.7-.5-1.3-.9-2-1.4-14.8-10.3-29.2-21-43.1-32.4-3.6-3-7.3-5.8-11-8.7-4.7-3.7-9.3-7.5-13.9-11.4-6.2-5.4-12.6-10.5-19.1-15.5-2-1.6-4-3.2-6.1-4.8-16-12.7-32.8-24.1-50.9-33.7-1.1-.6-2.3-1.2-3.4-1.9-33.8-17.7-71.5-22.4-109.2-22.5h-3.2c-20.4,0-40.7,1-61.1,2-29.9,1.6-59.6,2.7-89.5,2.7h-7.4c-86.9,0-174-14.9-250.2-58.4-.9-.5-1.7-1-2.6-1.5-12.4-7.1-24-14.9-35.4-23.5-.7-.5-1.3-1-2-1.5-6.8-5.2-13.3-10.5-19.5-16.2-2-1.9-4.1-3.7-6.2-5.4-4.8-4.2-9.4-8.7-13.9-13.3-.8-.8-1.6-1.6-2.5-2.4-4.9-4.9-9.5-9.9-14-15.1-.9-1-1.7-2-2.6-3-17.3-20-32.2-42.2-45.4-65-.3-.6-.7-1.2-1.1-1.8-24.8-42.9-43.1-88.6-60.1-135-.7-2-1.5-4-2.2-6-4.3-11.7-8.6-23.5-12.9-35.2-24.1-66.7-49.9-132.6-77.1-198-22.2-53.5-44-107.1-62.7-161.9-.3-.8-.5-1.6-.8-2.4-26.5-78-45.5-159.3-45.4-242v-3.1c0-15.9.4-31.7,2.2-47.5.1-1.1.3-2.3.4-3.5,9.5-81,42.6-161.8,107.3-214.4,2.7-2.1,5.5-4.1,8.3-6.2,1.3-1,2.6-1.9,3.9-2.9,40.1-29.3,86.9-47.4,136.1-54.1,1.1,0,2.2-.3,3.3-.5,92.5-12,186.6,11.5,283.5,58.3h.3,0Z"/>
</svg>