<?xml version="1.0" encoding="UTF-8"?>
<svg id="Layer_1" xmlns="http://www.w3.org/2000/svg" xmlns:xlink="http://www.w3.org/1999/xlink" version="1.1" viewBox="0 0 3000 3000">
  <!-- Generator: Adobe Illustrator 29.2.1, SVG Export Plug-In . SVG Version: 2.1.0 Build 116)  -->
  <defs>
    <style>
      .st0 {
        fill: #fff;
      }

      .st0, .st1 {
        fill-rule: evenodd;
      }

      .st1 {
        fill: gray;
      }
    </style>
  </defs>
  <path class="st1" d="M-.5-.5h3000v3000H-.5V-.5Z"/>
  <path class="st0" d="M649.5,551.5c62.6.6,122.9,12.4,181,35.5,61.5,24.9,118.5,57.2,171,97,135.4,106.1,237.9,237.9,307.5,395.5,32.5,75.5,55.8,153.9,70,235,1.3,6.7,3.8,12.8,7.5,18.5l3,1.5c3.3-1,6.3-2.5,9-4.5,23.9-24.9,49.9-47.3,78-67,65.9-41.2,137.9-60.4,216-57.5,152.9,4.1,296.9,41.9,432,113.5,83.9,44.7,155.2,104.5,214,179.5-135.5,61.3-277.5,86.5-426,75.5-32.8-2.7-65.4-6.4-98-11-7.3-.7-14.7-.7-22,0-3.6,2.2-4.8,5.3-3.5,9.5,2.1,5.1,4.4,10.1,7,15,33,49.2,61.3,101.2,85,156,30.7,73.3,48.1,149.6,52,229,2.6,55.6-5.4,109.6-24,162-16.8,46.7-44.9,84.9-84.5,114.5-46,29.9-96,39.2-150,28-36.1-7.9-69.7-21.5-101-41-32.3-20.3-62.6-43.3-91-69l-93-87c-40.2-36.3-85.2-65.3-135-87-37.1-14.9-74.4-29.3-112-43-62.9-23.4-120.2-56.1-172-98-42.7-38.6-79.9-81.8-111.5-129.5-44.8-69.2-93.2-135.8-145-200-58.9-67.6-115.6-136.9-170-208-43.9-59.3-82.2-122.3-115-189-27.4-56.8-47-116.1-59-178-13.7-69.1-10.7-137.5,9-205,35.2-101.2,105.3-162.7,210.5-184.5,20-3.5,40-5.7,60-6.5Z"/>
</svg>