<?xml version="1.0" encoding="UTF-8"?>
<svg id="Layer_1" xmlns="http://www.w3.org/2000/svg" xmlns:xlink="http://www.w3.org/1999/xlink" version="1.1" viewBox="0 0 3000 3000">
  <!-- Generator: Adobe Illustrator 29.2.1, SVG Export Plug-In . SVG Version: 2.1.0 Build 116)  -->
  <defs>
    <style>
      .st0 {
        fill: #fff;
      }

      .st0, .st1 {
        fill-rule: evenodd;
      }

      .st1 {
        fill: gray;
      }
    </style>
  </defs>
  <path class="st1" d="M-.5-.5h3000v3000H-.5V-.5Z"/>
  <path class="st0" d="M602.5,525.5c73.3-2.4,143.6,10.7,211,39.5,86,37.5,163,88.1,231,152,140,133.3,236.5,293.5,289.5,480.5,13.1,50.9,22.1,102.6,27,155,.4,3.2,1.6,6,3.5,8.5,1.8.5,3.5.2,5-1,14.3-16,29-31.7,44-47,63.4-56.5,137.7-88.8,223-97,177.9-13.3,345.6,22.1,503,106,58.2,31.5,110.7,70.7,157.5,117.5,17.9,19.5,35.4,39.4,52.5,59.5-63.7,25.7-129.4,44.7-197,57-91.8,15.1-183.8,16.4-276,4-28.7-4.7-57.4-9.6-86-14.5-5.5,0-7.4,2.8-5.5,8,15.5,23.7,31.5,47,48,70,57.3,87.4,95.3,182.7,114,286,12.2,67.6,11.2,134.9-3,202-11.1,50.6-33.1,95.6-66,135-52.2,55.6-116.1,76.5-191.5,62.5-32-6.8-62.4-18.1-91-34-46.6-27.7-89.3-60.7-128-99-33.7-33.9-67.4-67.6-101-101-36.3-33.6-76-62.6-119-87-46.5-23.9-92.8-48.3-139-73-56.9-32.6-107.1-73.8-150.5-123.5-13.4-15.7-26.4-31.7-39-48-48.5-70.3-101.9-137-160-200-54.4-55.7-108-112-161-169-54.9-60.9-104.3-125.9-148-195-36-58.6-65-120.6-87-186-17.3-53.5-26.5-108.3-27.5-164.5-.5-56.5,11.7-110,36.5-160.5,39.8-72.4,100.3-117.6,181.5-135.5,16.3-3.4,32.7-5.9,49-7.5Z"/>
</svg>