<?xml version="1.0" encoding="UTF-8"?>
<svg id="Layer_1" xmlns="http://www.w3.org/2000/svg" xmlns:xlink="http://www.w3.org/1999/xlink" version="1.1" viewBox="0 0 3000 3000">
  <!-- Generator: Adobe Illustrator 29.2.1, SVG Export Plug-In . SVG Version: 2.1.0 Build 116)  -->
  <defs>
    <style>
      .st0 {
        fill: #fff;
      }

      .st0, .st1 {
        fill-rule: evenodd;
      }

      .st1 {
        fill: gray;
      }
    </style>
  </defs>
  <path class="st1" d="M-.5-.5h3000v3000H-.5V-.5Z"/>
  <path class="st0" d="M632.5,546.5c74.9-.9,146.6,14,215,44.5,51.4,23.5,99.7,51.8,145,85,129.4,100.2,229.2,224.4,299.5,372.5,41.6,88.9,69.9,181.9,85,279,.9,4.3,2.7,8.1,5.5,11.5,3.3.7,6.3,0,9-2,15.7-15,31.3-30,47-45,56.2-47.3,121.2-74.6,195-82,62.3-5.7,124.3-3.3,186,7,121.2,18.7,234.5,59.1,340,121,70.1,42.3,130.5,95.8,181,160.5-143.9,63.9-294.2,87.7-451,71.5-30.2-3.7-60.4-7.5-90.5-11.5-12.3.8-14.9,6.5-8,17,22,34,43,68.7,63,104,40.8,76.3,67.1,157.3,79,243,8.1,60.2,5.5,119.8-8,179-12.8,55.1-39.6,102-80.5,140.5-49.9,40.6-106.6,54.3-170,41-37.9-9-73.3-24-106-45-35.7-24-69.3-50.7-101-80-30-29-60.4-57.7-91-86-36.6-32.2-77.3-58.6-122-79-38.8-16.6-77.8-32.6-117-48-76.3-30.2-142.8-74.7-199.5-133.5-18.4-21.1-36.1-42.8-53-65-37.5-55.2-76.2-109.5-116-163-14.7-18-29.3-36-44-54-59.6-66.2-116.9-134.2-172-204-42.7-55.4-80.7-114.1-114-176-34-63.8-58.4-131.1-73-202-13.9-66.3-12.6-132.3,4-198,28.1-95.4,89.2-158.6,183.5-189.5,26-7.3,52.3-11.8,79-13.5Z"/>
</svg>