<?xml version="1.0" encoding="UTF-8"?>
<svg id="Layer_1" xmlns="http://www.w3.org/2000/svg" version="1.1" viewBox="0 0 3000 3000">
  <!-- Generator: Adobe Illustrator 29.2.1, SVG Export Plug-In . SVG Version: 2.1.0 Build 116)  -->
  <defs>
    <style>
      .st0 {
        fill: gray;
      }

      .st1 {
        fill: #fff;
      }
    </style>
  </defs>
  <path class="st0" d="M0,0h3000v3000H0V0Z"/>
  <path class="st1" d="M915,655c1,.4,2,.9,3.1,1.4,24.8,10.9,49,23,72.2,37,2.5,1.5,5,3,7.5,4.4,38.2,22.2,73.6,49.5,107.2,78.2.6.5,1.2,1,1.8,1.6,8.3,7.1,16.5,14.3,24.4,21.8,1.8,1.7,3.7,3.4,5.6,5.2,8.4,7.8,16.7,15.8,24.8,24,.9.9,1.8,1.8,2.8,2.8,4.5,4.5,8.9,9.1,13.1,14,1.9,2.2,3.9,4.2,6,6.2,4,4,7.8,8.2,11.5,12.5.9,1,1.8,2.1,2.7,3.1,2,2.4,4.1,4.8,6.1,7.2,2.1,2.5,4.2,4.9,6.4,7.4,5.8,6.7,11.4,13.4,16.8,20.3.8,1,1.6,2,2.4,3,2.9,3.7,5.8,7.3,8.6,11,.6.8,1.2,1.6,1.8,2.4,8.5,10.9,16.6,22,24.3,33.5,2.3,3.4,4.6,6.7,7,9.9,26.2,35.7,48.2,74.9,68.3,114.3,1.8,3.4,3.6,6.8,5.4,10.2,7,13,13.1,26.4,19.1,39.8.5,1,.9,2,1.4,3.1,13.2,29.2,24.8,59.2,36.2,89.2,3.6,9.5,7.3,18.8,11.2,28.1.4.9.7,1.7,1.1,2.6,3.9,9.4,9.2,17.8,15.9,25.2,5.8,2.3,10.4,2,16.2-.2,12.9-6.6,24.3-16.3,35.7-25.2,56.8-44.5,122-74.1,195.1-74h2.3c35.8,0,71.2,6.2,105.8,15.2.7.2,1.5.4,2.2.6,62.3,16.1,123.4,37.7,182.8,62.4.7.3,1.4.6,2.1.9,21.3,8.9,42.3,18.4,63.1,28.3,3.3,1.6,6.7,3.2,10,4.7,15.2,7.1,30,15,44.7,23.1,1.1.6,2.3,1.2,3.4,1.9,12.1,6.6,24,13.4,35.6,20.9,2.1,1.4,4.3,2.7,6.4,4,19.1,11.9,37.6,24.7,55.6,38.2.6.5,1.2.9,1.8,1.4,18.9,14.3,37,29.6,54.3,45.9,1.9,1.8,3.8,3.5,5.7,5.3,8.3,7.6,16,15.4,23.5,23.7,1.6,1.8,3.2,3.5,4.9,5.3,5.3,5.7,10.5,11.5,15.3,17.6,3.5,4.3,7.2,8.5,10.8,12.7,1.5,1.8,3.1,3.5,4.6,5.3.5.6,1,1.1,1.5,1.7,2.3,2.7,3.5,4.8,3.5,6.3-11.3,6.3-22.9,11.9-34.6,17.4-2.9,1.4-5.8,2.8-8.8,4.2-76.2,36.9-158.9,59.8-268.7,72.6-.8,0-1.6.2-2.4.2-41.1,4.1-82.3,3.8-123.5,3.6h-48.5c-10.3,0-19.4,1.2-28.5,6.2h-2c-7.5,22.5,9.6,48.7,18.5,68.7,10.9,24.8,21.6,49.7,30.5,75.3.2.7.5,1.3.7,2,28.8,82.9,44.9,170.3,3.3,361-8.7,17.3-20.3,33.2-33.5,47.3-1.7,1.7-3.2,3.6-4.7,5.5-.6.7-1.2,1.4-1.8,2.2h-2c-.3,1-.7,2-1,3-3.5,3.2-7.3,6.1-11,9-.9.8-1.9,1.5-2.8,2.3-7.9,6.2-16.3,11-25.2,15.7-.9.5-1.8,1-2.7,1.5-42.4,22.3-93.3,20.1-138,6.7-41.3-13-79.2-35.9-113.3-62.2-1.4-1-2.7-2.1-4.1-3.1-10.9-8.3-21.6-16.9-32-25.8-3.4-2.9-6.8-5.7-10.2-8.5-5.1-4.2-10.1-8.5-15.1-12.8-4.5-3.9-9.1-7.8-13.8-11.6-2.5-2-5-4.1-7.4-6.2-71.3-60.9-146.9-82.6-238.4-93.9-44.6-5.5-89.2-11.3-132.9-22.1-1.2-.3-2.5-.6-3.8-.9-51.6-13.1-102.4-33.5-146.2-64.1-1.3-.9-2.6-1.8-3.9-2.7-12.9-8.9-25.1-18.5-36.7-29.1-1.3-1.2-2.7-2.4-4.1-3.6-5.7-4.9-11.1-10.2-16.4-15.5s-3-3-4.6-4.5c-5.3-5.3-10.5-10.8-15.4-16.5-.7-.9-1.5-1.7-2.2-2.6-23.3-28.4-43.5-58.6-61.8-90.4-.6-1-1.1-1.9-1.7-3-8.7-15.1-16.8-30.5-24.7-46-2.2-4.2-4.4-8.3-6.6-12.5-4.1-7.8-8.1-15.7-12-23.6-4.2-8.5-8.5-17-13-25.4-2.7-5.1-5.4-10.2-8-15.4-.3-.7-.7-1.4-1.1-2.1-.4-.7-.7-1.4-1.1-2.1-6.9-13.5-13.9-27-21.3-40.3-1.7-3-3.4-6.1-5.1-9.1-13.5-24.4-27.3-48.5-41.6-72.5-3.4-5.8-6.9-11.6-10.3-17.4-2.9-5-5.9-10-8.9-14.9-4.2-7.1-8.4-14.1-12.6-21.2-5.6-9.5-11.3-19-17-28.5-12.2-20.2-23.9-40.7-35.4-61.3-1.7-3-3.4-6-5.1-8.9-8-14.1-15.6-28.5-23-42.9-1.8-3.5-3.6-7-5.5-10.5-38.3-72.1-69.1-149.6-96.1-299.6,0-1-.2-2.1-.3-3.2-1-12.6-1-25.2-1-37.8v-3.6c0-71.1,16.5-143.4,59.3-201.4.4-.6.9-1.2,1.3-1.8,4.9-6.6,10-12.9,15.6-19,1.9-2.1,3.8-4.3,5.7-6.5,5.7-6.5,11.8-12.3,18.4-17.8.5-.5,1.1-.9,1.6-1.4,75.1-63.5,175-76.7,396.4-23.6l.5-.3h0Z"/>
</svg>