<?xml version="1.0" encoding="UTF-8"?>
<svg id="Layer_1" xmlns="http://www.w3.org/2000/svg" xmlns:xlink="http://www.w3.org/1999/xlink" version="1.1" viewBox="0 0 3000 3000">
  <!-- Generator: Adobe Illustrator 29.2.1, SVG Export Plug-In . SVG Version: 2.1.0 Build 116)  -->
  <defs>
    <style>
      .st0 {
        fill: #fff;
      }

      .st0, .st1 {
        fill-rule: evenodd;
      }

      .st1 {
        fill: gray;
      }
    </style>
  </defs>
  <path class="st1" d="M-.5-.5h3000v3000H-.5V-.5Z"/>
  <path class="st0" d="M637.5,557.5c64.4-2.3,126.7,7.9,187,30.5,87.3,34.1,165.6,82.1,235,144,171.8,157.4,280,351.2,324.5,581.5,1.3,5.5,3.8,10.3,7.5,14.5,3.6.8,6.9.2,10-2,17-16,34.4-31.7,52-47,69.1-53.4,147.6-78.5,235.5-75.5,157.9,5.1,306.1,45.6,444.5,121.5,79.1,44.2,146.8,102.1,203,173.5-134.9,62.1-276.6,87.9-425,77.5-35.4-3.2-70.7-6.7-106-10.5-3.3.2-6.7.3-10,.5-5.6,1.5-7.4,5-5.5,10.5,1.8,5.6,4.1,10.9,7,16,37.9,57.3,68.9,118.3,93,183,28.5,76.8,41.1,156.2,38,238-2.3,55.5-16.3,107.8-42,157-50.3,84.9-124.2,117.7-221.5,98.5-31.5-8.1-61.2-20.4-89-37-38.9-24.6-75.2-52.6-109-84-28.4-27.4-57.4-54-87-80-36.1-30.3-76.1-54.7-120-73-44.8-16.7-89.8-33.1-135-49-65.2-23.8-123.5-58.4-175-104-35.9-34.1-67.4-71.6-94.5-112.5-45.2-71.5-93.8-140.5-146-207-37.6-45.5-74.9-91.2-112-137-52.9-65.9-99.9-135.9-141-210-32.7-59.8-57.4-122.8-74-189-14.4-57.3-18.4-115.3-12-174,8.1-72.1,38-133.3,89.5-183.5,51.3-43.5,110.6-67.3,178-71.5Z"/>
</svg>