<?xml version="1.0" encoding="UTF-8"?>
<svg id="Layer_1" xmlns="http://www.w3.org/2000/svg" version="1.1" viewBox="0 0 3000 3000">
  <!-- Generator: Adobe Illustrator 29.2.1, SVG Export Plug-In . SVG Version: 2.1.0 Build 116)  -->
  <defs>
    <style>
      .st0 {
        fill: gray;
      }

      .st1 {
        fill: #fff;
      }
    </style>
  </defs>
  <path class="st0" d="M0,0h3000v3000H0V0Z"/>
  <path class="st1" d="M845,645c1.2.3,2.5.6,3.8.9,40.7,9.9,79.8,25.1,117.4,43.7,2.8,1.4,5.7,2.8,8.5,4.1,13.9,6.7,27.2,14.4,40.4,22.3,1,.6,2,1.2,3.1,1.9,10.8,6.5,21.6,13,31.9,20.1.7.5,1.5,1,2.2,1.5,5.2,3.6,10.3,7.2,15.4,10.8,2.1,1.5,4.2,2.9,6.3,4.4,8.3,5.8,16.2,12,24.1,18.3.9.7,1.8,1.5,2.7,2.2,13.6,10.8,27,21.8,39.8,33.6,2,1.9,4.1,3.7,6.2,5.5,12.4,10.9,24.2,22.5,35.8,34.2l7.4,7.4c1.6,1.6,3.2,3.2,4.8,4.8.7.7,1.5,1.4,2.2,2.2,4,4,7.9,8.1,11.6,12.5,2.1,2.4,4.2,4.7,6.4,7,4.1,4.5,8.1,9.2,11.9,14,2.2,2.6,4.4,5.2,6.7,7.7,9.2,10.1,17.5,21,25.9,31.9,1.4,1.9,2.9,3.7,4.3,5.5,7,9,13.7,18.3,20.3,27.6.5.7,1,1.5,1.6,2.2,7,9.8,13.8,19.7,20.4,29.8.4.6.8,1.3,1.3,1.9,37.8,57.4,69.1,118.8,96.8,181.7,6.9,15.7,14,31.2,21.5,46.6.4.9.9,1.7,1.3,2.6,4.8,9.2,10.9,18.7,21.1,22.1,16.5,1.7,31.8-12.2,44.2-21.4,70.3-52.5,145.6-85.2,234.8-72.6,86.5,13,169.9,55.6,335.3,135.5,3,1.7,6,3.3,9.1,5,51.9,28.4,101,61.7,146,100.1,1.7,1.4,3.4,2.9,5.1,4.3,6.4,5.4,12.5,10.9,18.4,16.9,3.4,3.4,6.9,6.6,10.5,9.8,2,1.7,3.9,3.4,5.6,5.4v2c1,.3,2,.7,3,1,1,1.1,2.1,2.3,3.2,3.6,2.5,2.9,5.1,5.7,7.8,8.4,3.9,3.8,7.5,7.8,11,12,.8,1,1.6,2,2.5,2.9,2.4,2.8,4.7,5.5,7,8.3,1.5,1.8,3,3.5,4.4,5.3.5.6,1,1.1,1.5,1.7.9,1.1,1.8,2.2,2.8,3.3,1.3,1.5,2.5,3,3.8,4.5.5.5,1,1.1,1.5,1.6,1.3,1.4,2.4,2.9,3.5,4.4-1.4,4.2-4.2,5-7.9,6.9-.7.4-1.4.7-2.2,1.1-2.3,1.2-4.6,2.4-6.9,3.6-1.5.8-3,1.6-4.5,2.3-3,1.6-6,3.1-9,4.7-3.7,1.9-7.4,3.9-11.2,5.9-7.8,4.1-15.6,8.1-23.6,11.8-1.2.5-2.4,1.1-3.6,1.7-83,38.1-171.3,58.9-362.8,72.2-25.7-1.1-50,2.6-73.1,11-4.3,5.3-4.7,11.1-4.2,17.8.5,3.2,1.2,6.3,2,9.5.2.9.4,1.8.7,2.7,2.8,11.2,6.9,21.9,11,32.7.8,2.2,1.6,4.3,2.4,6.5,2,5.3,3.9,10.5,5.9,15.8,25.7,68.4,48,141.6,48.2,215.4v23.8c0,22.1-1.5,44-5.6,65.8-.2,1.1-.4,2.3-.6,3.5-7.6,39.8-22.1,80.6-48,112.2-.4.5-.8,1-1.2,1.5-15.6,19.4-33.5,35.1-55.8,46.5-.6.3-1.2.6-1.8,1-41.5,21.6-90.1,19.5-133.8,6.2-55.5-17.6-102.3-53.4-146.7-89.8-1.2-1-2.4-2-3.6-3-7.3-6-14.6-12-21.8-18.1-6-5.1-12.2-10-18.4-14.8-2-1.6-4.1-3.2-6.1-4.8-70-55.7-145.9-65.2-232.7-69.2-48.1-2.2-83.2-4.8-105.3-7.7-.8,0-1.6-.2-2.4-.3-50.8-6.7-101.6-18.6-148.2-40.4-2.2-1-4.4-2-6.7-3-12.8-5.7-24.7-12.9-36.7-20.1-.8-.5-1.5-.9-2.3-1.4-18.3-10.9-35.4-23.9-51.1-38.3-1.4-1.3-2.8-2.5-4.3-3.8-5.5-4.7-10.7-9.7-15.8-14.9-1.4-1.4-2.8-2.8-4.3-4.2-6.2-6.2-11.8-12.6-17.2-19.4-.9-1.1-1.9-2.2-2.9-3.4-40.8-47.1-68.8-104.6-94.1-161.1-2.2-4.8-4.3-9.7-6.5-14.5-5.7-12.6-11.3-25.2-17-37.8-13.5-30.2-27.3-60.3-41.5-90.2-.3-.6-.6-1.3-.9-1.9-2-4.2-4-8.3-6-12.5-.5-1-.9-2-1.4-3-3-6.2-6.1-12.3-9.4-18.4-6.1-11.5-11.9-23.2-17.7-34.9-5.3-10.6-10.6-21.3-16.2-31.8-3.5-6.6-6.8-13.2-10.1-19.9-2.9-5.8-5.9-11.5-8.9-17.2-6.1-11.5-11.9-23.1-17.7-34.8-.6-1.1-1.1-2.2-1.7-3.3-7.8-15.6-15.4-31.2-22.6-47.1-1.5-3.2-3-6.5-4.5-9.7-21-44.5-39.1-90.5-53.9-137.4-.2-.7-.4-1.4-.7-2.1-23.8-75.5-37.7-156.7-1.3-344.9.4-.9.8-1.9,1.2-2.8,9.4-21,20.9-40.5,35.3-58.4,1.2-1.5,2.5-3.1,3.7-4.7,4.5-5.7,9.3-11,14.3-16.3.6-.7,1.2-1.3,1.9-2,4.3-4.6,8.8-8.7,13.6-12.7,1-.9,2.1-1.8,3.1-2.7,12.5-10.7,25.8-19.9,39.9-28.3.7-.4,1.5-.9,2.2-1.3,20.9-12.4,43.5-21,66.8-27.7.8-.2,1.6-.5,2.4-.7,63.4-18.2,132.2-13.3,195.6,1.7h0Z"/>
</svg>