<?xml version="1.0" encoding="UTF-8"?>
<svg id="Layer_1" xmlns="http://www.w3.org/2000/svg" xmlns:xlink="http://www.w3.org/1999/xlink" version="1.1" viewBox="0 0 3000 3000">
  <!-- Generator: Adobe Illustrator 29.2.1, SVG Export Plug-In . SVG Version: 2.1.0 Build 116)  -->
  <defs>
    <style>
      .st0 {
        fill: #fff;
      }

      .st0, .st1 {
        fill-rule: evenodd;
      }

      .st1 {
        fill: gray;
      }
    </style>
  </defs>
  <path class="st1" d="M-.5-.5h3000v3000H-.5V-.5Z"/>
  <path class="st0" d="M615.5,519.5c68.9.9,134.9,15.1,198,42.5,65.6,29,125.9,66,181,111,157.7,133.4,267.2,299.3,328.5,497.5,18,62.1,29.3,125.4,34,190,.3,2.4,1.1,4.6,2.5,6.5,1,.7,2,.7,3,0,15.1-16.9,30.4-33.5,46-50,54.3-49.7,118-81,191-94,74.2-12.9,148.5-13.9,223-3,133.1,16.9,256.1,60.9,369,132,61.1,39.9,114.1,88.7,159,146.5-178.1,72.7-361.2,87.9-549,45.5-5.7-1.3-11.3-1.4-17-.5-1.3,4.4-.5,8.4,2.5,12,57.5,72,102.2,151.7,134,239,31.3,86.8,43.3,176.1,36,268-5,61.1-24.4,117.1-58,168-58.4,77.3-134.9,104.1-229.5,80.5-44.1-13.2-84.4-33.6-121-61-24.6-18.9-48.2-38.9-71-60-38.6-39.6-77.6-78.9-117-118-33.8-31.6-70.5-59.2-110-83-48.3-26.2-96.3-52.8-144-80-64.2-40.2-119.7-90.4-166.5-150.5-37.1-51.1-75.8-101.1-116-150-16-18.3-32.3-36.3-49-54-45.7-46.3-91.3-92.7-137-139-59.2-61.5-113.6-126.9-163-196-41.3-59.6-75.6-123.2-103-191-21.1-53.4-34.5-108.8-40-166-5.3-56.1,1-110.7,19-164,35.6-93,102.1-150.1,199.5-171.5,21.6-4.2,43.3-6.7,65-7.5Z"/>
</svg>