<?xml version="1.0" encoding="UTF-8"?>
<svg id="Layer_1" xmlns="http://www.w3.org/2000/svg" xmlns:xlink="http://www.w3.org/1999/xlink" version="1.1" viewBox="0 0 3000 3000">
  <!-- Generator: Adobe Illustrator 29.2.1, SVG Export Plug-In . SVG Version: 2.1.0 Build 116)  -->
  <defs>
    <style>
      .st0 {
        fill: #fff;
      }

      .st0, .st1 {
        fill-rule: evenodd;
      }

      .st1 {
        fill: gray;
      }
    </style>
  </defs>
  <path class="st1" d="M-.5-.5h3000v3000H-.5V-.5Z"/>
  <path class="st0" d="M634.5,535.5c75,1.6,146.3,18.5,214,50.5,78.8,37.9,149.8,86.9,213,147,130.1,126.2,221.9,276.4,275.5,450.5,14.3,49.2,24.6,99.2,31,150,.7,5.9,2.5,11.4,5.5,16.5,3.4.5,6.4-.5,9-3,20.4-22.8,42.4-43.8,66-63,49.5-36.3,104.9-59,166-68,74.6-9.7,148.9-8.1,223,5,130.2,20.8,250.2,67.1,360,139,55.9,38.7,104.9,84.9,147,138.5-147.9,63.7-301.9,85.9-462,66.5-26.4-3.7-52.7-7.7-79-12-16.5-4.1-21,1.1-13.5,15.5,35.8,49.2,66.8,101.6,93,157,40.2,87.2,61.4,178.9,63.5,275,.6,58.7-10.6,115.1-33.5,169-17.1,37.6-41.9,69.1-74.5,94.5-51,34.8-106.7,44.8-167,30-35.3-9.2-68.3-23.5-99-43-37.3-24.2-71.9-51.9-104-83-32.3-32-65-63.6-98-95-31.8-28.6-66.5-53.3-104-74-41.6-20.8-83.6-40.4-126-59-59.3-27.1-113-62.4-161-106-26.4-25.7-50.6-53.2-72.5-82.5-39.6-56.9-81-112.6-124-167-41.6-47.6-83.9-94.6-127-141-38.5-42.8-75.8-86.4-112-131-42-53.4-79.4-110.1-112-170-34.3-63.2-59.3-129.9-75-200-12.3-58.4-13.6-117.1-4-176,11.9-66.7,43.1-122.2,93.5-166.5,38.7-31,82.7-50.7,132-59,18.7-2.9,37.4-4.8,56-5.5Z"/>
</svg>