<?xml version="1.0" encoding="UTF-8"?>
<svg id="Layer_1" xmlns="http://www.w3.org/2000/svg" version="1.1" viewBox="0 0 3000 3000">
  <!-- Generator: Adobe Illustrator 29.2.1, SVG Export Plug-In . SVG Version: 2.1.0 Build 116)  -->
  <defs>
    <style>
      .st0 {
        fill: gray;
      }

      .st1 {
        fill: #fff;
      }
    </style>
  </defs>
  <path class="st0" d="M0,0h3000v3000H0V0Z"/>
  <path class="st1" d="M815.5,706.6h3.6c75.5.2,149.1,20.8,217.1,53,2.5,1.2,4.9,2.3,7.4,3.4,52.7,24,102,57.7,146.6,94.4,1.6,1.3,3.1,2.6,4.7,3.9,10.7,8.7,21.1,17.6,31.1,26.9,2.2,2,4.5,4.1,6.8,6,11.2,9.7,21.8,20.2,32.3,30.6.9.9,1.8,1.7,2.7,2.6,4.4,4.4,8.6,8.9,12.7,13.6,2,2.3,4.2,4.4,6.4,6.5,4.2,4.2,7.9,8.6,11.6,13.2,2.9,3.5,5.9,6.7,9,10,4.6,4.9,9,10,13.3,15.2,2.1,2.5,4.1,5,6.3,7.5,5,5.9,9.8,11.8,14.5,18,2.1,2.8,4.3,5.5,6.4,8.2,7.3,9.2,14.2,18.6,21.1,28.1.6.8,1.1,1.5,1.7,2.3,7.1,9.8,14.1,19.7,21,29.7,1.3,1.9,2.6,3.8,3.9,5.6,5.5,7.9,10.9,15.9,16.2,23.9,14.1,21.3,28.8,42.1,44.2,62.4.8,1,1.6,2,2.4,3,7.7,9,18.4,18,30.5,19.3,24.3.3,43.8-16,63.1-29,25.7-17.4,44.7-29.5,57-36.3.8-.5,1.7-.9,2.6-1.4,55-30.5,118.8-45.6,180.7-28.6,23,6.7,44.2,17.3,63.8,31,1.1.7,2.2,1.5,3.3,2.3,19.3,13.4,36.9,29.1,53.9,45.2,3.2,3.1,6.5,6.1,9.8,9.1,4.7,4.3,9.3,8.6,13.9,12.9.7.6,1.4,1.3,2.1,1.9,3.6,3.3,6.3,5.8,8,7.5,6.6,6.3,13.3,12.3,20.5,18,2.8,2.3,5.5,4.7,8.1,7.2,9.1,8.4,18.9,16,28.7,23.6,1.8,1.4,3.6,2.8,5.3,4.2,11.6,9.1,23.3,18.1,35.2,26.8,5.4,3.9,10.7,7.9,15.9,12,6.3,4.9,12.7,9.5,19.3,14.1,5.4,3.8,10.6,7.7,15.8,11.8,3.7,2.9,7.4,5.6,11.1,8.4.7.5,1.3,1,2,1.5,3.4,2.6,6.8,5.1,10.2,7.6,18.6,13.9,36.6,28.5,54.3,43.6,1.7,1.4,3.3,2.8,5,4.2,7.5,6.4,14.8,13,22,19.8,2.2,2.1,4.4,4.1,6.6,6.1,5.9,5.3,11.6,10.8,17.3,16.4l2,2c3.9,3.9,7.5,7.9,11.1,12,1.6,1.9,3.3,3.6,5.1,5.3,6.1,6,11.5,12.7,17.1,19.3,4.1,4.8,8.2,9.6,12.3,14.4,3.1,3.6,6.1,7.2,9.1,10.8-1.5,4.2-4.5,6.1-8,8.4-1.3.9-2.6,1.8-3.8,2.7-.7.5-1.4.9-2.1,1.4-2.1,1.5-4.2,3-6.2,4.5-16,11.8-32.7,22.8-49.9,32.8-2.1,1.3-4.3,2.5-6.4,3.8-75.3,44.3-160.5,69-300.7,93.1-13.8,2.1-27.6,4.3-41.3,7-1,.2-2.1.4-3.1.6-8.3,1.6-16.3,3.9-24.3,6.7-.9.3-1.9.7-2.8,1-11.5,4.2-20.7,11.3-25.9,22.4-10.5,27.6-1,62.5,3.2,90.8,2.9,19.5,5.7,38.9,7.4,58.5,0,.7,0,1.4.2,2.1,2,23.3,2.6,46.6,1.3,69.9v2.3c-3.3,56.4-17.8,117-58,158.9-1.4,1.3-2.4,2.7-3.1,4.2h-2v2c-2.4,2.6-5.3,4.8-8,7-.9.8-1.9,1.6-2.9,2.4-30.3,24.5-67.5,32.8-105.9,29.2-20-2.4-38.9-8.5-57.3-16.5-.7-.3-1.5-.6-2.2-1-30.6-13.4-58.4-33.4-84.1-54.6-2.3-1.9-4.6-3.7-6.9-5.5-4.4-3.5-8.7-7.1-12.9-10.7-4.3-3.7-8.7-7.3-13.1-10.8-2.6-2.1-5.1-4.2-7.6-6.4-6.5-5.6-13.2-10.9-20.2-15.9-.7-.5-1.3-.9-1.9-1.4-45.8-33.3-91-40.9-146.7-32.2-19.6,3.1-38.9,7.5-58.2,11.7-5.9,1.3-11.9,2.6-17.8,3.9-1.2.3-2.4.5-3.6.8-22.5,4.8-45,9.3-67.6,13.2-.7,0-1.4.3-2.2.4-43.6,7.6-88.5,12-132.8,10.6h-2c-83.6-2.6-165.3-22.9-249-80.9-1.1-.8-2.2-1.7-3.3-2.5-9.1-6.9-17.5-14.5-25.7-22.5-.7-.7-1.5-1.5-2.3-2.2-10.7-10.5-18.3-18.5-22.6-24-1.6-2.1-3.3-4.1-5-6.2-15.2-18-27.6-38.2-39.1-58.6-.4-.7-.8-1.4-1.2-2.2-12.7-22.4-22.1-46.6-30.8-70.8-.2-.7-.5-1.3-.7-2-21.3-59.5-33.3-121.8-46.3-183.5-11.7-55.3-24.2-110.4-37-165.5-12.4-53.1-24.7-106.3-34-160.1-.1-.8-.3-1.5-.4-2.3-11-63.5-17.4-129.4-10.6-193.7.1-1.3.3-2.5.4-3.8,4.9-46.5,15.8-91.7,35.6-134.2.4-.9.8-1.7,1.2-2.6,8.2-17.4,18-34.1,29.8-49.4.8-1,1.5-2,2.3-3.1,13.9-18.4,29.4-35.8,47.7-49.9,1.1-.9,2.2-1.8,3.3-2.6,8.3-6.7,16.8-12.7,25.7-18.4.6-.4,1.2-.7,1.8-1.1,52-33.1,113.7-46.3,174.7-46.2h-.8Z"/>
</svg>