<?xml version="1.0" encoding="UTF-8"?>
<svg id="Layer_1" xmlns="http://www.w3.org/2000/svg" version="1.1" viewBox="0 0 3000 3000">
  <!-- Generator: Adobe Illustrator 29.2.1, SVG Export Plug-In . SVG Version: 2.1.0 Build 116)  -->
  <defs>
    <style>
      .st0 {
        fill: gray;
      }

      .st1 {
        fill: #fff;
      }
    </style>
  </defs>
  <path class="st0" d="M0,0h3000v3000H0V0Z"/>
  <path class="st1" d="M750.3,642.8h2.7c95,0,189.2,33.6,276,85.3.9.5,1.8,1.1,2.7,1.6,18.7,11.2,36.6,23.5,54.3,36.4.6.4,1.2.8,1.8,1.3,17.1,12.4,33.4,25.6,49.5,39.3,1.7,1.4,3.4,2.9,5.1,4.3,8.4,7.1,16.4,14.5,24.3,22,2.3,2.1,4.5,4.2,6.8,6.3,6.9,6.3,13.6,12.8,20.2,19.4,1.7,1.7,3.4,3.4,5.1,5.1,5.1,5.1,10.1,10.2,14.8,15.7,1.6,1.8,3.2,3.5,4.9,5.1,3.7,3.7,7.1,7.5,10.5,11.5.9,1,1.8,2.1,2.7,3.1,2,2.4,4.1,4.8,6.1,7.2,2.1,2.4,4.1,4.8,6.2,7.2,5.9,6.8,11.6,13.8,17.2,20.9,2.3,3,4.7,6,7.1,8.9,10.7,13.2,20.7,27,30.2,41.1,2.8,4.1,5.5,8.1,8.5,12,6.1,8.2,11.5,16.9,17,25.6l1.5,2.4c8.1,12.7,15.9,25.6,23.5,38.6.5.9,1,1.7,1.5,2.6,8.5,14.6,16.6,29.5,24.5,44.4.5,1.1,1.1,2.1,1.7,3.2,12.1,23,23.6,46.3,34.4,69.9,4.8,10.5,9.8,20.8,15.2,31,.6,1,1.1,2.1,1.7,3.2,5.9,10.9,12.6,21.7,23.4,28.2,11.1,2.4,20.5-1.1,29.8-7,9.4-6.1,18.4-12.7,27.4-19.3,6.7-4.9,13.5-9.5,20.4-14.2.6-.4,1.3-.9,1.9-1.3,62.7-42.3,134.4-62.6,209.6-48.7,53.5,10.6,103.5,34.8,152.4,58.1,4.6,2.2,9.3,4.4,13.9,6.6,17.6,8.2,35,16.6,52.4,25.1,1.1.5,2.1,1.1,3.2,1.6,11.2,5.5,22.3,11,33.5,16.6.9.4,1.8.9,2.7,1.3,7.1,3.6,14.1,7.2,21.1,10.9,3.9,2.1,7.9,4.2,11.8,6.2,14.5,7.7,28.8,15.7,43,24.1,3.2,1.9,6.4,3.7,9.7,5.5,15.3,8.7,30.1,18.3,44.8,27.9.9.6,1.9,1.2,2.8,1.8,12,7.9,23.9,15.9,35.3,24.7,2.7,2.1,5.4,4.1,8.1,6.1,7.1,5.3,14,10.7,20.8,16.4,1.8,1.4,3.5,2.9,5.3,4.3,10.2,8.3,20,16.9,29.6,25.8,2,1.9,4,3.7,6.1,5.5.9.8,1.8,1.6,2.8,2.4.8.7,1.6,1.4,2.5,2.1,1.1,1.1,1.7,2.4,1.7,3.7,1,.3,2,.7,3,1v2c.6.3,1.2.5,1.8.8,2.4,1.3,3.8,2.6,5.6,4.6.6.7,1.2,1.3,1.8,2s1.2,1.4,1.9,2.1c1.2,1.4,2.5,2.7,3.7,4.1.5.6,1.1,1.2,1.7,1.8,1,1.1,2.1,2.2,3.3,3.3.9.9,1.3,2.1,1.3,3.4h2c.9.9,1.8,1.9,2.9,3.1.6.7,1.2,1.5,1.9,2.2.7.9,1.5,1.8,2.2,2.7,1.4,1.6,2.8,3.2,4.2,4.9,1.5,1.8,3.1,3.6,4.6,5.4,2.1,2.5,4.3,5,6.5,7.5.5.6,1.1,1.2,1.6,1.9,1,1.2,2,2.3,3,3.5,3.3,3.8,6.2,7.8,9.1,11.9-1.3.7-2.7,1.5-4,2.2-.9.5-1.8,1-2.7,1.5-2,1.1-4,2.2-5.9,3.2-4.9,2.7-9.9,5.4-14.8,8.1-76.3,42-156.2,69.5-317.6,94-.8,0-1.6,0-2.4.2-19.2,1.6-38.5,2.7-57.7,3.6h-2.3c-7.6.3-15.1.6-22.7.9-12.5.5-24.9,1.2-37.4,2.1-.7,0-1.5,0-2.3.2-9.8,1.1-24.1,2.7-30.7,10.7-5.2,7.9-5.5,15.9-3.7,25.1.3,1.5.6,2.9,1,4.4.2.8.4,1.6.5,2.4,1.7,7.3,3.9,14.3,6.3,21.4.8,2.2,1.5,4.5,2.3,6.7,1.1,3.3,2.2,6.6,3.3,9.9,19.9,58.2,38.3,116.8,44.8,178.2,0,.9.2,1.9.3,2.8,8.5,81.5-.3,172.9-52.9,239.1-27.3,33.5-64.3,56-107.7,60.8-67.6,5.3-128.8-25.4-181.7-64.7-1-.8-2.1-1.5-3.2-2.3-14.2-10.6-28.1-21.6-41.7-32.9-6.4-5.3-12.7-10.5-19.1-15.8-.7-.6-1.3-1.1-2-1.7-20.4-16.7-41.2-33.3-64.2-46.3-1.7-1-3.4-2-5.1-3-47.1-26.9-101.9-29.8-154.8-30.4-4,0-8,0-12-.2-10.6-.2-21.2-.3-31.8-.4-43.5-.6-73.8-1.6-91-3-.9,0-1.9,0-2.8-.2-4.9-.4-9.8-.9-14.6-1.5-.7,0-1.4,0-2.1-.2-79.7-9.5-157.2-33-222.5-81-.6-.4-1.2-.9-1.8-1.3-15-11.1-28.7-23.8-42.2-36.7-.9-.9-1.8-1.8-2.8-2.7-2.7-2.6-4.4-4.4-5.2-5.3v-2h-2c-.9-.9-1.8-1.9-2.9-3.2s-1.7-2-1.9-2.2c-.7-.9-1.4-1.7-2.2-2.6-.8-1-1.7-2-2.6-3-27.6-32.2-49.2-68.4-68.4-106-.4-.7-.7-1.4-1.1-2.1-22.3-43.3-40.1-88.8-58.6-133.8-12-29.2-24.4-58.3-37.3-87.1-.6-1.3-1.1-2.5-1.7-3.8-7.9-17.5-15.9-34.8-24.1-52.1-4.3-9.2-8.6-18.3-12.9-27.5-4-8.7-8.1-17.3-12.3-25.9-6-12.4-11.8-24.8-17.5-37.4-.6-1.4-1.3-2.8-1.9-4.2-.3-.7-.6-1.4-.9-2.1-2.5-5.5-5-10.9-7.6-16.4-8.5-18-16.4-36.3-24.1-54.6-.3-.8-.7-1.6-1-2.4-10.8-25.6-20.8-51.4-30-77.6-.3-.8-.5-1.6-.8-2.4-20.2-57.6-35.7-117.7-41.2-178.6-.1-1.1-.2-2.3-.3-3.5-7.2-83.9,2.5-179.4,53.3-249.5.8-1.2,1.6-2.3,2.4-3.5,6.9-9.9,14.3-19.3,22.4-28.2,1.8-2,3.6-4.1,5.4-6.2,17.5-20,40.4-36.2,63.6-48.9,1.9-1.1,3.8-2.2,5.7-3.3,45.5-25.6,100-35.1,151.7-35.2v.2h-.1Z"/>
</svg>