<?xml version="1.0" encoding="UTF-8"?>
<svg id="Layer_1" xmlns="http://www.w3.org/2000/svg" xmlns:xlink="http://www.w3.org/1999/xlink" version="1.1" viewBox="0 0 3000 3000">
  <!-- Generator: Adobe Illustrator 29.2.1, SVG Export Plug-In . SVG Version: 2.1.0 Build 116)  -->
  <defs>
    <style>
      .st0 {
        fill: #fff;
      }

      .st0, .st1 {
        fill-rule: evenodd;
      }

      .st1 {
        fill: gray;
      }
    </style>
  </defs>
  <path class="st1" d="M-.5-.5h3000v3000H-.5V-.5Z"/>
  <path class="st0" d="M556.5,471.5c71.7-.4,140.3,13.8,206,42.5,88.5,39.6,167.5,92.9,237,160,148.9,145.2,248.7,319.4,299.5,522.5,15.6,64.1,21.6,129.1,18,195-1,9.1-2,18.1-3,27,18.4-36.1,43.3-67.3,74.5-93.5,55.4-44.4,118.1-74.4,188-90,91-19.8,182.7-23.5,275-11,136.2,17.2,261.2,63.5,375,139,33.5,23.5,64.7,50,93.5,79.5,16.4,18,32.4,36.4,48,55,.6,1,.3,1.7-1,2-90.8,32.1-184.3,50.6-280.5,55.5-106.6,5.7-210.4-8.5-311.5-42.5-.5.3-1,.7-1.5,1,122.2,124.3,196,273.3,221.5,447,10.5,75,5.8,149-14,222-15.9,55-44.4,102.2-85.5,141.5-53.1,44.9-114.1,61.5-183,50-33-6.4-64.3-17.4-94-33-28.6-16-55.6-34.3-81-55-28.8-25.5-56.3-52.3-82.5-80.5-36.7-43-73-86.4-109-130-33-37.9-68.2-73.8-105.5-107.5-36.5-30.8-72.8-61.8-109-93-33-30.6-63.8-63.1-92.5-97.5-32.5-42.5-66.5-83.8-102-124-23.3-24.3-47.4-47.4-72.5-69.5-57-47.2-114.3-93.8-172-140-65-54.3-126.1-112.8-183.5-175.5-63.5-70.9-116.8-148.9-160-234-29.3-59-49.7-121-61-186-10.2-58.8-8.2-117.1,6-175,29.9-102.9,96.7-167.4,200.5-193.5,20.6-4.3,41.3-7.2,62-8.5Z"/>
</svg>