<?xml version="1.0" encoding="UTF-8"?>
<svg id="Layer_1" xmlns="http://www.w3.org/2000/svg" xmlns:xlink="http://www.w3.org/1999/xlink" version="1.1" viewBox="0 0 3000 3000">
  <!-- Generator: Adobe Illustrator 29.2.1, SVG Export Plug-In . SVG Version: 2.1.0 Build 116)  -->
  <defs>
    <style>
      .st0 {
        fill: #fff;
      }

      .st0, .st1 {
        fill-rule: evenodd;
      }

      .st1 {
        fill: gray;
      }
    </style>
  </defs>
  <path class="st1" d="M-.5-.5h3000v3000H-.5V-.5Z"/>
  <path class="st0" d="M562.5,482.5c73-1.4,143,12.5,210,41.5,76.4,33.8,145.7,78.1,208,133,163.6,147.9,272.4,329.4,326.5,544.5,16.2,67.8,22.2,136.5,18,206,23.1-40.7,53.6-74.9,91.5-102.5,49.7-34.8,104.4-58.8,164-72,76.7-16.1,154-20.4,232-13,122.8,11.1,238.5,45.7,347,104,80.3,43.8,148.6,102,205,174.5-156.5,58.2-317.2,73.8-482,46.5-14.4-2.7-28.7-5.7-43-9-20.9-5.8-41.9-11.3-63-16.5,0,1.8.5,3.5,1.5,5,118.3,125.9,188.3,275.3,210,448,7.5,67,2.5,133-15,198-12.7,45.1-34.1,85.4-64,121-61.9,65.4-136.8,86.9-224.5,64.5-43.6-12.8-83.6-32.4-120-59-39.2-29.2-75.4-62-108.5-98.5-36-41.3-72-82.7-108-124-32.9-35.9-68.1-69.4-105.5-100.5-44.2-33.6-87.9-67.9-131-103-33.3-29.6-64.1-61.4-92.5-95.5-36.2-46.8-73.8-92.5-113-137-29.3-29.6-59.4-58.1-90.5-85.5-65.8-54.5-130.5-110.5-194-168-55.8-52.5-107.3-108.7-154.5-168.5-43.3-56.4-80.6-116.7-112-181-33.3-68.7-53.6-141-61-217-6-63.6,3.7-124.6,29-183,43.2-85.4,112.3-135.2,207.5-149.5,10.8-1.4,21.5-2.5,32-3.5Z"/>
</svg>