<?xml version="1.0" encoding="UTF-8"?>
<svg id="Layer_1" xmlns="http://www.w3.org/2000/svg" version="1.1" viewBox="0 0 3000 3000">
  <!-- Generator: Adobe Illustrator 29.2.1, SVG Export Plug-In . SVG Version: 2.1.0 Build 116)  -->
  <defs>
    <style>
      .st0 {
        fill: gray;
      }

      .st1 {
        fill: #fff;
      }
    </style>
  </defs>
  <path class="st0" d="M0,0h3000v3000H0V0Z"/>
  <path class="st1" d="M949,719c1,.3,2,.6,3.1,1,24.7,7.8,48.6,17.5,71.9,28.6,2.8,1.3,5.6,2.6,8.5,3.9,12.3,5.7,24.1,12.2,35.8,19,2.4,1.4,4.9,2.7,7.3,4,11.5,6.2,22.4,13.2,33.3,20.5,3,2,6.1,4,9.2,6,12.6,8.3,24.9,16.8,36.9,26,.8.6,1.5,1.1,2.3,1.7,19.4,14.9,38.2,30.5,56.3,47.1,2.2,2,4.4,4,6.7,5.9,3.2,2.8,6.2,5.8,9.2,8.8s2.6,2.3,4.5,3.5v2c.5.2,1.1.4,1.6.7,3.1,1.8,5.5,4.2,8,6.7l1.6,1.6c1.1,1.1,2.2,2.3,3.4,3.4,1.7,1.7,3.4,3.4,5.1,5.1,5.1,5.1,10.2,10.3,14.9,15.9,2,2.3,4.2,4.5,6.4,6.6,3.6,3.5,7,7.1,10.2,10.9,2,2.3,4.1,4.6,6.1,6.9,3.9,4.3,7.6,8.8,11.3,13.3,2.5,3.1,5.1,6.1,7.6,9.1,8.7,10.2,17.2,20.6,25.2,31.4s4.1,5.4,6.2,8.1c9.1,11.9,17.9,23.9,26.4,36.3.6.8,1.1,1.6,1.7,2.5,13.8,20,27.2,40.2,40.1,60.7,18.3,33.8,41.7,62.3,70.2,85.4,21.9,4,41-11,58-22.6,4.2-2.9,8.4-5.7,12.6-8.6.5-.4,1.1-.7,1.7-1.1,8.2-5.6,16.4-11.1,24.8-16.3.7-.5,1.4-.9,2.1-1.3,13.3-8.2,26.9-15.7,40.9-22.7s1.6-.8,2.5-1.2c30.5-15,64.5-24.2,98.5-25.8h2.1c39.5-1.5,78.9,10.3,112.9,30.1.8.5,1.6.9,2.4,1.4,11.9,7,23,14.6,33.8,23.2,2.5,1.9,5,3.7,7.5,5.5,5.3,3.8,10.2,8,15.1,12.2,2.6,2.2,5.2,4.3,7.9,6.5,9.8,7.8,19.4,15.8,28.9,23.9,5.5,4.6,11.1,9.1,16.7,13.5,3.1,2.4,6.2,4.9,9.3,7.4,7,5.6,14.1,11.1,21.3,16.4,1.2.9,2.4,1.8,3.7,2.8,15.5,11.7,31.4,23,47.3,34.2.8.5,1.6,1.1,2.4,1.7,9,6.4,18.1,12.7,27.2,18.9,7,4.8,13.9,9.7,20.7,14.6,5,3.6,10,7.2,15.1,10.7,9.3,6.5,18.4,13.3,27.6,20.1.7.5,1.4,1.1,2.2,1.6,9.4,7,18.7,14.1,27.8,21.4.9.7,1.8,1.4,2.7,2.1,2.4,1.9,4.9,3.9,7.3,5.9.8.7,1.7,1.4,2.6,2.1,10.6,8.6,20.9,17.5,31,26.7,2,1.9,4.1,3.7,6.2,5.5,9.9,8.7,19.4,17.8,28.8,27.1l2.2,2.2c4,4,7.9,8.2,11.6,12.5,2.4,2.8,5,5.5,7.5,8.2,4.5,4.8,8.7,9.7,12.8,14.8,3.3,4,6.7,8,10.1,12,3.1,3.6,6.2,7.3,9.2,10.9-1.5,3.6-3.3,5.2-6.5,7.3-.9.6-1.8,1.2-2.8,1.9-1,.6-1.9,1.3-3,1.9-1,.7-2,1.3-3,2-2,1.3-4,2.7-6,4-2.3,1.5-4.6,3.1-6.9,4.6-3.6,2.4-7.2,4.8-10.9,7.2-.7.5-1.4.9-2.1,1.4-38.2,24.8-79.2,45.1-121.9,60.9-2.2.8-4.4,1.6-6.5,2.4-10.8,4-21.7,7.7-32.7,11.1-.8.3-1.7.5-2.5.8-54.3,16.6-110.1,26.4-166.3,34.1-2.8.4-5.7.8-8.5,1.2-.7,0-1.4.2-2.1.3-1.4.2-2.9.4-4.3.6-4.1.6-8.3,1.1-12.4,1.7-27.9,2.6-53.5,10.9-76.6,25-16.8,26-3.9,64.7,1.3,92.7,17.4,94,26.8,196.4-26,291.9-4.8,6.9-10,13.6-15.4,20.1-.6.7-1.2,1.4-1.8,2.2-1.4,1.7-2.8,3.2-4.2,4.8h-2c-.2.6-.4,1.2-.7,1.7-2.8,4.8-8,7.9-12.3,11.3-.9.7-1.8,1.5-2.7,2.2-17,13.5-37.1,21.5-58.3,25.8-1.1.2-2.2.5-3.3.7-35,6.1-70.8-2.7-102.7-16.7-.8-.3-1.5-.7-2.3-1-34.3-14.9-64.3-38-93-61.6-2.4-2-4.8-3.9-7.2-5.9-3.9-3.2-7.7-6.3-11.6-9.5-2.9-2.4-5.9-4.8-8.8-7.3-2.1-1.7-4.1-3.4-6.1-5.1-34.2-28.2-73.2-54.4-119.1-54.9h-2.3c-44.2-.5-86.9,8.2-130.3,16-35.2,6.3-70.6,11.9-106.3,15.1-1.9.2-3.9.4-5.8.5-86.3,7.9-177.4-1.8-256.2-39.4-.8-.4-1.6-.8-2.5-1.2-16.6-7.9-33.3-16.7-48-27.9-1.9-1.5-3.9-2.9-5.9-4.3-11.3-7.9-21.6-16.6-31.7-25.9-1.4-1.3-3.1-2.5-5-3.8v-2c-.6-.3-1.2-.5-1.7-.8-2.6-1.4-4.4-3.1-6.5-5.2-.7-.7-1.4-1.4-2.1-2.1-1.1-1.3-1.6-2.6-1.6-3.9h-2c-.9-.9-1.8-1.9-2.9-3.1-.6-.7-1.2-1.5-1.9-2.2-.7-.9-1.5-1.7-2.2-2.6-.9-1-1.8-2.1-2.7-3.1-7.6-8.6-14.6-17.6-21.3-26.9-.8-1-1.5-2.1-2.3-3.2-57.3-81-79.7-178.9-110.2-302.3-13.6-54.9-28-109.4-43-163.9-24.6-89.3-48.6-179.9-54.5-272.6,0-.8,0-1.6-.2-2.5-4.1-61.4,1.2-123.8,20.2-182.5.3-.9.6-1.8.9-2.7,11.8-36.4,29.8-70.7,54.1-100.3.8-1,1.6-2.1,2.5-3.1,12.7-15.5,27.4-30.9,43.7-42.6,2-1.4,3.9-2.9,5.9-4.4,42.9-32.3,95-50,147.9-56.9.9,0,1.8-.2,2.7-.4,62.3-7.7,126.8,2.7,186.3,21.4h0Z"/>
</svg>