<?xml version="1.0" encoding="UTF-8"?>
<svg id="Layer_1" xmlns="http://www.w3.org/2000/svg" xmlns:xlink="http://www.w3.org/1999/xlink" version="1.1" viewBox="0 0 3000 3000">
  <!-- Generator: Adobe Illustrator 29.2.1, SVG Export Plug-In . SVG Version: 2.1.0 Build 116)  -->
  <defs>
    <style>
      .st0 {
        fill: #fff;
      }

      .st0, .st1 {
        fill-rule: evenodd;
      }

      .st1 {
        fill: gray;
      }
    </style>
  </defs>
  <path class="st1" d="M-.5-.5h3000v3000H-.5V-.5Z"/>
  <path class="st0" d="M575.5,487.5c63.5-.2,124.9,11.3,184,34.5,59.1,23.4,114.1,53.7,165,91,86.8,64.5,160.9,141,222.5,229.5,69.8,99.6,121.4,208.2,155,326,21.7,76.2,31.1,153.8,28,233,43.1-68.1,102.3-116.9,177.5-146.5,72.9-27,148.2-39.8,226-38.5,162.4,1,313.4,42.5,453,124.5,67.8,42,126.5,94.5,176,157.5-154.6,58.5-313.6,74.8-477,49-14.1-2.5-28.1-5.3-42-8.5-21.9-5.8-43.9-11.3-66-16.5.7,3.6,2.2,7,4.5,10,118,128.1,185.7,279.4,203,454,5.9,68.3-1.8,134.9-23,200-18.3,53.5-49.5,97.6-93.5,132.5-57.9,38.8-120.5,48.8-188,30-48.6-14.6-92.6-37.6-132-69-38.4-31.1-74.2-64.9-107.5-101.5-31.3-36.3-63-72.3-95-108-32.4-34.1-66.9-65.6-103.5-94.5-37.6-27.3-74.9-54.9-112-83-40.3-31.3-77.2-66.5-110.5-105.5-27.4-32.8-54.1-66.1-80-100-40-48-83.5-92.9-130.5-134.5-53.6-45.6-106.6-91.9-159-139-73.1-66.4-138.9-138.9-197.5-217.5-50-68.2-90-142.2-120-222-26.1-69.7-37.4-141.7-34-216,3.7-62.6,24.1-118.9,61-169,44.9-54.4,102.4-86.9,172.5-97.5,14.4-2,28.8-3.5,43-4.5Z"/>
</svg>