<?xml version="1.0" encoding="UTF-8"?>
<svg id="Layer_1" xmlns="http://www.w3.org/2000/svg" xmlns:xlink="http://www.w3.org/1999/xlink" version="1.1" viewBox="0 0 3000 3000">
  <!-- Generator: Adobe Illustrator 29.2.1, SVG Export Plug-In . SVG Version: 2.1.0 Build 116)  -->
  <defs>
    <style>
      .st0 {
        fill: #fff;
      }

      .st0, .st1 {
        fill-rule: evenodd;
      }

      .st1 {
        fill: gray;
      }
    </style>
  </defs>
  <path class="st1" d="M-.5-.5h3000v3000H-.5V-.5Z"/>
  <path class="st0" d="M594.5,503.5c68.4.3,134.1,13.8,197,40.5,69.7,29.7,133.4,68.7,191,117,130.1,110.8,227.9,245.3,293.5,403.5,42.8,102.5,66,209.2,69.5,320,2-1.5,3.8-3.2,5.5-5,46.5-65.5,108-111,184.5-136.5,61.8-19.4,125.1-28.9,190-28.5,143.4,1.9,279.1,35.1,407,99.5,88,45.1,162.7,106.6,224,184.5-185.9,72.7-375.6,84.2-569,34.5-2.3-.8-4.4-.6-6.5.5,0,4.1,1.2,7.8,4,11,90.1,104.5,149.1,224.8,177,361,13.6,68.8,14.6,137.8,3,207-10.4,59.4-34.7,112.1-73,158-61.6,62.9-135.1,82.4-220.5,58.5-48.2-15.2-91.8-38.6-131-70-16.3-13.3-32.3-27-48-41-40-39.3-78.5-79.8-115.5-121.5-37.6-39.9-78.4-75.8-122.5-107.5-46.5-29.8-92.8-59.8-139-90-38.1-26.8-73.3-57.3-105.5-91.5-10-11.3-20-22.7-30-34-28.3-36.3-56.7-72.7-85-109-32.7-39.4-67.5-76.9-104.5-112.5-40.3-37.7-80.7-75.3-121-113-66.7-63.1-128.2-130.6-184.5-202.5-49.4-65.1-90.4-135.4-123-211-24.3-58.1-39.6-118.4-46-181-5.5-56.8,1.2-112.2,20-166,38.1-94.2,107.3-150.7,207.5-169.5,17.1-2.7,34.1-4.5,51-5.5Z"/>
</svg>