<?xml version="1.0" encoding="UTF-8"?>
<svg id="Layer_1" xmlns="http://www.w3.org/2000/svg" version="1.1" viewBox="0 0 3000 3000">
  <!-- Generator: Adobe Illustrator 29.2.1, SVG Export Plug-In . SVG Version: 2.1.0 Build 116)  -->
  <defs>
    <style>
      .st0 {
        fill: gray;
      }

      .st1 {
        fill: #fff;
      }
    </style>
  </defs>
  <path class="st0" d="M0,0h3000v3000H0V0Z"/>
  <path class="st1" d="M768,609c.7,0,1.3.2,2,.3,63.3,9.1,125.6,29.8,181.7,60.5,2.5,1.4,5,2.7,7.6,4,9.7,5,19.2,10.1,28.5,15.9,2.6,1.6,5.3,3.3,7.9,4.9,11,6.8,21.9,13.7,32.4,21.2,2,1.4,3.9,2.8,5.9,4.1,11.6,8.1,22.8,16.6,34,25.2.7.5,1.4,1.1,2.1,1.6,7.4,5.7,14.7,11.7,21.8,17.8,2.8,2.4,5.6,4.6,8.4,6.9,6,4.9,11.6,10.2,17.2,15.5,2.5,2.4,5.1,4.7,7.7,6.9,3.8,3.2,7.2,6.7,10.7,10.3,3.3,3.3,6.7,6.4,10.2,9.4,4.7,4.1,9,8.6,13.1,13.4,3.3,3.8,6.8,7.3,10.3,10.8s8,8,11.6,12.4c2,2.3,4.1,4.5,6.2,6.8,5,5.3,9.7,10.8,14.3,16.4,2.9,3.5,5.8,6.9,8.8,10.2,5.7,6.5,11.1,13.2,16.3,20,1.2,1.6,2.5,3.2,3.7,4.8,4.9,6.3,9.7,12.7,14.5,19.2.5.7,1.1,1.5,1.6,2.2,9.7,13.2,19,26.6,28.1,40.3,1.5,2.3,3,4.5,4.5,6.8,10.6,15.8,20.4,32.1,29.9,48.5.4.8.9,1.5,1.4,2.3,19.2,32.9,36.2,66.8,51.6,101.7.3.7.6,1.4,1,2.2,11.6,26.1,21.7,52.7,31.6,79.5,1.7,4.6,3.4,9.1,5.1,13.7,1.2,3.3,2.4,6.6,3.6,9.9,5.5,17.1,13.7,32.4,24.7,45.7,6.7,2.1,12,0,18-3,4.9-3.1,9.4-6.5,14-10,.7-.6,1.4-1.1,2.2-1.7,4.6-3.5,9.2-7.1,13.7-10.7,58.8-46.1,124.7-76.2,200.5-76h3c16.7,0,33.1.8,49.6,3.3,1.2.2,2.4.4,3.6.5,8.5,1.3,17,2.8,25.4,4.5,1.1.2,2.2.4,3.3.6,33.7,6.5,66.7,16.3,99.4,26.7,2.3.7,4.5,1.4,6.8,2.2,37.8,11.9,74.7,25.7,111.4,40.6.7.3,1.5.6,2.2.9,19.3,7.8,38.2,16.3,56.9,25.3,4,1.9,8,3.8,12,5.7,23.3,10.9,45.8,23.2,67.9,36.3,3,1.8,6.1,3.6,9.1,5.4,21.4,12.6,41.8,26.6,61.8,41.4.7.5,1.4,1,2.1,1.6,7.9,5.8,15.6,11.7,23.1,18.1,2.7,2.3,5.5,4.6,8.3,6.8,5.1,4.1,9.9,8.5,14.7,13,2.3,2.1,4.7,4.2,7,6.3,3.3,2.9,6.4,6,9.5,9.1,2,1.9,3.9,3.7,6,5.4,4.3,3.7,8.1,7.7,12,11.9.7.7,1.4,1.5,2.1,2.2,1.4,1.5,2.8,3,4.2,4.5,1.8,1.9,3.6,3.8,5.4,5.7,5.3,5.6,10.3,11.4,15.2,17.4,3.5,4.3,7.2,8.5,10.8,12.7,1.5,1.8,3.1,3.5,4.6,5.3.5.6,1,1.1,1.5,1.7,2.3,2.7,3.5,4.8,3.5,6.3-32.6,16.7-65.7,32.1-100,45-1,.4-2,.8-3.1,1.2-68.7,25.8-140.9,40-213.8,46.5-.7,0-1.4,0-2.1.2-4,.4-7.9.7-11.9,1-1.9,0-3.7.3-5.6.4-14.6,1-29.2.8-43.9.8h-108.1c-10.6,0-21.5,0-30.6,6.2-3.4,5-3.3,10.1-2.2,15.9,4.3,18.2,13.6,35.2,21.4,52,38.4,83,68.1,171.9,72,285.5v3c0,18-1,35.7-3.3,53.6,0,1.1-.3,2.2-.4,3.3-4.3,33.5-13.9,66.4-28.6,96.7l-1.2,2.4c-8.7,17.8-19.7,33.8-32.8,48.6-1.2,1.4-2.4,2.9-3.6,4.3-.8.9-1.6,1.8-2.4,2.7h-2c-.3.6-.5,1.2-.8,1.8-5.9,10.7-22.8,20.2-33.2,26.2-.6.4-1.3.8-1.9,1.1-41.7,24.1-91.1,27.4-137.2,15.4-49.7-13.6-93.6-40.6-133.9-72-1.9-1.5-3.7-2.9-5.6-4.4-6.6-5.1-13-10.4-19.3-15.8-3.5-3-7-5.9-10.5-8.8-7.2-5.9-14.3-12-21.3-18.1-6.7-5.8-13.5-11.6-20.4-17.2-2.5-2.1-5.1-4.2-7.6-6.4-6.5-5.6-13.3-10.8-20.2-15.9-1.2-.9-2.4-1.8-3.6-2.7-64.4-47.9-136.1-62.6-213.9-73.8-86.3-12.5-172.9-29.2-287.5-102.5-1-.8-2-1.6-3-2.4-2.7-2.2-5.4-4.4-8-6.6-.6-.5-1.1-.9-1.7-1.4-6.4-5.4-12.7-10.8-18.5-16.8-1.8-1.8-3.7-3.5-5.7-5.2-3.9-3.3-7.2-7-10.6-10.8-2.3-2.6-4.6-5.1-6.9-7.6-5.8-6.2-11.3-12.6-16.5-19.2-.8-1-1.5-1.9-2.3-2.9-27.6-35.4-50.3-73.7-71.5-113.2-2-3.7-4-7.5-6.1-11.2-6.3-11.3-12.3-22.8-18.2-34.3-4.7-9.1-9.4-18.1-14.4-27-2.2-4-4.4-8-6.4-12.2-3.3-6.8-7.1-13.4-10.9-19.9-4-7-7.9-14.1-11.7-21.2-6-11.2-12.4-22.2-18.9-33.2-1.6-2.8-3.3-5.5-4.9-8.3-11.9-20.3-24.1-40.3-36.5-60.3-3.7-6-7.5-12.1-11.2-18.1-5.3-8.5-10.5-17.1-15.9-25.6-5-8-9.9-16-14.7-24-4-6.7-8.1-13.3-12.3-19.8-4.5-7.2-8.9-14.4-13-21.9-2.9-5.2-5.9-10.2-9-15.3-5.8-9.7-11.4-19.5-16.8-29.4-2.1-3.8-4.2-7.5-6.4-11.3-17.4-30-33-61.3-47.1-92.9-.8-1.8-1.7-3.7-2.5-5.5-33.2-73.6-57.3-151.7-65.5-238.5-.1-1.2-.2-2.4-.3-3.6-.9-11.3-.9-22.5-.9-33.8v-3.1c0-14.9.3-29.7,2.2-44.5.1-1.1.3-2.1.4-3.2,8.6-65.8,31.9-125.4,75.6-175.8.8-.9,1.6-1.8,2.4-2.8,3.9-4.5,7.9-8.6,12.5-12.4,2.5-2.1,4.8-4.3,7.1-6.5,26.5-24.1,59.3-40.9,93-52.3.9-.3,1.8-.6,2.8-1,50.5-17.2,107.7-19.8,160.2-12l.4-.4h0Z"/>
</svg>