<?xml version="1.0" encoding="UTF-8"?>
<svg id="Layer_1" xmlns="http://www.w3.org/2000/svg" xmlns:xlink="http://www.w3.org/1999/xlink" version="1.1" viewBox="0 0 800 800">
  <!-- Generator: Adobe Illustrator 29.2.1, SVG Export Plug-In . SVG Version: 2.1.0 Build 116)  -->
  <defs>
    <style>
      .st0 {
        fill: gray;
      }

      .st1 {
        fill: #c93;
      }

      .st2 {
        fill: #efc75e;
      }
    </style>
  </defs>
  <rect class="st0" x="1023.3" y="66.9" width="855.8" height="855.8"/>
  <path class="st2" d="M1454.9,98.7c220.9,0,400,179.1,400,400s-179.1,400-400,400-400-179.1-400-400,179.1-400,400-400Z"/>
  <path class="st1" d="M1454.9,173.7c-179.5,0-325,145.5-325,325s145.5,325,325,325,325-145.5,325-325-145.5-325-325-325ZM1454.9,773.7c-151.9,0-275-123.1-275-275s123.1-275,275-275,275,123.1,275,275-123.1,275-275,275ZM1488.2,477.9c-14.9-6.3-69.9-14.9-69.9-39s20.6-22.9,32.9-22.9,24.7,3.6,31.8,10.6c4.5,4.3,6.4,7.5,7.8,11.8,1.9,5.1,3,10.6,10.1,10.6h36.6c8.6,0,10.8-1.6,10.8-11,0-40.6-31.8-63.4-68-71.3v-31.5c0-7.1-2.3-11.4-10.8-11.4h-29.2c-8.6,0-10.8,4.3-10.8,11.4v30.3c-38.9,7.5-71.4,31.9-71.4,76s34.8,65.7,72.5,78.3c31.8,10.6,65,11,65,33.1s-16.4,26.8-36.6,26.8-29.1-3.6-36.6-13c-4.9-5.9-6.7-11-7.1-16.2-.8-9.8-4.9-11-13.5-11h-36.3c-8.6,0-10.8,2-10.8,11,0,44.9,35.9,72.1,74.8,80.7v30.7c0,7.1,2.3,11.4,10.8,11.4h29.2c8.6,0,10.8-4.3,10.8-11.4v-29.9c44.1-6.7,74.4-33.5,74.4-80.7,0-53.5-39.6-65-66.5-73.6Z"/>
</svg>