<?xml version="1.0" encoding="UTF-8"?>
<!DOCTYPE svg PUBLIC "-//W3C//DTD SVG 1.1//EN" "http://www.w3.org/Graphics/SVG/1.1/DTD/svg11.dtd">
<svg xmlns="http://www.w3.org/2000/svg" version="1.1" width="1200px" height="1200px" style="shape-rendering:geometricPrecision; text-rendering:geometricPrecision; image-rendering:optimizeQuality; fill-rule:evenodd; clip-rule:evenodd" xmlns:xlink="http://www.w3.org/1999/xlink">
<g><path style="opacity:0.994" fill="#fe0000" d="M 151.5,-0.5 C 152.167,-0.5 152.833,-0.5 153.5,-0.5C 302.465,148.965 451.632,298.299 601,447.5C 750.473,299.027 899.639,150.194 1048.5,1C 1049.5,0.333333 1050.5,0.333333 1051.5,1C 1100.34,51.007 1149.67,100.507 1199.5,149.5C 1199.5,151.167 1199.5,152.833 1199.5,154.5C 1050.83,302.839 902.161,451.173 753.5,599.5C 901.854,748.521 1050.52,897.188 1199.5,1045.5C 1199.5,1046.17 1199.5,1046.83 1199.5,1047.5C 1148.5,1097.83 1097.83,1148.5 1047.5,1199.5C 1046.5,1199.5 1045.5,1199.5 1044.5,1199.5C 896.201,1050.7 747.701,902.035 599,753.5C 451.194,900.306 303.694,1047.47 156.5,1195C 154.631,1196.6 152.631,1197.6 150.5,1198C 100.32,1147.99 50.3196,1097.82 0.5,1047.5C 148.86,898.473 297.527,749.806 446.5,601.5C 297.812,452.146 148.812,303.146 -0.5,154.5C -0.5,153.5 -0.5,152.5 -0.5,151.5C 50.5,101.167 101.167,50.5 151.5,-0.5 Z"/></g>
</svg>
